<?xml version="1.0" standalone="no"?>
<!DOCTYPE svg PUBLIC "-//W3C//DTD SVG 20010904//EN"
 "http://www.w3.org/TR/2001/REC-SVG-20010904/DTD/svg10.dtd">
<svg version="1.0" xmlns="http://www.w3.org/2000/svg"
 width="1440.000000pt" height="790.000000pt" viewBox="0 0 1440.000000 790.000000"
 preserveAspectRatio="xMidYMid meet">

<g transform="translate(0.000000,790.000000) scale(0.100000,-0.100000)"
fill="#000000" stroke="none">
<path d="M3597 7893 c1982 -2 5224 -2 7205 0 1982 1 361 2 -3602 2 -3963 0
-5584 -1 -3603 -2z"/>
<path d="M2383 7394 c-83 -41 -84 -193 -1 -244 49 -29 158 -27 158 4 0 9 -17
11 -60 8 -55 -4 -61 -2 -90 26 -28 29 -35 52 -31 107 5 61 52 90 131 83 36 -4
50 -2 50 7 0 29 -105 35 -157 9z"/>
<path d="M2637 7274 c-32 -76 -55 -139 -53 -142 16 -15 38 19 76 115 24 59 46
112 50 116 5 6 50 -91 50 -108 0 -2 -14 -5 -32 -7 -51 -5 -47 -28 5 -28 44 0
46 -1 63 -45 12 -32 22 -45 36 -45 11 0 18 4 16 9 -1 6 -28 68 -58 140 -74
176 -77 175 -153 -5z"/>
<path d="M2923 7400 c-42 -17 -56 -77 -27 -118 12 -17 25 -22 59 -22 67 0 95
-14 95 -49 0 -43 -20 -54 -95 -49 -48 3 -65 1 -65 -9 0 -34 153 -28 182 7 39
48 11 120 -46 120 -93 0 -132 29 -101 77 16 24 21 25 86 21 51 -4 69 -2 69 7
0 24 -109 34 -157 15z"/>
<path d="M3177 7274 c-32 -75 -56 -138 -53 -141 14 -15 35 13 66 88 18 46 40
99 48 118 l14 34 18 -40 c35 -78 34 -81 -1 -85 -52 -5 -49 -28 4 -28 43 0 45
-1 61 -45 13 -33 23 -45 38 -45 11 0 18 4 16 8 -1 5 -28 68 -58 140 -74 176
-77 176 -153 -4z"/>
<path d="M3483 7394 c-83 -41 -84 -193 -1 -244 35 -21 121 -27 148 -10 10 7
-5 9 -49 9 -93 -2 -141 40 -141 124 0 84 47 122 144 115 31 -1 56 0 56 3 0 23
-112 25 -157 3z"/>
<path d="M3700 7270 c0 -87 4 -140 10 -140 6 0 10 50 10 130 l0 130 64 0 c71
0 89 -12 84 -57 -2 -21 -12 -33 -40 -46 -21 -10 -38 -22 -38 -26 0 -13 90
-131 100 -131 16 0 12 8 -32 67 -41 53 -41 56 -23 69 47 34 55 45 55 78 0 51
-27 66 -117 66 l-73 0 0 -140z"/>
<path d="M3964 7270 c0 -80 2 -112 3 -72 2 39 2 105 0 145 -1 39 -3 7 -3 -73z"/>
<path d="M4135 7378 c-7 -18 -34 -77 -59 -132 -47 -101 -52 -116 -38 -116 4 0
32 56 62 125 29 69 56 125 60 125 8 0 60 -114 60 -131 0 -5 -25 -9 -55 -9 -30
0 -55 -4 -55 -10 0 -6 28 -10 64 -10 l64 0 19 -45 c10 -25 24 -45 30 -45 9 0
5 17 -11 53 -13 28 -41 91 -62 139 -22 48 -45 88 -52 88 -7 0 -19 -15 -27 -32z"/>
<path d="M4310 7400 c0 -5 20 -10 45 -10 l45 0 0 -130 c0 -80 4 -130 10 -130
6 0 10 50 10 130 l0 130 50 0 c28 0 50 5 50 10 0 6 -42 10 -105 10 -63 0 -105
-4 -105 -10z"/>
<path d="M4560 7270 c0 -87 4 -140 10 -140 6 0 10 53 10 140 0 87 -4 140 -10
140 -6 0 -10 -53 -10 -140z"/>
<path d="M4682 7298 c27 -62 55 -125 60 -140 21 -57 41 -35 106 113 34 77 56
139 49 136 -7 -2 -38 -62 -69 -133 l-56 -128 -34 74 c-19 41 -45 101 -58 132
-14 32 -30 58 -37 58 -7 0 9 -47 39 -112z"/>
<path d="M5035 7378 c-7 -18 -34 -77 -59 -132 -47 -100 -52 -116 -38 -116 4 0
32 56 61 125 30 69 57 125 61 125 8 0 60 -114 60 -131 0 -5 -25 -9 -55 -9 -30
0 -55 -4 -55 -10 0 -6 28 -10 64 -10 l64 0 19 -45 c10 -25 24 -45 30 -45 9 0
5 17 -11 53 -13 28 -41 91 -62 139 -22 48 -45 88 -52 88 -7 0 -19 -15 -27 -32z"/>
<path d="M7470 7174 c0 -21 -4 -24 -20 -19 -31 10 -60 -12 -60 -45 0 -34 12
-43 62 -46 l38 -2 0 69 c0 39 -4 69 -10 69 -5 0 -10 -12 -10 -26z m-10 -50
c11 -12 10 -18 -3 -32 -16 -15 -18 -15 -34 0 -13 14 -14 20 -3 32 7 9 16 16
20 16 4 0 13 -7 20 -16z"/>
<path d="M8787 7186 c-3 -7 8 -11 26 -11 17 0 32 5 34 10 4 14 -55 15 -60 1z"/>
<path d="M6692 7170 c-12 -12 -22 -32 -22 -45 0 -29 36 -65 65 -65 12 0 30 7
41 15 18 15 17 16 -14 10 -39 -8 -62 7 -62 40 0 33 23 48 62 40 31 -6 32 -5
14 10 -27 21 -58 19 -84 -5z"/>
<path d="M6810 7121 c0 -47 13 -59 63 -59 l37 0 0 49 c0 36 -4 49 -14 49 -10
0 -16 -13 -18 -37 -2 -26 -8 -38 -18 -38 -10 0 -16 12 -18 38 -4 52 -32 51
-32 -2z"/>
<path d="M6940 7108 c0 -36 4 -48 15 -48 11 0 15 11 15 35 0 22 6 38 15 41 25
10 17 21 -15 21 -29 0 -30 -2 -30 -49z"/>
<path d="M7020 7144 c-12 -14 -12 -18 5 -30 10 -8 25 -14 32 -14 7 0 13 -5 13
-11 0 -7 -10 -9 -25 -7 -35 7 -42 -10 -9 -18 53 -13 84 30 35 49 -37 14 -41
31 -6 24 16 -3 24 0 22 7 -6 18 -52 19 -67 0z"/>
<path d="M7127 7142 c-22 -24 -21 -45 1 -65 24 -22 55 -21 75 1 22 24 21 45
-1 65 -24 22 -55 21 -75 -1z m58 -32 c0 -16 -6 -26 -18 -28 -19 -4 -32 20 -23
44 9 25 41 13 41 -16z"/>
<path d="M7240 7144 c-12 -14 -12 -18 5 -30 10 -8 25 -14 32 -14 7 0 13 -5 13
-11 0 -7 -10 -9 -25 -7 -35 7 -42 -10 -9 -18 53 -13 84 30 35 49 -37 14 -41
31 -6 24 16 -3 24 0 22 7 -6 18 -52 19 -67 0z"/>
<path d="M7538 7149 c-26 -14 -23 -65 3 -79 23 -13 73 -5 64 9 -3 5 -14 7 -24
4 -10 -3 -22 0 -25 6 -5 7 5 11 28 11 40 0 47 17 18 43 -21 19 -39 21 -64 6z
m47 -19 c4 -6 -5 -10 -20 -10 -15 0 -24 4 -20 10 3 6 12 10 20 10 8 0 17 -4
20 -10z"/>
<path d="M7690 7089 c0 -55 3 -69 15 -69 9 0 15 9 15 24 0 19 4 22 23 19 27
-5 57 19 57 47 0 30 -27 49 -70 48 l-40 0 0 -69z m75 21 c0 -29 -32 -41 -41
-16 -9 24 4 48 23 44 12 -2 18 -12 18 -28z"/>
<path d="M7820 7109 c0 -37 4 -49 15 -49 11 0 15 11 15 35 0 22 6 38 15 41 25
10 17 21 -15 22 -29 1 -30 0 -30 -49z"/>
<path d="M7910 7140 c-11 -11 -20 -24 -20 -30 0 -17 39 -50 58 -50 22 0 52 30
52 52 0 19 -32 48 -53 48 -9 0 -26 -9 -37 -20z m55 -30 c0 -16 -6 -26 -18 -28
-19 -4 -32 20 -23 44 9 25 41 13 41 -16z"/>
<path d="M8037 7148 c-24 -13 -22 -65 3 -78 12 -6 30 -8 40 -5 11 4 20 2 20
-3 0 -14 -30 -24 -51 -17 -9 3 -20 1 -24 -4 -9 -16 43 -25 71 -12 21 9 24 17
24 69 l0 58 -33 1 c-18 0 -41 -3 -50 -9z m47 -14 c21 -8 20 -40 -1 -48 -9 -4
-23 0 -31 8 -13 12 -13 18 -2 30 14 18 13 18 34 10z"/>
<path d="M8160 7108 c0 -26 5 -48 10 -48 6 0 10 13 10 30 0 19 7 34 20 42 28
18 25 25 -10 25 -29 0 -30 -2 -30 -49z"/>
<path d="M8240 7150 c-16 -10 -8 -13 28 -10 33 2 27 -17 -8 -23 -21 -5 -30
-12 -30 -27 0 -22 0 -22 53 -25 36 -2 37 -2 37 34 0 21 -5 42 -12 49 -14 14
-47 15 -68 2z m55 -60 c-3 -5 -13 -10 -21 -10 -8 0 -14 5 -14 10 0 6 9 10 21
10 11 0 17 -4 14 -10z"/>
<path d="M8350 7109 c0 -36 4 -49 14 -49 10 0 16 13 18 38 2 25 8 37 18 37 10
0 16 -12 18 -37 2 -24 8 -38 17 -38 9 0 15 14 17 38 2 25 8 37 18 37 10 0 16
-12 18 -37 4 -49 32 -53 32 -5 0 55 -11 62 -95 63 l-75 2 0 -49z"/>
<path d="M8550 7150 c-16 -10 -8 -13 28 -10 33 2 27 -17 -8 -23 -21 -5 -30
-12 -30 -27 0 -22 0 -22 53 -25 36 -2 37 -2 37 34 0 21 -5 42 -12 49 -14 14
-47 15 -68 2z m55 -60 c-3 -5 -13 -10 -21 -10 -8 0 -14 5 -14 10 0 6 9 10 21
10 11 0 17 -4 14 -10z"/>
<path d="M8678 7149 c-27 -15 -22 -58 9 -86 21 -20 23 -27 12 -34 -12 -7 -11
-9 2 -9 22 0 31 11 18 26 -7 9 -5 14 10 19 29 9 26 29 -3 21 -31 -8 -54 17
-36 39 8 9 21 13 36 9 27 -7 33 10 8 20 -22 8 -36 7 -56 -5z"/>
<path d="M8780 7150 c-15 -10 -8 -14 22 -11 30 3 28 -16 -3 -23 -25 -5 -30
-10 -27 -28 3 -20 9 -23 46 -24 l42 -1 0 38 c0 50 -40 75 -80 49z m50 -60 c0
-5 -6 -10 -14 -10 -8 0 -18 5 -21 10 -3 6 3 10 14 10 12 0 21 -4 21 -10z"/>
<path d="M8900 7140 c-11 -11 -20 -24 -20 -30 0 -17 39 -50 58 -50 22 0 52 30
52 52 0 19 -32 48 -53 48 -9 0 -26 -9 -37 -20z m55 -30 c0 -16 -6 -26 -18 -28
-19 -4 -32 20 -23 44 9 25 41 13 41 -16z"/>
<path d="M6680 6820 l0 -60 38 2 c36 1 36 1 5 5 -27 4 -33 9 -33 28 0 18 6 25
28 28 l27 4 -27 2 c-21 1 -28 6 -28 20 0 15 8 21 33 24 31 4 31 4 -5 5 l-38 2
0 -60z"/>
<path d="M6863 6843 c9 -2 23 -2 30 0 6 3 -1 5 -18 5 -16 0 -22 -2 -12 -5z"/>
<path d="M6932 6820 c0 -19 2 -27 5 -17 2 9 2 25 0 35 -3 9 -5 1 -5 -18z"/>
<path d="M5765 6815 c-16 -15 -25 -36 -25 -55 0 -19 9 -40 25 -55 15 -16 36
-25 55 -25 19 0 40 9 55 25 16 15 25 36 25 55 0 19 -9 40 -25 55 -15 16 -36
25 -55 25 -19 0 -40 -9 -55 -25z m80 -7 c45 -20 42 -88 -5 -103 -67 -21 -104
69 -42 104 21 13 17 13 47 -1z"/>
<path d="M5817 6773 c-11 -10 -8 -43 3 -43 6 0 10 4 10 9 0 5 3 16 6 25 6 16
-7 22 -19 9z"/>
<path d="M6130 6760 l0 -80 105 0 105 0 0 80 0 80 -105 0 -105 0 0 -80z m188
33 c4 -25 -7 -30 -26 -11 -9 9 -16 8 -30 -5 -14 -13 -21 -14 -30 -5 -9 9 -20
4 -47 -22 l-35 -34 0 52 0 53 83 -3 c76 -3 82 -5 85 -25z m-16 -50 c18 -16 25
-43 10 -43 -14 0 -53 46 -45 53 9 10 14 9 35 -10z m-57 -23 c18 -20 17 -20
-25 -20 -42 0 -43 0 -25 20 10 11 21 20 25 20 4 0 15 -9 25 -20z"/>
<path d="M6798 6763 c7 -3 16 -2 19 1 4 3 -2 6 -13 5 -11 0 -14 -3 -6 -6z"/>
<path d="M5995 6703 c-11 -11 -15 -28 -13 -51 3 -27 -1 -40 -19 -58 -13 -13
-30 -24 -36 -24 -7 0 -18 -5 -23 -10 -6 -6 -44 -12 -85 -13 l-74 -2 -3 -42
c-2 -34 0 -43 12 -43 12 0 16 10 16 35 0 28 4 35 20 35 19 0 20 -7 20 -105 0
-98 -1 -105 -20 -105 -16 0 -20 7 -20 30 0 20 -5 30 -16 30 -12 0 -14 -9 -12
-42 2 -36 7 -44 26 -46 16 -3 22 -10 22 -28 0 -23 3 -25 38 -22 30 2 38 7 40
26 2 13 10 22 20 22 10 0 22 -10 27 -22 8 -20 18 -23 60 -23 42 0 52 3 60 23
9 20 16 22 92 22 77 0 82 -1 85 -22 2 -19 10 -24 41 -26 34 -3 37 -1 37 22 0
18 6 25 23 28 21 3 22 6 22 128 l0 125 -100 3 c-66 1 -101 6 -104 14 -2 7 -14
22 -26 34 -16 16 -21 30 -17 53 8 58 -54 94 -93 54z m65 -43 c0 -16 -6 -30
-12 -33 -24 -8 -38 5 -38 33 0 16 6 30 13 33 23 8 37 -5 37 -33z m33 -91 c22
-27 23 -97 2 -106 -21 -7 -32 4 -18 18 8 8 9 17 1 33 -6 11 -14 28 -18 36 -4
8 -25 17 -46 20 -36 5 -37 6 -19 18 27 16 76 7 98 -19z m-53 -64 l0 -46 -62 3
c-68 3 -77 12 -64 64 6 22 11 24 66 24 l60 0 0 -45z m270 -80 c0 -98 -1 -105
-20 -105 -19 0 -20 7 -20 105 0 98 1 105 20 105 19 0 20 -7 20 -105z m-420 57
c0 -21 5 -43 12 -50 9 -9 8 -13 -5 -18 -34 -13 -52 0 -55 40 -4 49 3 66 28 66
17 0 20 -6 20 -38z m345 -17 l0 -50 -54 -3 c-46 -3 -53 -1 -47 13 3 9 6 35 6
56 l0 40 48 -3 47 -3 0 -50z m-137 -37 c-3 -7 -22 -15 -44 -18 l-39 -5 -3 -67
c-2 -38 -7 -68 -12 -68 -15 0 -12 144 2 158 17 17 101 16 96 0z m-138 -78 c0
-64 -3 -80 -15 -80 -12 0 -15 14 -15 64 0 68 6 96 21 96 5 0 9 -36 9 -80z
m-60 0 c0 -25 -4 -30 -25 -30 -21 0 -25 5 -25 30 0 25 4 30 25 30 21 0 25 -5
25 -30z m330 0 l0 -30 -95 0 -95 0 0 30 0 30 95 0 95 0 0 -30z m-393 -76 c-3
-3 -12 -4 -19 -1 -8 3 -5 6 6 6 11 1 17 -2 13 -5z m430 0 c-3 -3 -12 -4 -19
-1 -8 3 -5 6 6 6 11 1 17 -2 13 -5z"/>
<path d="M7869 6468 c-1 -13 -2 -40 -3 -61 -2 -21 1 -40 6 -43 4 -3 8 24 8 60
0 36 -2 66 -5 66 -3 0 -5 -10 -6 -22z"/>
<path d="M8013 6425 c0 -38 2 -53 4 -32 2 20 2 52 0 70 -2 17 -4 1 -4 -38z"/>
<path d="M10180 6466 c0 -19 -4 -23 -20 -19 -26 7 -50 -13 -50 -42 0 -29 20
-46 54 -43 25 2 26 4 26 65 0 35 -2 63 -5 63 -3 0 -5 -11 -5 -24z m-5 -61 c0
-25 -4 -30 -25 -30 -16 0 -26 6 -28 18 -6 30 6 49 30 45 18 -2 23 -9 23 -33z"/>
<path d="M11043 6425 c0 -38 2 -53 4 -32 2 20 2 52 0 70 -2 17 -4 1 -4 -38z"/>
<path d="M6682 6423 l-2 -63 38 2 c36 1 36 1 5 5 -31 4 -32 5 -36 61 l-3 57
-2 -62z"/>
<path d="M11280 6420 l0 -60 43 2 42 1 -37 4 c-32 4 -38 8 -38 28 0 19 6 24
33 28 l32 4 -32 1 c-25 2 -33 7 -33 21 0 15 8 21 33 24 31 4 31 4 -5 5 l-38 2
0 -60z"/>
<path d="M8388 6458 c-2 -7 -1 -29 3 -48 l6 -35 2 33 c1 23 6 32 19 33 13 0
14 2 2 6 -8 3 -18 10 -21 15 -3 5 -8 4 -11 -4z"/>
<path d="M9578 6458 c-2 -6 -1 -29 2 -52 4 -31 10 -41 25 -43 16 -1 16 -1 3 3
-13 4 -18 16 -18 39 0 18 4 35 9 37 5 2 3 8 -4 15 -10 9 -15 9 -17 1z"/>
<path d="M9738 6458 c-2 -6 -1 -29 2 -52 4 -31 10 -41 25 -43 16 -1 16 -1 3 3
-13 4 -18 16 -18 39 0 18 4 35 9 37 5 2 3 8 -4 15 -10 9 -15 9 -17 1z"/>
<path d="M11128 6458 c-2 -7 -1 -29 3 -48 l6 -35 2 33 c1 23 6 32 19 33 13 0
14 2 2 6 -8 3 -18 10 -21 15 -3 5 -8 4 -11 -4z"/>
<path d="M4270 6425 c0 -22 -3 -25 -24 -19 -15 3 -29 -1 -40 -11 -32 -33 -13
-69 38 -70 l36 -2 0 64 c0 35 -2 63 -5 63 -3 0 -5 -11 -5 -25z m-6 -47 c8 -14
7 -21 -6 -34 -30 -30 -75 9 -48 42 16 18 39 15 54 -8z"/>
<path d="M4533 6385 c0 -38 2 -53 4 -32 2 20 2 52 0 70 -2 17 -4 1 -4 -38z"/>
<path d="M6779 6433 c-12 -16 -12 -17 1 -7 8 6 22 14 30 17 13 5 12 6 -1 6 -9
1 -23 -7 -30 -16z"/>
<path d="M6870 6405 c0 -27 2 -46 4 -44 8 8 10 78 3 85 -4 4 -7 -14 -7 -41z"/>
<path d="M6942 6438 c-27 -27 -7 -78 29 -78 10 0 20 4 23 8 2 4 -7 8 -21 7
-43 0 -39 23 4 28 l38 4 -37 1 c-42 2 -50 18 -15 32 13 5 16 9 7 9 -9 1 -21
-4 -28 -11z"/>
<path d="M7030 6405 c0 -27 2 -46 4 -44 8 8 10 78 3 85 -4 4 -7 -14 -7 -41z"/>
<path d="M7078 6440 c17 -7 22 -18 23 -47 l2 -38 6 40 c5 31 10 40 26 40 16 0
21 -9 26 -40 l6 -40 2 36 c1 45 -21 69 -49 51 -12 -7 -21 -8 -25 -2 -3 6 -14
10 -23 9 -12 0 -11 -3 6 -9z"/>
<path d="M7253 6405 c0 -27 2 -38 4 -22 2 15 2 37 0 50 -2 12 -4 0 -4 -28z"/>
<path d="M7290 6390 c0 -35 2 -61 6 -58 8 8 9 106 1 114 -4 4 -7 -21 -7 -56z"/>
<path d="M7338 6440 c12 -5 22 -15 22 -21 0 -7 3 -9 6 -6 10 10 -16 37 -35 36
-11 0 -9 -3 7 -9z"/>
<path d="M7401 6436 c-12 -15 -2 -27 32 -39 26 -10 10 -30 -19 -24 -13 2 -21
0 -18 -4 8 -14 40 -11 53 4 12 15 -3 37 -25 37 -24 0 -25 20 -2 29 15 7 17 10
7 10 -9 1 -22 -5 -28 -13z"/>
<path d="M7482 6419 c-1 -22 4 -42 13 -49 16 -13 55 -5 55 12 0 6 -6 6 -15 -2
-24 -20 -43 -4 -48 37 l-4 38 -1 -36z"/>
<path d="M7591 6400 l2 -45 6 40 c5 31 10 40 26 40 16 0 21 -8 25 -40 l6 -40
5 42 c2 23 1 39 -3 37 -3 -2 -9 0 -13 6 -3 5 -17 9 -30 8 -23 -2 -25 -6 -24
-48z"/>
<path d="M7690 6443 c8 -3 19 -11 23 -17 6 -7 7 -6 4 4 -2 8 -12 16 -23 17
-13 2 -15 1 -4 -4z"/>
<path d="M7810 6440 c-24 -15 -7 -18 20 -3 14 7 18 13 10 13 -8 0 -22 -4 -30
-10z"/>
<path d="M7919 6433 c-12 -16 -12 -17 1 -7 8 6 22 14 30 17 13 5 12 6 -1 6 -9
1 -23 -7 -30 -16z"/>
<path d="M8060 6436 c-28 -35 11 -93 48 -70 35 22 22 84 -18 84 -10 0 -23 -7
-30 -14z m55 -31 c0 -25 -4 -30 -25 -30 -16 0 -26 6 -28 18 -6 30 6 49 30 45
18 -2 23 -9 23 -33z"/>
<path d="M8162 6400 c1 -40 2 -41 5 -10 2 19 11 40 20 47 13 10 13 12 -6 10
-18 -1 -21 -7 -19 -47z"/>
<path d="M8264 6435 c-8 -20 4 -35 27 -35 25 0 25 -27 -1 -33 -17 -4 -16 -4 2
-3 32 2 32 40 1 44 -13 2 -23 10 -23 17 0 7 10 16 23 18 l22 4 -23 2 c-12 0
-25 -6 -28 -14z"/>
<path d="M8528 6440 c30 -13 28 -28 -5 -32 -20 -2 -28 -9 -28 -23 0 -16 7 -20
33 -21 30 -1 32 1 32 31 0 34 -15 55 -39 54 -10 0 -7 -4 7 -9z m20 -52 c-7
-20 -48 -23 -48 -4 0 11 9 16 26 16 16 0 24 -5 22 -12z"/>
<path d="M8613 6443 c-7 -2 -13 -9 -13 -15 0 -6 6 -6 15 2 25 20 45 4 46 -37
l2 -38 6 40 c5 31 11 41 28 43 19 3 22 -2 26 -40 l4 -43 1 43 c2 47 -16 64
-49 44 -11 -7 -20 -8 -24 -2 -7 11 -22 12 -42 3z"/>
<path d="M8772 6438 c-27 -27 -7 -78 29 -78 10 0 20 4 23 8 2 4 -7 8 -21 7
-43 0 -39 23 4 28 l38 4 -37 1 c-42 2 -50 18 -15 32 13 5 16 9 7 9 -9 1 -21
-4 -28 -11z"/>
<path d="M8863 6443 c9 -2 23 -2 30 0 6 3 -1 5 -18 5 -16 0 -22 -2 -12 -5z"/>
<path d="M9012 6438 c-27 -27 -7 -78 29 -78 10 0 20 4 23 8 2 4 -8 8 -22 7
-23 0 -27 4 -27 30 0 26 4 30 27 30 14 -1 24 3 22 7 -8 12 -38 10 -52 -4z"/>
<path d="M9100 6436 c-28 -35 11 -93 48 -70 35 22 22 84 -18 84 -10 0 -23 -7
-30 -14z m55 -31 c0 -25 -4 -30 -25 -30 -16 0 -26 6 -28 18 -6 30 6 49 30 45
18 -2 23 -9 23 -33z"/>
<path d="M9200 6405 c0 -27 2 -46 4 -44 8 8 10 78 3 85 -4 4 -7 -14 -7 -41z"/>
<path d="M9230 6446 c0 -2 9 -6 20 -9 11 -3 18 -1 14 4 -5 9 -34 13 -34 5z"/>
<path d="M9304 6435 c-8 -20 4 -35 27 -35 25 0 25 -27 -1 -33 -17 -4 -16 -4 2
-3 32 2 32 40 1 44 -13 2 -23 10 -23 17 0 7 10 16 23 18 l22 4 -23 2 c-12 0
-25 -6 -28 -14z"/>
<path d="M9392 6438 c-27 -27 -7 -78 29 -78 10 0 20 4 23 8 2 4 -7 8 -21 7
-14 0 -28 6 -30 13 -3 8 7 12 31 12 20 0 36 4 36 8 0 4 -16 6 -35 4 -40 -5
-48 13 -12 28 13 5 16 9 7 9 -9 1 -21 -4 -28 -11z"/>
<path d="M9492 6438 c-27 -27 -7 -78 29 -78 10 0 20 4 23 8 2 4 -8 8 -22 7
-23 0 -27 4 -27 30 0 26 4 30 27 30 14 -1 24 3 22 7 -8 12 -38 10 -52 -4z"/>
<path d="M9678 6440 c31 -13 27 -30 -8 -30 -23 0 -28 4 -24 18 3 10 0 8 -7 -4
-8 -17 -8 -27 1 -40 10 -17 11 -17 6 -1 -4 14 1 17 29 17 22 0 35 5 35 13 0
18 -21 37 -39 36 -10 0 -7 -4 7 -9z"/>
<path d="M9868 6409 c-2 -22 0 -43 4 -45 4 -3 8 15 8 40 0 57 -7 60 -12 5z"/>
<path d="M9910 6405 c0 -27 2 -46 4 -44 8 8 10 78 3 85 -4 4 -7 -14 -7 -41z"/>
<path d="M10026 6442 c-3 -5 6 -7 19 -4 18 3 25 0 25 -12 0 -9 -8 -16 -18 -16
-27 0 -44 -21 -31 -37 7 -7 19 -13 28 -12 10 0 8 3 -7 10 -26 10 -21 29 8 29
11 0 20 -9 23 -22 3 -13 4 -3 3 22 -1 38 -4 45 -23 48 -11 2 -24 -1 -27 -6z"/>
<path d="M10270 6390 c0 -35 2 -61 6 -58 8 8 9 106 1 114 -4 4 -7 -21 -7 -56z"/>
<path d="M10318 6440 c12 -5 22 -15 22 -21 0 -7 3 -9 6 -6 10 10 -16 37 -35
36 -11 0 -9 -3 7 -9z"/>
<path d="M10383 6405 c0 -27 2 -38 4 -22 2 15 2 37 0 50 -2 12 -4 0 -4 -28z"/>
<path d="M10421 6436 c-12 -15 -2 -27 32 -39 26 -10 10 -30 -19 -24 -13 2 -21
0 -18 -4 8 -14 40 -11 53 5 12 15 2 27 -33 40 -22 7 -12 21 19 29 19 4 19 5
-1 6 -12 0 -27 -5 -33 -13z"/>
<path d="M10503 6405 c0 -27 2 -38 4 -22 2 15 2 37 0 50 -2 12 -4 0 -4 -28z"/>
<path d="M10552 6438 c-27 -27 -7 -78 29 -78 10 0 20 4 23 8 2 4 -8 8 -22 7
-23 0 -27 4 -27 30 0 26 4 30 27 30 14 -1 24 3 22 7 -8 12 -38 10 -52 -4z"/>
<path d="M10643 6405 c0 -27 2 -38 4 -22 2 15 2 37 0 50 -2 12 -4 0 -4 -28z"/>
<path d="M10680 6405 c0 -27 2 -46 4 -44 8 8 10 78 3 85 -4 4 -7 -14 -7 -41z"/>
<path d="M10728 6440 c17 -7 22 -18 24 -47 l1 -38 4 33 c5 37 -10 62 -36 61
-11 0 -9 -3 7 -9z"/>
<path d="M10800 6440 c-24 -15 -7 -18 20 -3 14 7 18 13 10 13 -8 0 -22 -4 -30
-10z"/>
<path d="M10859 6443 c0 -5 -2 -23 -3 -41 -2 -18 0 -35 5 -38 5 -3 9 15 9 40
0 25 -2 46 -5 46 -3 0 -5 -3 -6 -7z"/>
<path d="M10952 6438 c-27 -27 -7 -78 29 -78 10 0 20 4 23 8 2 4 -7 8 -21 7
-43 0 -39 23 4 28 l38 4 -37 1 c-42 2 -50 18 -15 32 13 5 16 9 7 9 -9 1 -21
-4 -28 -11z"/>
<path d="M11093 6405 c0 -27 2 -38 4 -22 2 15 2 37 0 50 -2 12 -4 0 -4 -28z"/>
<path d="M11383 6443 c9 -2 23 -2 30 0 6 3 -1 5 -18 5 -16 0 -22 -2 -12 -5z"/>
<path d="M2321 6378 c1 -35 4 -51 6 -36 3 22 10 28 36 31 l32 4 -32 1 c-28 2
-33 6 -33 26 0 20 6 25 33 29 31 4 31 4 -5 5 l-38 2 1 -62z"/>
<path d="M6834 6404 c0 -30 2 -33 9 -16 5 12 5 26 0 36 -7 12 -9 7 -9 -20z"/>
<path d="M7974 6404 c0 -30 2 -33 9 -16 5 12 5 26 0 36 -7 12 -9 7 -9 -20z"/>
<path d="M5740 6420 c0 -5 7 -10 15 -10 8 0 15 5 15 10 0 6 -7 10 -15 10 -8 0
-15 -4 -15 -10z"/>
<path d="M9272 6390 c0 -19 2 -27 5 -17 2 9 2 25 0 35 -3 9 -5 1 -5 -18z"/>
<path d="M2423 6365 c0 -27 2 -38 4 -22 2 15 2 37 0 50 -2 12 -4 0 -4 -28z"/>
<path d="M2473 6403 c-7 -2 -13 -9 -13 -15 0 -6 6 -6 15 2 8 6 24 9 37 5 18
-5 20 -4 8 4 -16 11 -28 12 -47 4z"/>
<path d="M2556 6402 c-4 -6 3 -8 15 -5 12 4 25 0 31 -8 8 -12 9 -11 5 1 -4 17
-42 26 -51 12z"/>
<path d="M2652 6360 c1 -40 2 -41 5 -10 2 19 11 40 20 47 13 10 13 12 -6 10
-18 -1 -21 -7 -19 -47z"/>
<path d="M2762 6398 c-27 -27 -7 -78 29 -78 10 0 20 4 23 8 2 4 -7 8 -21 7
-14 0 -28 6 -30 13 -3 8 7 12 31 12 20 0 36 4 36 8 0 4 -16 6 -36 4 -28 -3
-35 -1 -32 9 3 8 17 14 31 14 14 -1 23 3 21 7 -8 12 -38 10 -52 -4z"/>
<path d="M2873 6403 c-7 -2 -13 -12 -13 -21 0 -13 2 -13 14 3 21 29 46 12 47
-32 l2 -38 6 40 c5 31 11 41 28 43 19 3 22 -2 26 -40 l4 -43 1 43 c2 47 -16
64 -49 44 -11 -7 -20 -8 -24 -2 -7 11 -22 12 -42 3z"/>
<path d="M3072 6398 c-27 -27 -7 -78 29 -78 10 0 20 4 23 8 2 4 -8 8 -22 7
-23 0 -27 4 -27 30 0 26 4 30 27 30 14 -1 24 3 22 7 -8 12 -38 10 -52 -4z"/>
<path d="M3166 6402 c-3 -5 6 -7 19 -4 18 3 25 0 25 -12 0 -9 -8 -16 -19 -16
-10 0 -24 -6 -30 -14 -15 -17 6 -36 37 -33 20 1 23 6 20 42 -2 32 -7 41 -25
43 -11 2 -24 -1 -27 -6z m44 -51 c0 -6 -5 -13 -10 -16 -15 -9 -43 3 -35 15 8
13 45 13 45 1z"/>
<path d="M3254 6395 c-8 -19 4 -35 24 -34 15 1 15 2 0 6 -26 6 -22 31 5 36
l22 4 -23 2 c-12 0 -25 -6 -28 -14z"/>
<path d="M3336 6402 c-2 -4 7 -8 21 -7 36 0 41 -23 6 -27 -20 -2 -28 -9 -28
-23 0 -11 7 -20 15 -21 9 0 10 1 3 3 -24 8 -14 33 13 33 19 0 25 -4 21 -15 -4
-8 -2 -17 3 -20 14 -9 12 59 -2 73 -14 14 -44 16 -52 4z"/>
<path d="M3483 6403 c-7 -2 -13 -9 -13 -15 0 -6 6 -6 15 2 8 7 22 10 30 6 27
-10 16 -25 -22 -29 l-38 -4 43 -1 c43 -2 55 11 30 36 -13 13 -24 14 -45 5z"/>
<path d="M3571 6360 l2 -45 6 40 c6 41 35 61 52 34 6 -10 10 -10 23 0 25 21
44 6 49 -36 l4 -38 1 36 c2 45 -20 69 -48 51 -12 -7 -21 -8 -25 -2 -4 6 -20 9
-36 8 -28 -2 -29 -4 -28 -48z"/>
<path d="M3781 6345 c1 -33 4 -50 6 -37 3 17 9 21 22 17 21 -6 51 3 51 16 0 5
-9 4 -19 -3 -15 -9 -23 -9 -35 1 -9 8 -16 19 -16 26 0 7 7 18 16 26 12 10 20
10 35 1 11 -7 19 -8 19 -2 0 10 -7 12 -52 14 -28 2 -28 1 -27 -59z"/>
<path d="M3903 6403 c-7 -2 -13 -9 -13 -15 0 -6 6 -6 15 2 8 7 22 10 30 6 27
-10 16 -25 -22 -29 l-38 -4 43 -1 c43 -2 55 11 30 36 -13 13 -24 14 -45 5z"/>
<path d="M3992 6360 c1 -40 2 -41 5 -10 2 19 11 40 20 47 13 10 13 12 -6 10
-18 -1 -21 -7 -19 -47z"/>
<path d="M4100 6396 c-28 -35 11 -93 48 -70 35 22 22 84 -18 84 -10 0 -23 -7
-30 -14z m55 -31 c0 -25 -4 -30 -25 -30 -16 0 -26 6 -28 18 -6 30 6 49 30 45
18 -2 23 -9 23 -33z"/>
<path d="M4316 6394 c-9 -8 -16 -22 -16 -29 0 -15 27 -45 40 -45 17 0 40 12
40 21 0 5 -9 4 -19 -3 -15 -9 -23 -9 -35 1 -9 8 -16 19 -16 26 0 7 7 18 16 26
12 10 20 10 35 1 10 -7 19 -8 19 -3 0 9 -23 21 -40 21 -5 0 -16 -7 -24 -16z"/>
<path d="M4412 6398 c-18 -18 -15 -25 19 -37 35 -12 30 -35 -7 -28 -13 2 -21
0 -18 -4 8 -14 40 -11 53 5 12 15 2 27 -33 40 -22 7 -12 21 19 29 20 5 20 5 0
6 -12 0 -26 -4 -33 -11z"/>
<path d="M4580 6396 c-28 -35 11 -93 48 -70 35 22 22 84 -18 84 -10 0 -23 -7
-30 -14z m55 -31 c0 -25 -4 -30 -25 -30 -16 0 -26 6 -28 18 -6 30 6 49 30 45
18 -2 23 -9 23 -33z"/>
<path d="M4681 6361 l2 -46 6 40 c5 31 10 40 26 40 16 0 21 -9 26 -40 l7 -40
-2 45 c-1 44 -2 45 -33 46 -33 1 -33 1 -32 -45z"/>
<path d="M4792 6398 c-30 -30 -2 -85 39 -75 12 3 19 1 16 -6 -2 -6 -14 -14
-28 -18 -14 -4 -17 -7 -7 -8 33 -2 48 11 48 42 0 28 -1 29 -13 13 -21 -28 -52
-17 -52 19 0 36 31 47 52 19 11 -15 13 -15 13 -2 0 26 -47 37 -68 16z"/>
<path d="M4900 6396 c-28 -35 11 -93 48 -70 35 22 22 84 -18 84 -10 0 -23 -7
-30 -14z m55 -31 c0 -25 -4 -30 -25 -30 -16 0 -26 6 -28 18 -6 30 6 49 30 45
18 -2 23 -9 23 -33z"/>
<path d="M5002 6398 c-18 -18 -15 -25 19 -37 35 -12 30 -35 -7 -28 -13 2 -21
0 -18 -4 8 -14 40 -11 53 5 12 15 2 27 -33 40 -22 7 -12 21 19 29 20 5 20 5 0
6 -12 0 -26 -4 -33 -11z"/>
<path d="M7360 6391 c0 -6 -10 -16 -22 -21 -16 -6 -18 -9 -7 -9 19 -1 45 26
35 36 -3 3 -6 1 -6 -6z"/>
<path d="M10340 6391 c0 -6 -10 -16 -22 -21 -16 -6 -18 -9 -7 -9 19 -1 45 26
35 36 -3 3 -6 1 -6 -6z"/>
<path d="M6782 6374 c9 -9 21 -15 27 -13 6 2 -2 10 -17 17 -25 11 -25 11 -10
-4z"/>
<path d="M7800 6380 c0 -9 39 -25 45 -18 2 2 -7 8 -21 15 -13 6 -24 7 -24 3z"/>
<path d="M7922 6374 c9 -9 21 -15 27 -13 6 2 -2 10 -17 17 -25 11 -25 11 -10
-4z"/>
<path d="M9813 6380 c2 -8 12 -16 23 -17 13 -2 15 -1 4 4 -8 3 -19 11 -23 17
-6 7 -7 6 -4 -4z"/>
<path d="M10802 6374 c9 -9 21 -15 27 -13 6 2 -2 10 -17 17 -25 11 -25 11 -10
-4z"/>
<path d="M8870 6370 c0 -6 7 -10 15 -10 8 0 15 2 15 4 0 2 -7 6 -15 10 -8 3
-15 1 -15 -4z"/>
<path d="M11390 6370 c0 -6 7 -10 15 -10 8 0 15 2 15 4 0 2 -7 6 -15 10 -8 3
-15 1 -15 -4z"/>
<path d="M2556 6361 c-3 -4 5 -6 18 -4 17 4 25 0 29 -14 4 -15 5 -14 6 5 1 17
-4 22 -23 22 -14 0 -27 -4 -30 -9z"/>
<path d="M8408 6363 c7 -3 16 -2 19 1 4 3 -2 6 -13 5 -11 0 -14 -3 -6 -6z"/>
<path d="M9668 6363 c7 -3 16 -2 19 1 4 3 -2 6 -13 5 -11 0 -14 -3 -6 -6z"/>
<path d="M11148 6363 c7 -3 16 -2 19 1 4 3 -2 6 -13 5 -11 0 -14 -3 -6 -6z"/>
<path d="M3300 6347 c0 -8 -10 -18 -22 -20 l-23 -4 23 -2 c22 -1 41 23 28 36
-3 4 -6 -1 -6 -10z"/>
<path d="M2472 6335 c14 -15 21 -17 40 -7 l23 12 -23 -6 c-13 -3 -31 0 -40 7
-16 12 -16 12 0 -6z"/>
<path d="M3479 6338 c14 -19 46 -24 55 -9 4 5 -3 7 -14 4 -11 -3 -28 1 -38 8
-15 13 -16 12 -3 -3z"/>
<path d="M3899 6338 c14 -19 46 -24 55 -9 4 5 -3 7 -14 4 -11 -3 -28 1 -38 8
-15 13 -16 12 -3 -3z"/>
<path d="M10797 6338 c2 -5 15 -8 28 -8 13 0 26 3 28 8 3 4 -10 7 -28 7 -18 0
-31 -3 -28 -7z"/>
<path d="M2558 6328 c5 -5 16 -8 23 -6 8 3 3 7 -10 11 -17 4 -21 3 -13 -5z"/>
<path d="M6891 6190 c-1 -64 0 -66 25 -68 34 -3 54 14 54 43 0 28 -24 49 -49
42 -15 -4 -21 1 -24 22 -2 14 -5 -3 -6 -39z m64 -25 c0 -25 -4 -30 -25 -30
-16 0 -26 6 -28 18 -6 30 6 49 30 45 18 -2 23 -9 23 -33z"/>
<path d="M2730 6186 c0 -19 -4 -23 -20 -19 -26 7 -50 -13 -50 -42 0 -29 20
-46 54 -43 25 2 26 4 26 65 0 35 -2 63 -5 63 -3 0 -5 -11 -5 -24z m-5 -61 c0
-25 -4 -30 -25 -30 -16 0 -26 6 -28 18 -6 30 6 49 30 45 18 -2 23 -9 23 -33z"/>
<path d="M3650 6186 c0 -19 -4 -23 -20 -19 -26 7 -50 -13 -50 -42 0 -29 20
-46 54 -43 25 2 26 4 26 65 0 35 -2 63 -5 63 -3 0 -5 -11 -5 -24z m-5 -61 c0
-25 -4 -30 -25 -30 -16 0 -26 6 -28 18 -6 30 6 49 30 45 18 -2 23 -9 23 -33z"/>
<path d="M3843 6193 c-4 -10 -11 -21 -17 -25 -7 -5 -7 -8 2 -8 7 0 13 -16 14
-42 l1 -43 4 40 c3 22 10 43 16 47 9 6 9 8 0 8 -20 0 -15 28 5 33 16 4 16 5
-1 6 -10 0 -21 -7 -24 -16z"/>
<path d="M4123 6145 c0 -38 2 -53 4 -32 2 20 2 52 0 70 -2 17 -4 1 -4 -38z"/>
<path d="M6681 6161 l2 -46 6 40 c5 31 11 41 28 43 19 3 22 -2 26 -40 l4 -43
-1 45 c-1 44 -2 45 -33 46 -33 1 -33 1 -32 -45z"/>
<path d="M6790 6196 c-28 -35 11 -93 48 -70 35 22 22 84 -18 84 -10 0 -23 -7
-30 -14z m55 -31 c0 -25 -4 -30 -25 -30 -16 0 -26 6 -28 18 -6 30 6 49 30 45
18 -2 23 -9 23 -33z"/>
<path d="M7003 6165 c0 -27 2 -38 4 -22 2 15 2 37 0 50 -2 12 -4 0 -4 -28z"/>
<path d="M7041 6196 c-12 -15 -2 -27 32 -39 26 -10 10 -30 -19 -24 -13 2 -21
0 -18 -4 8 -14 40 -11 53 5 12 15 2 27 -33 40 -22 7 -12 21 19 29 19 4 19 5
-1 6 -12 0 -27 -5 -33 -13z"/>
<path d="M2321 6121 l2 -46 6 40 c5 31 10 40 26 40 16 0 21 -9 26 -40 l7 -40
-2 45 c-1 44 -2 45 -33 46 -33 1 -33 1 -32 -45z"/>
<path d="M2458 6160 c30 -13 28 -28 -5 -32 -20 -2 -28 -9 -28 -23 0 -16 7 -20
33 -21 30 -1 32 1 32 31 0 34 -15 55 -39 54 -10 0 -7 -4 7 -9z m20 -52 c-7
-20 -48 -23 -48 -4 0 11 9 16 26 16 16 0 24 -5 22 -12z"/>
<path d="M2533 6163 c-7 -2 -13 -9 -13 -14 0 -5 9 -4 19 3 15 9 23 9 35 -1 9
-8 16 -19 16 -26 0 -7 -7 -18 -16 -26 -13 -11 -19 -10 -37 1 -20 12 -21 12 -8
-3 17 -21 35 -22 55 -1 36 36 -3 87 -51 67z"/>
<path d="M2782 6158 c-27 -27 -7 -78 29 -78 10 0 20 4 23 8 2 4 -7 8 -21 7
-14 0 -28 6 -30 13 -3 8 7 12 31 12 20 0 36 4 36 8 0 4 -16 6 -36 4 -28 -3
-35 -1 -32 9 3 8 17 14 31 14 14 -1 23 3 21 7 -8 12 -38 10 -52 -4z"/>
<path d="M2860 6165 c0 -5 5 -17 10 -25 5 -8 10 -10 10 -5 0 6 -5 17 -10 25
-5 8 -10 11 -10 5z"/>
<path d="M2962 6158 c-27 -27 -7 -78 29 -78 10 0 20 4 23 8 2 4 -7 8 -21 7
-14 0 -28 6 -30 13 -3 8 7 12 31 12 20 0 36 4 36 8 0 4 -16 6 -36 4 -28 -3
-35 -1 -32 9 3 8 17 14 31 14 14 -1 23 3 21 7 -8 12 -38 10 -52 -4z"/>
<path d="M3094 6155 c-8 -20 4 -35 27 -35 11 0 19 -7 19 -16 0 -12 -7 -15 -26
-11 -16 3 -22 1 -16 -5 16 -16 47 -5 47 17 0 13 -8 21 -22 23 -13 2 -23 10
-23 17 0 7 10 16 23 18 l22 4 -23 2 c-12 0 -25 -6 -28 -14z"/>
<path d="M3182 6158 c-27 -27 -7 -78 29 -78 10 0 20 4 23 8 2 4 -7 8 -21 7
-14 0 -28 6 -30 13 -3 8 7 12 31 12 20 0 36 4 36 8 0 4 -16 6 -36 4 -28 -3
-35 -1 -32 9 3 8 17 14 31 14 14 -1 23 3 21 7 -8 12 -38 10 -52 -4z"/>
<path d="M3291 6161 c-7 -5 -12 -13 -10 -18 2 -5 12 -1 22 9 18 19 12 24 -12
9z"/>
<path d="M3381 6125 l1 -50 8 40 c5 22 4 44 -1 50 -5 5 -9 -11 -8 -40z"/>
<path d="M3428 6160 c17 -7 22 -18 24 -47 l1 -38 4 33 c5 37 -10 62 -36 61
-11 0 -9 -3 7 -9z"/>
<path d="M3496 6162 c-4 -6 3 -8 15 -5 12 4 25 0 31 -8 8 -12 9 -11 5 1 -4 17
-42 26 -51 12z"/>
<path d="M3728 6160 c30 -13 28 -28 -5 -32 -20 -2 -28 -9 -28 -23 0 -16 7 -20
33 -21 30 -1 32 1 32 31 0 34 -15 55 -39 54 -10 0 -7 -4 7 -9z m20 -52 c-7
-20 -48 -23 -48 -4 0 11 9 16 26 16 16 0 24 -5 22 -12z"/>
<path d="M3896 6162 c-3 -5 6 -7 19 -4 18 3 25 0 25 -12 0 -9 -8 -16 -19 -16
-10 0 -24 -6 -30 -14 -15 -17 6 -36 37 -33 20 1 23 6 20 42 -2 32 -7 41 -25
43 -11 2 -24 -1 -27 -6z m44 -51 c0 -6 -5 -13 -10 -16 -15 -9 -43 3 -35 15 8
13 45 13 45 1z"/>
<path d="M3992 6158 c-27 -27 -7 -78 29 -78 10 0 20 4 23 8 2 4 -8 8 -22 7
-23 0 -27 4 -27 30 0 26 4 30 27 30 14 -1 24 3 22 7 -8 12 -38 10 -52 -4z"/>
<path d="M4083 6125 c0 -27 2 -38 4 -22 2 15 2 37 0 50 -2 12 -4 0 -4 -28z"/>
<path d="M2916 6135 c-9 -26 -7 -32 5 -12 6 10 9 21 6 23 -2 3 -7 -2 -11 -11z"/>
<path d="M3496 6121 c-3 -4 5 -6 18 -4 17 4 25 0 29 -14 4 -15 5 -14 6 5 1 17
-4 22 -23 22 -14 0 -27 -4 -30 -9z"/>
<path d="M2880 6113 c0 -15 19 -37 26 -31 3 4 -1 14 -10 23 -9 9 -16 13 -16 8z"/>
<path d="M3498 6088 c5 -5 16 -8 23 -6 8 3 3 7 -10 11 -17 4 -21 3 -13 -5z"/>
<path d="M3973 5745 c0 -38 2 -53 4 -32 2 20 2 52 0 70 -2 17 -4 1 -4 -38z"/>
<path d="M4540 5785 c0 -22 -3 -25 -24 -19 -15 3 -29 -1 -40 -11 -32 -33 -13
-69 38 -70 l36 -2 0 64 c0 35 -2 63 -5 63 -3 0 -5 -11 -5 -25z m-6 -47 c8 -14
7 -21 -6 -34 -30 -30 -75 9 -48 42 16 18 39 15 54 -8z"/>
<path d="M2321 5738 c1 -35 4 -53 6 -40 3 13 12 22 23 22 27 0 50 11 50 23 0
7 -4 7 -12 -1 -7 -7 -22 -12 -35 -12 -19 0 -23 5 -23 30 0 25 4 30 23 30 13 0
28 -5 35 -12 8 -8 12 -8 12 -1 0 13 -23 23 -56 23 -23 0 -24 -3 -23 -62z"/>
<path d="M3802 5773 c-7 -7 -8 -13 -3 -13 5 0 11 -17 13 -37 2 -20 9 -38 16
-39 7 -1 8 0 2 3 -12 6 -13 70 -1 75 5 2 4 8 -3 14 -8 8 -15 7 -24 -3z"/>
<path d="M2443 5763 c-7 -2 -13 -9 -13 -14 0 -5 9 -4 19 3 15 9 23 9 35 -1 9
-8 16 -19 16 -26 0 -7 -7 -18 -16 -26 -13 -11 -19 -10 -37 1 -20 12 -21 12 -8
-3 17 -21 35 -22 55 -1 36 36 -3 87 -51 67z"/>
<path d="M2531 5725 l1 -50 8 40 c5 22 4 44 -1 50 -5 5 -9 -11 -8 -40z"/>
<path d="M2643 5725 c0 -27 2 -38 4 -22 2 15 2 37 0 50 -2 12 -4 0 -4 -28z"/>
<path d="M2684 5755 c-8 -19 4 -35 24 -34 15 1 15 2 0 6 -26 6 -22 31 5 36
l22 4 -23 2 c-12 0 -25 -6 -28 -14z"/>
<path d="M2764 5755 c-8 -19 4 -35 24 -34 15 1 15 2 0 6 -26 6 -22 31 5 36
l22 4 -23 2 c-12 0 -25 -6 -28 -14z"/>
<path d="M2853 5763 c-7 -2 -13 -9 -13 -14 0 -5 9 -4 19 3 15 9 23 9 35 -1 9
-8 16 -19 16 -26 0 -7 -7 -18 -16 -26 -13 -11 -19 -10 -37 1 -20 12 -21 12 -8
-3 17 -21 35 -22 55 -1 36 36 -3 87 -51 67z"/>
<path d="M3023 5725 c0 -27 2 -38 4 -22 2 15 2 37 0 50 -2 12 -4 0 -4 -28z"/>
<path d="M3081 5761 c-7 -5 -12 -13 -10 -18 2 -5 12 -1 22 9 18 19 12 24 -12
9z"/>
<path d="M3132 5758 c-27 -27 -7 -78 29 -78 10 0 20 4 23 8 2 4 -7 8 -21 7
-14 0 -28 6 -30 13 -3 8 7 12 31 12 20 0 36 4 36 8 0 4 -16 6 -36 4 -28 -3
-35 -1 -32 9 3 8 17 14 31 14 14 -1 23 3 21 7 -8 12 -38 10 -52 -4z"/>
<path d="M3243 5763 c-7 -2 -13 -12 -13 -21 0 -13 2 -13 14 3 21 29 46 12 47
-32 l2 -38 6 40 c5 31 11 41 28 43 19 3 22 -2 26 -40 l4 -43 1 43 c2 47 -16
64 -49 44 -11 -7 -20 -8 -24 -2 -7 11 -22 12 -42 3z"/>
<path d="M3400 5756 c-28 -35 11 -93 48 -70 35 22 22 84 -18 84 -10 0 -23 -7
-30 -14z m55 -31 c0 -25 -4 -30 -25 -30 -16 0 -26 6 -28 18 -6 30 6 49 30 45
18 -2 23 -9 23 -33z"/>
<path d="M3494 5755 c-8 -20 4 -35 27 -35 11 0 19 -7 19 -16 0 -12 -7 -15 -26
-11 -16 3 -22 1 -16 -5 16 -16 47 -5 47 17 0 13 -8 21 -22 23 -13 2 -23 10
-23 17 0 7 10 16 23 18 l22 4 -23 2 c-12 0 -25 -6 -28 -14z"/>
<path d="M3626 5754 c-9 -8 -16 -22 -16 -29 0 -29 50 -58 64 -37 3 5 -4 8 -16
8 -29 -1 -46 28 -28 49 7 9 22 14 32 12 10 -3 16 -1 12 4 -8 14 -31 11 -48 -7z"/>
<path d="M3716 5762 c-3 -5 6 -7 19 -4 18 3 25 0 25 -12 0 -9 -8 -16 -19 -16
-10 0 -24 -6 -30 -14 -15 -17 6 -36 37 -33 20 1 23 6 20 42 -2 32 -7 41 -25
43 -11 2 -24 -1 -27 -6z m44 -51 c0 -6 -5 -13 -10 -16 -15 -9 -43 3 -35 15 8
13 45 13 45 1z"/>
<path d="M3876 5762 c-4 -6 3 -8 15 -5 12 4 25 0 31 -8 8 -12 9 -11 5 1 -4 17
-42 26 -51 12z"/>
<path d="M4016 5754 c-9 -8 -16 -22 -16 -29 0 -15 27 -45 40 -45 17 0 40 12
40 21 0 5 -9 4 -19 -3 -15 -9 -23 -9 -35 1 -9 8 -16 19 -16 26 0 7 7 18 16 26
12 10 20 10 35 1 10 -7 19 -8 19 -3 0 9 -23 21 -40 21 -5 0 -16 -7 -24 -16z"/>
<path d="M4120 5760 c-24 -15 -7 -18 20 -3 14 7 18 13 10 13 -8 0 -22 -4 -30
-10z"/>
<path d="M4181 5765 c-2 -5 -4 -30 -5 -55 -1 -44 -2 -45 -33 -45 -17 0 -29 -3
-26 -7 7 -13 50 -9 62 6 7 8 11 35 8 63 -2 26 -5 44 -6 38z"/>
<path d="M4226 5762 c-4 -6 3 -8 15 -5 12 4 25 0 31 -8 8 -12 9 -11 5 1 -4 17
-42 26 -51 12z"/>
<path d="M4322 5720 c1 -40 2 -41 5 -10 2 19 11 40 20 47 13 10 13 12 -6 10
-18 -1 -21 -7 -19 -47z"/>
<path d="M4433 5725 c0 -27 2 -38 4 -22 2 15 2 37 0 50 -2 12 -4 0 -4 -28z"/>
<path d="M4618 5760 c31 -13 27 -30 -8 -30 -23 0 -28 3 -24 18 5 14 4 15 -5 2
-6 -8 -11 -20 -11 -27 0 -17 29 -43 48 -42 13 0 12 2 -4 9 -38 15 -38 30 0 30
23 0 36 5 36 13 0 18 -21 37 -39 36 -10 0 -7 -4 7 -9z"/>
<path d="M4683 5725 c0 -27 2 -38 4 -22 2 15 2 37 0 50 -2 12 -4 0 -4 -28z"/>
<path d="M4726 5762 c-4 -6 3 -8 15 -5 12 4 25 0 31 -8 8 -12 9 -11 5 1 -4 17
-42 26 -51 12z"/>
<path d="M4814 5755 c-8 -20 4 -35 27 -35 11 0 19 -7 19 -16 0 -12 -7 -15 -26
-11 -16 3 -22 1 -16 -5 16 -16 47 -5 47 17 0 13 -8 21 -22 23 -13 2 -23 10
-23 17 0 7 10 16 23 18 l22 4 -23 2 c-12 0 -25 -6 -28 -14z"/>
<path d="M3876 5721 c-3 -4 5 -6 18 -4 17 4 25 0 29 -14 4 -15 5 -14 6 5 1 17
-4 22 -23 22 -14 0 -27 -4 -30 -9z"/>
<path d="M4226 5721 c-3 -4 5 -6 18 -4 17 4 25 0 29 -14 4 -15 5 -14 6 5 1 17
-4 22 -23 22 -14 0 -27 -4 -30 -9z"/>
<path d="M4726 5721 c-3 -4 5 -6 18 -4 17 4 25 0 29 -14 4 -15 5 -14 6 5 1 17
-4 22 -23 22 -14 0 -27 -4 -30 -9z"/>
<path d="M2730 5707 c0 -8 -10 -18 -22 -20 l-23 -4 23 -2 c22 -1 41 23 28 36
-3 4 -6 -1 -6 -10z"/>
<path d="M2810 5707 c0 -8 -10 -18 -22 -20 l-23 -4 23 -2 c22 -1 41 23 28 36
-3 4 -6 -1 -6 -10z"/>
<path d="M4110 5700 c0 -9 39 -25 45 -18 2 2 -7 8 -21 15 -13 6 -24 7 -24 3z"/>
<path d="M3878 5688 c5 -5 16 -8 23 -6 8 3 3 7 -10 11 -17 4 -21 3 -13 -5z"/>
<path d="M4228 5688 c5 -5 16 -8 23 -6 8 3 3 7 -10 11 -17 4 -21 3 -13 -5z"/>
<path d="M4728 5688 c5 -5 16 -8 23 -6 8 3 3 7 -10 11 -17 4 -21 3 -13 -5z"/>
<path d="M4892 5680 c0 -14 2 -19 5 -12 2 6 2 18 0 25 -3 6 -5 1 -5 -13z"/>
<path d="M2310 5502 l0 -59 33 0 c39 0 57 12 57 42 0 27 -24 49 -45 41 -10 -4
-15 1 -15 14 0 11 -7 20 -15 20 -12 0 -15 -13 -15 -58z m65 -17 c0 -11 -8 -21
-17 -23 -14 -3 -18 3 -18 23 0 20 4 26 18 23 9 -2 17 -12 17 -23z"/>
<path d="M2490 5550 c0 -5 7 -10 15 -10 8 0 15 5 15 10 0 6 -7 10 -15 10 -8 0
-15 -4 -15 -10z"/>
<path d="M2917 5540 c-3 -13 -10 -18 -21 -14 -22 8 -46 -13 -46 -41 0 -29 17
-42 58 -43 l32 -1 0 60 c0 58 -12 79 -23 39z m-4 -42 c6 -19 -3 -38 -18 -38
-18 0 -28 17 -21 35 7 18 33 20 39 3z"/>
<path d="M3065 5550 c3 -5 10 -10 16 -10 5 0 9 5 9 10 0 6 -7 10 -16 10 -8 0
-12 -4 -9 -10z"/>
<path d="M3460 5550 c0 -5 5 -10 10 -10 6 0 10 5 10 10 0 6 -4 10 -10 10 -5 0
-10 -4 -10 -10z"/>
<path d="M4012 5543 c-11 -22 -3 -103 9 -103 5 0 9 16 9 35 0 24 5 35 15 35
21 0 19 18 -2 23 -17 4 -17 5 0 6 24 1 22 21 -3 21 -10 0 -23 -8 -28 -17z"/>
<path d="M4080 5550 c0 -5 7 -10 15 -10 8 0 15 5 15 10 0 6 -7 10 -15 10 -8 0
-15 -4 -15 -10z"/>
<path d="M4130 5500 c0 -47 3 -60 15 -60 12 0 15 13 15 60 0 47 -3 60 -15 60
-12 0 -15 -13 -15 -60z"/>
<path d="M4630 5500 c0 -33 4 -60 10 -60 6 0 10 27 10 60 0 33 -4 60 -10 60
-6 0 -10 -27 -10 -60z"/>
<path d="M4680 5550 c0 -5 5 -10 10 -10 6 0 10 5 10 10 0 6 -4 10 -10 10 -5 0
-10 -4 -10 -10z"/>
<path d="M2430 5484 c0 -24 5 -44 10 -44 6 0 10 14 10 30 0 18 6 33 15 36 23
9 18 22 -10 22 -23 0 -25 -4 -25 -44z"/>
<path d="M2490 5485 c0 -33 4 -45 15 -45 11 0 15 12 15 45 0 33 -4 45 -15 45
-11 0 -15 -12 -15 -45z"/>
<path d="M2540 5483 c0 -32 4 -43 15 -43 11 0 15 11 15 36 0 28 3 35 18 32 11
-2 18 -14 20 -36 4 -42 22 -41 22 2 0 40 -14 53 -57 53 -32 0 -33 -2 -33 -44z"/>
<path d="M2666 5515 c-9 -9 -16 -23 -16 -30 0 -22 31 -46 53 -43 33 5 33 27 0
25 -22 -2 -28 2 -28 18 0 16 6 20 28 18 18 -1 27 2 24 10 -6 19 -43 20 -61 2z"/>
<path d="M2755 5520 c-4 -6 5 -10 19 -10 32 0 34 -17 4 -22 -15 -2 -23 -10
-23 -23 0 -16 7 -20 38 -21 33 -1 37 2 37 23 0 38 -18 63 -45 63 -13 0 -27 -4
-30 -10z m42 -56 c-3 -3 -12 -4 -19 -1 -8 3 -5 6 6 6 11 1 17 -2 13 -5z"/>
<path d="M2972 5518 c-16 -16 -15 -53 2 -68 17 -13 63 -10 57 5 -2 6 -12 9
-22 7 -9 -2 -20 2 -24 8 -4 6 6 10 24 10 24 0 31 4 31 19 0 29 -45 42 -68 19z
m41 -15 c-7 -2 -19 -2 -25 0 -7 3 -2 5 12 5 14 0 19 -2 13 -5z"/>
<path d="M3070 5485 c0 -25 5 -45 10 -45 6 0 10 20 10 45 0 25 -4 45 -10 45
-5 0 -10 -20 -10 -45z"/>
<path d="M3120 5484 c0 -24 5 -44 10 -44 6 0 10 14 10 30 0 18 6 33 15 36 23
9 18 22 -10 22 -23 0 -25 -4 -25 -44z"/>
<path d="M3185 5520 c-4 -6 5 -10 19 -10 32 0 34 -17 4 -22 -15 -2 -23 -10
-23 -23 0 -16 7 -20 38 -21 35 -1 37 0 37 30 0 18 -5 37 -12 44 -15 15 -54 16
-63 2z m42 -56 c-3 -3 -12 -4 -19 -1 -8 3 -5 6 6 6 11 1 17 -2 13 -5z"/>
<path d="M3287 5523 c-14 -14 -6 -34 18 -43 32 -12 32 -24 0 -17 -16 3 -24 0
-22 -7 5 -14 38 -19 56 -7 19 12 6 41 -19 41 -11 0 -20 5 -20 10 0 6 9 10 20
10 11 0 20 5 20 10 0 11 -43 14 -53 3z"/>
<path d="M3460 5484 c0 -33 -5 -51 -17 -61 -17 -12 -16 -13 7 -11 23 3 25 8
28 61 2 35 -1 57 -8 57 -5 0 -10 -21 -10 -46z"/>
<path d="M3516 5514 c-9 -8 -16 -22 -16 -29 0 -7 7 -21 16 -29 30 -30 74 -13
74 29 0 42 -44 59 -74 29z m52 -27 c4 -21 -27 -35 -38 -17 -12 19 0 42 19 38
9 -2 17 -11 19 -21z"/>
<path d="M3622 5518 c-28 -28 0 -75 39 -65 13 3 19 1 16 -6 -2 -7 -16 -12 -30
-12 -38 -1 -44 -13 -12 -21 43 -11 60 6 63 63 l3 50 -34 1 c-19 1 -39 -4 -45
-10z m56 -25 c5 -17 -26 -29 -40 -15 -6 6 -7 15 -3 22 9 14 37 9 43 -7z"/>
<path d="M3736 5514 c-9 -8 -16 -22 -16 -29 0 -7 7 -21 16 -29 30 -30 74 -13
74 29 0 42 -44 59 -74 29z m52 -27 c4 -21 -27 -35 -38 -17 -12 19 0 42 19 38
9 -2 17 -11 19 -21z"/>
<path d="M3837 5523 c-14 -14 -6 -34 18 -43 32 -12 32 -24 0 -17 -16 3 -24 0
-22 -7 5 -14 38 -19 56 -7 19 12 6 41 -19 41 -11 0 -20 5 -20 10 0 6 9 10 20
10 11 0 20 5 20 10 0 11 -43 14 -53 3z"/>
<path d="M4080 5485 c0 -33 4 -45 15 -45 11 0 15 12 15 45 0 33 -4 45 -15 45
-11 0 -15 -12 -15 -45z"/>
<path d="M4180 5483 c0 -32 4 -43 15 -43 10 0 15 11 15 35 0 24 5 35 15 35 10
0 15 -11 15 -35 0 -24 5 -35 15 -35 10 0 15 11 15 35 0 24 5 35 15 35 10 0 15
-11 15 -35 0 -24 5 -35 15 -35 10 0 15 10 15 28 0 48 -13 57 -85 58 l-65 0 0
-43z"/>
<path d="M4362 5518 c-16 -16 -15 -53 2 -68 17 -13 63 -10 57 5 -2 6 -12 9
-22 7 -9 -2 -20 2 -24 8 -4 6 6 10 24 10 24 0 31 4 31 19 0 29 -45 42 -68 19z
m41 -15 c-7 -2 -19 -2 -25 0 -7 3 -2 5 12 5 14 0 19 -2 13 -5z"/>
<path d="M4457 5523 c-14 -14 -6 -34 18 -43 32 -12 32 -24 0 -17 -16 3 -24 0
-22 -7 5 -14 38 -19 56 -7 19 12 6 41 -19 41 -11 0 -20 5 -20 10 0 6 9 10 20
10 11 0 20 5 20 10 0 11 -43 14 -53 3z"/>
<path d="M4680 5485 c0 -25 5 -45 10 -45 6 0 10 20 10 45 0 25 -4 45 -10 45
-5 0 -10 -20 -10 -45z"/>
<path d="M4720 5525 c0 -18 34 -85 44 -85 7 0 18 17 26 38 8 20 16 40 18 45 2
4 -1 7 -7 7 -6 0 -17 -14 -24 -32 l-13 -32 -13 32 c-11 27 -31 44 -31 27z"/>
<path d="M4820 5484 c0 -32 4 -44 15 -44 10 0 15 11 15 35 0 19 5 35 10 35 22
0 8 15 -15 16 -23 2 -25 -1 -25 -42z"/>
<path d="M4902 5518 c-27 -27 -7 -78 29 -78 21 0 49 26 49 45 0 35 -53 58 -78
33z m51 -20 c6 -19 -3 -38 -18 -38 -18 0 -28 17 -21 35 7 18 33 20 39 3z"/>
<path d="M5000 5515 c-15 -18 -5 -35 21 -35 10 0 19 -4 19 -10 0 -5 -12 -10
-26 -10 -14 0 -23 -4 -19 -10 9 -15 51 -12 64 4 12 15 3 26 -34 41 -18 8 -17
9 8 13 15 2 25 8 22 13 -9 14 -41 11 -55 -6z"/>
<path d="M3366 5462 c-3 -5 -2 -19 1 -31 4 -17 8 -19 14 -9 12 18 11 48 0 48
-6 0 -12 -4 -15 -8z"/>
<path d="M3916 5462 c-3 -5 -2 -19 1 -31 4 -17 8 -19 14 -9 12 18 11 48 0 48
-6 0 -12 -4 -15 -8z"/>
<path d="M4540 5439 c0 -17 4 -28 10 -24 6 3 10 17 10 31 0 13 -4 24 -10 24
-5 0 -10 -14 -10 -31z"/>
<path d="M5089 5470 c-5 -18 -4 -60 2 -60 12 0 19 44 9 54 -6 6 -11 8 -11 6z"/>
<path d="M3830 5305 c0 -22 -3 -25 -24 -19 -15 3 -29 -1 -40 -11 -32 -33 -13
-69 38 -70 l36 -2 0 64 c0 35 -2 63 -5 63 -3 0 -5 -11 -5 -25z m-6 -47 c8 -14
7 -21 -6 -34 -30 -30 -75 9 -48 42 16 18 39 15 54 -8z"/>
<path d="M4380 5320 c0 -5 7 -7 15 -4 8 4 15 8 15 10 0 2 -7 4 -15 4 -8 0 -15
-4 -15 -10z"/>
<path d="M3020 5301 c0 -14 -6 -17 -24 -14 -32 7 -53 -29 -37 -63 8 -19 18
-23 46 -22 l35 1 0 59 c0 32 -4 58 -10 58 -5 0 -10 -8 -10 -19z m-2 -54 c4
-20 -25 -34 -40 -19 -15 15 -1 44 19 40 10 -2 19 -11 21 -21z"/>
<path d="M3070 5310 c0 -5 5 -10 10 -10 6 0 10 5 10 10 0 6 -4 10 -10 10 -5 0
-10 -4 -10 -10z"/>
<path d="M3588 5298 c-2 -6 -1 -29 2 -52 4 -31 10 -41 25 -43 16 -1 16 -1 3 3
-13 4 -18 16 -18 39 0 18 4 35 9 37 5 2 3 8 -4 15 -10 9 -15 9 -17 1z"/>
<path d="M2322 5278 c-17 -17 -15 -53 3 -68 9 -7 25 -10 41 -6 30 8 24 20 -9
21 -15 0 -22 6 -22 20 0 16 6 20 28 18 29 -2 37 11 11 21 -24 9 -39 7 -52 -6z"/>
<path d="M2410 5250 c0 -22 3 -41 8 -41 4 -1 22 -3 40 -5 32 -2 32 -2 32 42 0
51 -17 60 -22 12 -2 -21 -8 -33 -18 -33 -10 0 -16 12 -18 33 -5 46 -22 40 -22
-8z"/>
<path d="M2520 5244 c0 -24 5 -44 10 -44 6 0 10 11 10 24 0 14 7 31 15 40 20
20 19 24 -10 24 -23 0 -25 -4 -25 -44z"/>
<path d="M2590 5275 c-15 -18 -5 -35 21 -35 10 0 19 -4 19 -10 0 -5 -12 -10
-26 -10 -14 0 -23 -4 -19 -10 9 -15 51 -12 64 4 12 15 3 26 -34 41 -18 8 -17
9 8 13 15 2 25 8 22 13 -9 14 -41 11 -55 -6z"/>
<path d="M2686 5274 c-9 -8 -16 -22 -16 -29 0 -7 7 -21 16 -29 30 -30 74 -13
74 29 0 42 -44 59 -74 29z m52 -27 c4 -20 -25 -34 -40 -19 -15 15 -1 44 19 40
10 -2 19 -11 21 -21z"/>
<path d="M2787 5283 c-15 -14 -7 -43 12 -43 11 0 23 -5 27 -11 5 -8 -1 -10
-20 -7 -17 4 -25 1 -23 -6 6 -17 42 -19 56 -2 16 19 6 36 -20 36 -10 0 -19 5
-19 10 0 6 9 10 20 10 11 0 20 5 20 10 0 11 -43 14 -53 3z"/>
<path d="M3070 5245 c0 -25 5 -45 10 -45 6 0 10 20 10 45 0 25 -4 45 -10 45
-5 0 -10 -20 -10 -45z"/>
<path d="M3126 5275 c-9 -9 -16 -23 -16 -30 0 -37 67 -60 78 -26 3 10 -2 11
-18 6 -25 -8 -42 9 -33 32 4 10 14 12 30 8 18 -4 24 -2 21 7 -7 20 -43 21 -62
3z"/>
<path d="M3215 5280 c-4 -6 5 -10 19 -10 32 0 34 -17 4 -22 -15 -2 -23 -10
-23 -23 0 -16 7 -20 38 -21 35 -1 37 0 37 30 0 18 -5 37 -12 44 -15 15 -54 16
-63 2z m42 -56 c-3 -3 -12 -4 -19 -1 -8 3 -5 6 6 6 11 1 17 -2 13 -5z"/>
<path d="M3317 5283 c-14 -14 -6 -34 18 -43 32 -12 32 -24 0 -17 -16 3 -24 0
-22 -7 5 -14 38 -19 56 -7 19 12 6 41 -19 41 -11 0 -20 5 -20 10 0 6 9 10 20
10 11 0 20 5 20 10 0 11 -43 14 -53 3z"/>
<path d="M3452 5278 c-27 -27 -7 -78 29 -78 10 0 20 4 23 8 2 4 -7 8 -21 7
-14 0 -28 6 -30 13 -3 8 7 12 31 12 38 0 43 6 25 30 -9 13 -10 12 -5 -2 4 -15
-1 -18 -24 -18 -35 0 -39 17 -7 30 13 5 16 9 7 9 -9 1 -21 -4 -28 -11z"/>
<path d="M3651 5260 c-1 -38 13 -60 39 -59 10 0 9 3 -5 8 -13 5 -22 21 -26 47
l-6 39 -2 -35z"/>
<path d="M3717 5253 c-2 -21 0 -42 4 -47 5 -6 9 10 9 37 0 57 -6 61 -13 10z"/>
<path d="M3876 5274 c-9 -8 -16 -22 -16 -29 0 -15 27 -45 40 -45 17 0 40 12
40 21 0 5 -9 4 -19 -3 -15 -9 -23 -9 -35 1 -9 8 -16 19 -16 26 0 7 7 18 16 26
12 10 20 10 35 1 10 -7 19 -8 19 -3 0 9 -23 21 -40 21 -5 0 -16 -7 -24 -16z"/>
<path d="M4022 5278 c-26 -26 -7 -79 28 -77 9 0 6 4 -7 9 -16 6 -23 18 -23 35
0 17 7 29 23 35 13 5 16 9 7 9 -9 1 -21 -4 -28 -11z"/>
<path d="M4079 5283 c-3 -25 1 -106 5 -111 4 -3 6 22 6 56 0 34 -2 62 -5 62
-3 0 -5 -3 -6 -7z"/>
<path d="M4188 5253 c-3 -40 -32 -58 -50 -31 -8 10 -9 10 -5 -2 2 -9 16 -15
35 -16 31 -1 32 0 32 43 0 53 -8 57 -12 6z"/>
<path d="M4243 5283 c-7 -2 -13 -9 -13 -15 0 -6 6 -6 15 2 8 7 22 10 30 6 27
-10 16 -25 -22 -29 l-38 -4 43 -1 c43 -2 55 11 30 36 -13 13 -24 14 -45 5z"/>
<path d="M4373 5283 c9 -2 23 -2 30 0 6 3 -1 5 -18 5 -16 0 -22 -2 -12 -5z"/>
<path d="M4430 5276 c-28 -35 11 -93 48 -70 35 22 22 84 -18 84 -10 0 -23 -7
-30 -14z m55 -31 c0 -25 -4 -30 -25 -30 -16 0 -26 6 -28 18 -6 30 6 49 30 45
18 -2 23 -9 23 -33z"/>
<path d="M4532 5240 c1 -40 2 -41 5 -10 2 19 11 40 20 47 13 10 13 12 -6 10
-18 -1 -21 -7 -19 -47z"/>
<path d="M2866 5222 c-3 -5 -2 -19 1 -31 4 -17 8 -19 14 -9 12 18 11 48 0 48
-6 0 -12 -4 -15 -8z"/>
<path d="M4239 5218 c14 -19 46 -24 55 -9 4 5 -3 7 -14 4 -11 -3 -28 1 -38 8
-15 13 -16 12 -3 -3z"/>
<path d="M3622 5053 c-7 -7 -8 -13 -3 -13 5 0 11 -17 13 -37 2 -20 9 -38 16
-39 7 -1 8 0 2 3 -12 6 -13 70 -1 75 5 2 4 8 -3 14 -8 8 -15 7 -24 -3z"/>
<path d="M2321 5001 l2 -46 6 40 c5 31 10 40 26 40 16 0 21 -9 26 -40 l7 -40
-2 45 c-1 44 -2 45 -33 46 -33 1 -33 1 -32 -45z"/>
<path d="M2432 5038 c-27 -27 -7 -78 29 -78 10 0 20 4 23 8 2 4 -7 8 -21 7
-14 0 -28 6 -30 13 -3 8 7 12 31 12 20 0 36 4 36 8 0 4 -16 6 -36 4 -28 -3
-35 -1 -32 9 3 8 17 14 31 14 14 -1 23 3 21 7 -8 12 -38 10 -52 -4z"/>
<path d="M2532 5038 c-27 -27 -7 -78 29 -78 10 0 20 4 23 8 2 4 -8 8 -22 7
-23 0 -27 4 -27 30 0 26 4 30 27 30 14 -1 24 3 22 7 -8 12 -38 10 -52 -4z"/>
<path d="M2622 5038 c-27 -27 -7 -78 29 -78 10 0 20 4 23 8 2 4 -7 8 -21 7
-14 0 -28 6 -30 13 -3 8 7 12 31 12 38 0 43 6 25 30 -9 13 -10 12 -5 -2 4 -15
-1 -18 -24 -18 -35 0 -39 17 -7 30 13 5 16 9 7 9 -9 1 -21 -4 -28 -11z"/>
<path d="M2711 5036 c-12 -15 -2 -27 32 -39 26 -10 10 -30 -19 -24 -13 2 -21
0 -18 -4 8 -14 40 -11 53 5 12 15 2 27 -33 40 -22 7 -12 21 19 29 19 4 19 5
-1 6 -12 0 -27 -5 -33 -13z"/>
<path d="M2791 5036 c-12 -15 -2 -27 32 -39 26 -10 10 -30 -19 -24 -13 2 -21
0 -18 -4 8 -14 40 -11 53 5 12 15 2 27 -33 40 -22 7 -12 21 19 29 19 4 19 5
-1 6 -12 0 -27 -5 -33 -13z"/>
<path d="M2876 5042 c-3 -5 6 -7 19 -4 18 3 25 0 25 -12 0 -9 -8 -16 -19 -16
-10 0 -24 -6 -30 -14 -15 -17 6 -36 37 -33 20 1 23 6 20 42 -2 32 -7 41 -25
43 -11 2 -24 -1 -27 -6z m44 -51 c0 -6 -5 -13 -10 -16 -15 -9 -43 3 -35 15 8
13 45 13 45 1z"/>
<path d="M2981 5041 c-7 -5 -12 -13 -10 -18 2 -5 12 -1 22 9 18 19 12 24 -12
9z"/>
<path d="M3033 5005 c0 -27 2 -38 4 -22 2 15 2 37 0 50 -2 12 -4 0 -4 -28z"/>
<path d="M3080 5036 c-28 -35 11 -93 48 -70 35 22 22 84 -18 84 -10 0 -23 -7
-30 -14z m55 -31 c0 -25 -4 -30 -25 -30 -16 0 -26 6 -28 18 -6 30 6 49 30 45
18 -2 23 -9 23 -33z"/>
<path d="M3221 4985 c1 -33 4 -50 6 -39 3 16 9 20 24 17 25 -7 49 14 49 42 0
29 -20 46 -54 43 -25 -2 -26 -4 -25 -63z m64 20 c0 -25 -4 -30 -25 -30 -16 0
-26 6 -28 18 -6 30 6 49 30 45 18 -2 23 -9 23 -33z"/>
<path d="M3358 5040 c30 -13 28 -28 -5 -32 -20 -2 -28 -9 -28 -23 0 -16 7 -20
33 -21 30 -1 32 1 32 31 0 34 -15 55 -39 54 -10 0 -7 -4 7 -9z m20 -52 c-7
-20 -48 -23 -48 -4 0 11 9 16 26 16 16 0 24 -5 22 -12z"/>
<path d="M3421 5005 l1 -50 8 40 c5 22 4 44 -1 50 -5 5 -9 -11 -8 -40z"/>
<path d="M3486 5042 c-2 -4 7 -8 21 -7 36 0 41 -23 6 -27 -20 -2 -28 -9 -28
-23 0 -11 7 -20 15 -21 9 0 10 1 3 3 -24 8 -14 33 13 33 19 0 25 -4 21 -15 -4
-8 -2 -17 3 -20 14 -9 12 59 -2 73 -14 14 -44 16 -52 4z"/>
<path d="M3690 5036 c-28 -35 11 -93 48 -70 35 22 22 84 -18 84 -10 0 -23 -7
-30 -14z m55 -31 c0 -25 -4 -30 -25 -30 -16 0 -26 6 -28 18 -6 30 6 49 30 45
18 -2 23 -9 23 -33z"/>
<path d="M3792 5000 c1 -40 2 -41 5 -10 2 19 11 40 20 47 13 10 13 12 -6 10
-18 -1 -21 -7 -19 -47z"/>
<path d="M3851 5005 l1 -50 8 40 c5 22 4 44 -1 50 -5 5 -9 -11 -8 -40z"/>
<path d="M3898 5040 c17 -7 22 -18 24 -47 l1 -38 4 33 c5 37 -10 62 -36 61
-11 0 -9 -3 7 -9z"/>
<path d="M3966 5042 c-4 -6 3 -8 15 -5 12 4 25 0 31 -8 8 -12 9 -11 5 1 -4 17
-42 26 -51 12z"/>
<path d="M4062 5000 c1 -40 2 -41 5 -10 2 19 11 40 20 47 13 10 13 12 -6 10
-18 -1 -21 -7 -19 -47z"/>
<path d="M4172 5038 c-27 -27 -7 -78 29 -78 10 0 20 4 23 8 2 4 -7 8 -21 7
-14 0 -28 6 -30 13 -3 8 7 12 31 12 38 0 43 6 25 30 -9 13 -10 12 -5 -2 4 -15
-1 -18 -24 -18 -35 0 -39 17 -7 30 13 5 16 9 7 9 -9 1 -21 -4 -28 -11z"/>
<path d="M4261 5036 c-12 -15 -2 -27 32 -39 26 -10 10 -30 -19 -24 -13 2 -21
0 -18 -4 8 -14 40 -11 53 5 12 15 2 27 -33 40 -22 7 -12 21 19 29 19 4 19 5
-1 6 -12 0 -27 -5 -33 -13z"/>
<path d="M4341 5036 c-12 -15 -2 -27 32 -39 26 -10 10 -30 -19 -24 -13 2 -21
0 -18 -4 8 -14 40 -11 53 5 12 15 2 27 -33 40 -22 7 -12 21 19 29 19 4 19 5
-1 6 -12 0 -27 -5 -33 -13z"/>
<path d="M4433 5043 c-7 -2 -13 -9 -13 -15 0 -6 6 -6 15 2 8 7 22 10 30 6 27
-10 16 -25 -22 -29 l-38 -4 43 -1 c43 -2 55 11 30 36 -13 13 -24 14 -45 5z"/>
<path d="M3966 5001 c-3 -4 5 -6 18 -4 17 4 25 0 29 -14 4 -15 5 -14 6 5 1 17
-4 22 -23 22 -14 0 -27 -4 -30 -9z"/>
<path d="M4429 4978 c14 -19 46 -24 55 -9 4 5 -3 7 -14 4 -11 -3 -28 1 -38 8
-15 13 -16 12 -3 -3z"/>
<path d="M3968 4968 c5 -5 16 -8 23 -6 8 3 3 7 -10 11 -17 4 -21 3 -13 -5z"/>
<path d="M7130 4770 c0 -56 3 -70 15 -70 8 0 15 9 15 20 0 11 3 20 8 20 4 0
13 -9 20 -20 7 -11 19 -20 28 -20 13 0 12 5 -5 28 l-20 29 22 21 c29 30 1 30
-30 0 l-23 -21 0 41 c0 31 -4 42 -15 42 -12 0 -15 -14 -15 -70z"/>
<path d="M2968 4818 c-2 -6 -1 -29 2 -52 4 -31 10 -41 25 -43 16 -1 16 -1 3 3
-13 4 -18 16 -18 39 0 18 4 35 9 37 5 2 3 8 -4 15 -10 9 -15 9 -17 1z"/>
<path d="M3758 4818 c-2 -7 -1 -29 3 -48 l6 -35 2 33 c1 23 6 32 19 33 13 0
14 2 2 6 -8 3 -18 10 -21 15 -3 5 -8 4 -11 -4z"/>
<path d="M4442 4813 c-7 -7 -8 -13 -3 -13 5 0 11 -17 13 -37 2 -20 9 -38 16
-39 7 -1 8 0 2 3 -12 6 -13 70 -1 75 5 2 4 8 -3 14 -8 8 -15 7 -24 -3z"/>
<path d="M6680 4765 c0 -37 4 -65 10 -65 6 0 10 6 10 14 0 7 6 19 14 25 11 9
18 6 34 -14 18 -23 42 -34 42 -19 0 3 -11 20 -26 36 l-25 31 27 28 c39 40 9
37 -33 -3 l-33 -32 0 32 c0 18 -4 32 -10 32 -6 0 -10 -28 -10 -65z"/>
<path d="M7266 4821 c-3 -4 8 -8 23 -7 16 1 27 4 24 9 -6 10 -41 9 -47 -2z"/>
<path d="M2321 4761 l2 -46 6 40 c5 31 10 40 26 40 16 0 21 -8 24 -40 l5 -40
5 40 c6 42 34 60 53 33 8 -10 9 -10 5 2 -3 11 -19 15 -65 16 l-62 0 1 -45z"/>
<path d="M2490 4796 c-28 -35 11 -93 48 -70 35 22 22 84 -18 84 -10 0 -23 -7
-30 -14z m55 -31 c0 -25 -4 -30 -25 -30 -16 0 -26 6 -28 18 -6 30 6 49 30 45
18 -2 23 -9 23 -33z"/>
<path d="M2591 4760 l2 -45 6 40 c6 41 35 61 52 34 6 -10 10 -10 23 0 25 21
44 6 49 -36 l4 -38 1 36 c2 45 -20 69 -48 51 -12 -7 -21 -8 -25 -2 -4 6 -20 9
-36 8 -28 -2 -29 -4 -28 -48z"/>
<path d="M2798 4800 c31 -13 27 -30 -8 -30 -23 0 -28 3 -24 18 5 14 4 15 -5 2
-6 -8 -11 -20 -11 -27 0 -17 29 -43 48 -42 13 0 12 2 -4 9 -38 15 -38 30 0 30
23 0 36 5 36 13 0 18 -21 37 -39 36 -10 0 -7 -4 7 -9z"/>
<path d="M2861 4761 l2 -46 6 40 c5 31 10 40 26 40 16 0 21 -9 26 -40 l7 -40
-2 45 c-1 44 -2 45 -33 46 -33 1 -33 1 -32 -45z"/>
<path d="M3036 4794 c-9 -8 -16 -22 -16 -29 0 -15 27 -45 40 -45 17 0 40 12
40 21 0 5 -9 4 -19 -3 -15 -9 -23 -9 -35 1 -9 8 -16 19 -16 26 0 7 7 18 16 26
12 10 20 10 35 1 10 -7 19 -8 19 -3 0 9 -23 21 -40 21 -5 0 -16 -7 -24 -16z"/>
<path d="M3193 4803 c-7 -2 -13 -12 -13 -21 0 -13 2 -13 14 3 21 29 46 12 47
-32 l2 -38 6 40 c5 31 11 41 28 43 19 3 22 -2 26 -40 l4 -43 1 43 c2 47 -16
64 -49 44 -11 -7 -20 -8 -24 -2 -7 11 -22 12 -42 3z"/>
<path d="M3346 4802 c-2 -4 7 -8 21 -7 36 0 41 -23 6 -27 -20 -2 -28 -9 -28
-23 0 -11 7 -20 15 -21 9 0 10 1 3 3 -24 8 -14 33 13 33 19 0 25 -4 21 -15 -4
-8 -2 -17 3 -20 14 -9 12 59 -2 73 -14 14 -44 16 -52 4z"/>
<path d="M3443 4765 c0 -27 2 -38 4 -22 2 15 2 37 0 50 -2 12 -4 0 -4 -28z"/>
<path d="M3484 4795 c-8 -19 4 -35 24 -34 15 1 15 2 0 6 -26 6 -22 31 5 36
l22 4 -23 2 c-12 0 -25 -6 -28 -14z"/>
<path d="M3613 4765 c0 -27 2 -38 4 -22 2 15 2 37 0 50 -2 12 -4 0 -4 -28z"/>
<path d="M3651 4765 l1 -50 8 40 c5 22 4 44 -1 50 -5 5 -9 -11 -8 -40z"/>
<path d="M3698 4800 c17 -7 22 -18 24 -47 l1 -38 4 33 c5 37 -10 62 -36 61
-11 0 -9 -3 7 -9z"/>
<path d="M3833 4803 c-7 -2 -13 -9 -13 -15 0 -6 6 -6 15 2 8 7 22 10 30 6 27
-10 16 -25 -22 -29 l-38 -4 43 -1 c43 -2 55 11 30 36 -13 13 -24 14 -45 5z"/>
<path d="M3921 4765 l1 -50 8 40 c5 22 4 44 -1 50 -5 5 -9 -11 -8 -40z"/>
<path d="M3992 4798 c-27 -27 -7 -78 29 -78 10 0 20 4 23 8 2 4 -7 8 -21 7
-14 0 -28 6 -30 13 -3 8 7 12 31 12 38 0 43 6 25 30 -9 13 -10 12 -5 -2 4 -15
-1 -18 -24 -18 -35 0 -39 17 -7 30 13 5 16 9 7 9 -9 1 -21 -4 -28 -11z"/>
<path d="M4081 4796 c-12 -15 -2 -27 32 -39 26 -10 10 -30 -19 -24 -13 2 -21
0 -18 -4 8 -14 40 -11 53 5 12 15 2 27 -33 40 -22 7 -12 21 19 29 19 4 19 5
-1 6 -12 0 -27 -5 -33 -13z"/>
<path d="M4161 4796 c-12 -15 -2 -27 32 -39 26 -10 10 -30 -19 -24 -13 2 -21
0 -18 -4 8 -14 40 -11 53 5 12 15 2 27 -33 40 -22 7 -12 21 19 29 19 4 19 5
-1 6 -12 0 -27 -5 -33 -13z"/>
<path d="M4246 4802 c-3 -5 6 -7 19 -4 18 3 25 0 25 -12 0 -9 -8 -16 -19 -16
-10 0 -24 -6 -30 -14 -15 -17 6 -36 37 -33 20 1 23 6 20 42 -2 32 -7 41 -25
43 -11 2 -24 -1 -27 -6z m44 -51 c0 -6 -5 -13 -10 -16 -15 -9 -43 3 -35 15 8
13 45 13 45 1z"/>
<path d="M4353 4803 c-7 -2 -13 -12 -13 -21 0 -13 2 -13 14 3 21 29 46 12 48
-32 l1 -38 4 33 c6 48 -16 71 -54 55z"/>
<path d="M4512 4798 c-27 -27 -7 -78 29 -78 10 0 20 4 23 8 2 4 -7 8 -21 7
-14 0 -28 6 -30 13 -3 8 7 12 31 12 20 0 36 4 36 8 0 4 -16 6 -36 4 -28 -3
-35 -1 -32 9 3 8 17 14 31 14 14 -1 23 3 21 7 -8 12 -38 10 -52 -4z"/>
<path d="M6823 4793 c-23 -9 -14 -24 11 -17 13 3 27 1 30 -5 4 -6 -1 -11 -11
-11 -11 0 -28 -6 -38 -14 -29 -21 -4 -45 46 -44 37 0 39 2 39 33 0 50 -34 76
-77 58z m42 -63 c-3 -5 -13 -10 -21 -10 -8 0 -14 5 -14 10 0 6 9 10 21 10 11
0 17 -4 14 -10z"/>
<path d="M6930 4748 c0 -36 4 -48 15 -48 11 0 15 11 15 35 0 22 6 38 15 41 25
10 17 21 -15 21 -29 0 -30 -2 -30 -49z"/>
<path d="M7016 4784 c-9 -8 -16 -24 -16 -34 0 -22 26 -50 46 -50 32 0 54 21
54 50 0 45 -52 66 -84 34z m62 -32 c4 -28 -24 -40 -45 -19 -14 13 -14 19 -3
32 18 22 44 15 48 -13z"/>
<path d="M7257 4782 c-22 -24 -21 -45 2 -66 21 -19 62 -18 69 2 3 9 -3 11 -21
7 -14 -4 -28 -2 -31 4 -5 7 5 11 28 11 29 0 36 4 36 20 0 19 -27 40 -53 40 -8
0 -21 -8 -30 -18z m58 -12 c4 -6 -5 -10 -20 -10 -15 0 -24 4 -20 10 3 6 12 10
20 10 8 0 17 -4 20 -10z"/>
<path d="M3530 4747 c0 -8 -10 -18 -22 -20 l-23 -4 23 -2 c22 -1 41 23 28 36
-3 4 -6 -1 -6 -10z"/>
<path d="M3829 4738 c14 -19 46 -24 55 -9 4 5 -3 7 -14 4 -11 -3 -28 1 -38 8
-15 13 -16 12 -3 -3z"/>
<path d="M3778 4723 c7 -3 16 -2 19 1 4 3 -2 6 -13 5 -11 0 -14 -3 -6 -6z"/>
<path d="M6680 4460 l0 -60 33 1 c30 2 30 2 5 6 -26 4 -28 8 -28 53 0 45 2 49
28 53 25 4 25 4 -5 6 l-33 1 0 -60z"/>
<path d="M7758 4513 c12 -2 30 -2 40 0 9 3 -1 5 -23 4 -22 0 -30 -2 -17 -4z"/>
<path d="M6813 4445 c0 -27 2 -38 4 -22 2 15 2 37 0 50 -2 12 -4 0 -4 -28z"/>
<path d="M7118 4483 c7 -3 16 -2 19 1 4 3 -2 6 -13 5 -11 0 -14 -3 -6 -6z"/>
<path d="M7523 4445 c0 -27 2 -38 4 -22 2 15 2 37 0 50 -2 12 -4 0 -4 -28z"/>
<path d="M5892 4385 c-78 -52 -142 -99 -142 -104 0 -4 9 -20 21 -34 l20 -27
119 80 c66 44 124 80 130 80 6 0 64 -36 130 -80 l119 -80 20 27 c27 33 26 39
-4 59 -19 13 -25 25 -27 67 l-3 52 -35 0 c-27 0 -35 -5 -40 -22 -5 -22 -8 -21
-80 27 -41 27 -77 50 -80 50 -3 0 -69 -43 -148 -95z m273 -21 c64 -42 118 -81
121 -86 17 -26 -14 -11 -125 63 l-121 81 -121 -81 c-67 -45 -124 -79 -127 -76
-3 3 0 11 6 17 23 23 227 157 240 157 7 1 64 -33 127 -75z m85 10 c0 -14 -4
-23 -10 -19 -5 3 -10 15 -10 26 0 10 5 19 10 19 6 0 10 -12 10 -26z"/>
<path d="M7753 4453 c9 -2 25 -2 35 0 9 3 1 5 -18 5 -19 0 -27 -2 -17 -5z"/>
<path d="M3123 4385 c0 -38 2 -53 4 -32 2 20 2 52 0 70 -2 17 -4 1 -4 -38z"/>
<path d="M3569 4425 c-2 -78 -2 -96 4 -102 4 -3 7 24 7 60 0 37 -2 67 -5 67
-3 0 -5 -11 -6 -25z"/>
<path d="M6958 4443 c12 -2 30 -2 40 0 9 3 -1 5 -23 4 -22 0 -30 -2 -17 -4z"/>
<path d="M7208 4443 c6 -2 18 -2 25 0 6 3 1 5 -13 5 -14 0 -19 -2 -12 -5z"/>
<path d="M7438 4443 c12 -2 30 -2 40 0 9 3 -1 5 -23 4 -22 0 -30 -2 -17 -4z"/>
<path d="M7858 4443 c6 -2 18 -2 25 0 6 3 1 5 -13 5 -14 0 -19 -2 -12 -5z"/>
<path d="M8258 4443 c6 -2 18 -2 25 0 6 3 1 5 -13 5 -14 0 -19 -2 -12 -5z"/>
<path d="M2350 4436 c0 -2 11 -6 25 -8 13 -3 22 -1 19 3 -5 9 -44 13 -44 5z"/>
<path d="M2436 4394 c-9 -8 -16 -22 -16 -29 0 -15 27 -45 40 -45 17 0 40 12
40 21 0 5 -9 4 -19 -3 -15 -9 -23 -9 -35 1 -9 8 -16 19 -16 26 0 7 7 18 16 26
12 10 20 10 35 1 10 -7 19 -8 19 -3 0 9 -23 21 -40 21 -5 0 -16 -7 -24 -16z"/>
<path d="M2531 4360 l2 -45 6 40 c6 41 35 61 52 34 6 -10 10 -10 23 0 25 21
44 6 49 -36 l4 -38 1 36 c2 45 -20 69 -48 51 -12 -7 -21 -8 -25 -2 -4 6 -20 9
-36 8 -28 -2 -29 -4 -28 -48z"/>
<path d="M2713 4403 c-7 -2 -13 -9 -13 -15 0 -6 6 -6 15 2 8 7 22 10 30 6 27
-10 16 -25 -22 -29 l-38 -4 43 -1 c43 -2 55 11 30 36 -13 13 -24 14 -45 5z"/>
<path d="M2806 4394 c-9 -8 -16 -22 -16 -29 0 -29 50 -58 64 -37 3 5 -4 8 -16
8 -29 -1 -46 28 -28 49 7 9 22 14 32 12 10 -3 16 -1 12 4 -8 14 -31 11 -48 -7z"/>
<path d="M2928 4400 c31 -13 27 -30 -8 -30 -23 0 -28 3 -24 18 5 14 4 15 -5 2
-6 -8 -11 -20 -11 -27 0 -17 29 -43 48 -42 13 0 12 2 -4 9 -38 15 -38 30 0 30
23 0 36 5 36 13 0 18 -21 37 -39 36 -10 0 -7 -4 7 -9z"/>
<path d="M3036 4394 c-9 -8 -16 -22 -16 -29 0 -29 50 -58 64 -37 3 5 -4 8 -16
8 -29 -1 -46 28 -28 49 7 9 22 14 32 12 10 -3 16 -1 12 4 -8 14 -31 11 -48 -7z"/>
<path d="M3212 4398 c-27 -27 -7 -78 29 -78 10 0 20 4 23 8 2 4 -8 8 -22 7
-23 0 -27 4 -27 30 0 26 4 30 27 30 14 -1 24 3 22 7 -8 12 -38 10 -52 -4z"/>
<path d="M3306 4402 c-3 -5 6 -7 19 -4 18 3 25 0 25 -12 0 -9 -8 -16 -19 -16
-10 0 -24 -6 -30 -14 -15 -17 6 -36 37 -33 20 1 23 6 20 42 -2 32 -7 41 -25
43 -11 2 -24 -1 -27 -6z m44 -51 c0 -6 -5 -13 -10 -16 -15 -9 -43 3 -35 15 8
13 45 13 45 1z"/>
<path d="M3413 4403 c-7 -2 -13 -12 -13 -21 0 -13 2 -13 14 3 21 29 46 12 48
-32 l1 -38 4 33 c6 48 -16 71 -54 55z"/>
<path d="M3512 4398 c-26 -26 -7 -79 28 -77 9 0 6 4 -7 9 -16 6 -23 18 -23 35
0 17 7 29 23 35 13 5 16 9 7 9 -9 1 -21 -4 -28 -11z"/>
<path d="M3623 4403 c-7 -2 -13 -9 -13 -14 0 -5 9 -4 19 3 15 9 23 9 35 -1 9
-8 16 -19 16 -26 0 -7 -7 -18 -16 -26 -13 -11 -19 -10 -37 1 -20 12 -21 12 -8
-3 17 -21 35 -22 55 -1 36 36 -3 87 -51 67z"/>
<path d="M3762 4398 c-27 -27 -7 -78 29 -78 10 0 20 4 23 8 2 4 -7 8 -21 7
-14 0 -28 6 -30 13 -3 8 7 12 31 12 20 0 36 4 36 8 0 4 -16 6 -36 4 -28 -3
-35 -1 -32 9 3 8 17 14 31 14 14 -1 23 3 21 7 -8 12 -38 10 -52 -4z"/>
<path d="M3873 4403 c-7 -2 -13 -12 -13 -21 0 -13 2 -13 14 3 21 29 46 12 47
-32 l2 -38 6 40 c5 31 11 41 28 43 19 3 22 -2 26 -40 l4 -43 1 43 c2 47 -16
64 -49 44 -11 -7 -20 -8 -24 -2 -7 11 -22 12 -42 3z"/>
<path d="M4871 4345 c1 -33 4 -50 6 -37 3 17 9 21 22 17 21 -6 51 3 51 16 0 5
-9 4 -19 -3 -15 -9 -23 -9 -35 1 -9 8 -16 19 -16 26 0 7 7 18 16 26 12 10 20
10 35 1 11 -7 19 -8 19 -2 0 10 -7 12 -52 14 -28 2 -28 1 -27 -59z"/>
<path d="M4986 4402 c-4 -6 3 -8 15 -5 12 4 25 0 31 -8 8 -12 9 -11 5 1 -4 17
-42 26 -51 12z"/>
<path d="M5082 4360 c1 -40 2 -41 5 -10 2 19 11 40 20 47 13 10 13 12 -6 10
-18 -1 -21 -7 -19 -47z"/>
<path d="M5146 4402 c-3 -5 6 -7 19 -4 18 3 25 0 25 -12 0 -9 -8 -16 -19 -16
-10 0 -24 -6 -30 -14 -15 -17 6 -36 37 -33 20 1 23 6 20 42 -2 32 -7 41 -25
43 -11 2 -24 -1 -27 -6z m44 -51 c0 -6 -5 -13 -10 -16 -15 -9 -43 3 -35 15 8
13 45 13 45 1z"/>
<path d="M6968 4403 c7 -3 16 -2 19 1 4 3 -2 6 -13 5 -11 0 -14 -3 -6 -6z"/>
<path d="M7118 4403 c7 -3 16 -2 19 1 4 3 -2 6 -13 5 -11 0 -14 -3 -6 -6z"/>
<path d="M2312 4380 c0 -14 2 -19 5 -12 2 6 2 18 0 25 -3 6 -5 1 -5 -13z"/>
<path d="M4986 4361 c-3 -4 5 -6 18 -4 17 4 25 0 29 -14 4 -15 5 -14 6 5 1 17
-4 22 -23 22 -14 0 -27 -4 -30 -9z"/>
<path d="M2709 4338 c14 -19 46 -24 55 -9 4 5 -3 7 -14 4 -11 -3 -28 1 -38 8
-15 13 -16 12 -3 -3z"/>
<path d="M2370 4330 c-23 -7 -23 -8 -3 -9 12 -1 25 4 28 9 3 6 5 10 3 9 -2 -1
-14 -5 -28 -9z"/>
<path d="M4988 4328 c5 -5 16 -8 23 -6 8 3 3 7 -10 11 -17 4 -21 3 -13 -5z"/>
<path d="M6090 4283 c-8 -3 -32 -11 -52 -20 -33 -14 -38 -20 -44 -62 -5 -41
-16 -56 -89 -131 -45 -47 -83 -92 -84 -100 -1 -8 -2 -28 -4 -44 -3 -37 24 -56
53 -38 11 6 28 12 38 12 9 0 53 36 96 79 70 70 84 80 125 86 40 6 48 11 64 41
18 38 23 104 7 104 -5 0 -10 -14 -10 -31 0 -17 -5 -40 -11 -51 -10 -19 -15
-17 -75 43 -58 58 -63 65 -47 76 9 7 32 13 50 13 18 0 33 4 33 9 0 11 -30 19
-50 14z m24 -191 c-39 -5 -109 65 -99 98 7 21 11 19 66 -36 59 -58 59 -59 33
-62z m-81 10 l27 -28 -78 -77 -78 -77 -29 30 -29 30 74 75 c41 41 77 75 80 75
4 0 18 -13 33 -28z m-173 -182 c0 -5 -4 -10 -10 -10 -5 0 -10 5 -10 10 0 6 5
10 10 10 6 0 10 -4 10 -10z"/>
<path d="M5980 4065 c0 -8 -6 -15 -13 -15 -21 0 -52 -39 -41 -50 7 -7 23 4 47
29 20 21 33 41 30 45 -11 11 -23 6 -23 -9z"/>
<path d="M5898 4254 c-22 -11 -28 -22 -28 -47 0 -24 -6 -35 -22 -42 -27 -12
-31 -53 -6 -68 30 -19 48 8 48 73 0 51 3 58 25 68 14 6 25 16 25 22 0 13 -10
12 -42 -6z m-28 -124 c0 -5 -7 -10 -15 -10 -8 0 -15 5 -15 10 0 6 7 10 15 10
8 0 15 -4 15 -10z"/>
<path d="M6165 4251 c-3 -5 -1 -12 5 -16 5 -3 10 1 10 9 0 18 -6 21 -15 7z"/>
<path d="M2940 4185 c0 -22 -3 -25 -24 -19 -15 3 -29 -1 -40 -11 -32 -33 -13
-69 38 -70 l36 -2 0 64 c0 35 -2 63 -5 63 -3 0 -5 -11 -5 -25z m-6 -47 c8 -14
7 -21 -6 -34 -30 -30 -75 9 -48 42 16 18 39 15 54 -8z"/>
<path d="M3589 4185 c-2 -78 -2 -96 4 -102 4 -3 7 24 7 60 0 37 -2 67 -5 67
-3 0 -5 -11 -6 -25z"/>
<path d="M4099 4185 c-2 -78 -2 -96 4 -102 4 -3 7 24 7 60 0 37 -2 67 -5 67
-3 0 -5 -11 -6 -25z"/>
<path d="M4981 4150 c-1 -64 0 -66 25 -68 34 -3 54 14 54 43 0 28 -24 49 -49
42 -15 -4 -21 1 -24 22 -2 14 -5 -3 -6 -39z m64 -25 c0 -25 -4 -30 -25 -30
-16 0 -26 6 -28 18 -6 30 6 49 30 45 18 -2 23 -9 23 -33z"/>
<path d="M3808 4178 c-2 -7 -1 -29 3 -48 l6 -35 2 33 c1 23 6 32 19 33 13 0
14 2 2 6 -8 3 -18 10 -21 15 -3 5 -8 4 -11 -4z"/>
<path d="M2311 4150 c14 -31 19 -36 19 -24 0 6 -7 19 -16 30 -14 18 -14 18 -3
-6z"/>
<path d="M2413 4163 c-7 -2 -13 -9 -13 -15 0 -6 6 -6 15 2 8 7 22 10 30 6 27
-10 16 -25 -22 -29 l-38 -4 43 -1 c43 -2 55 11 30 36 -13 13 -24 14 -45 5z"/>
<path d="M2502 4120 c1 -40 2 -41 5 -10 2 19 11 40 20 47 13 10 13 12 -6 10
-18 -1 -21 -7 -19 -47z"/>
<path d="M2638 4160 c30 -13 28 -28 -5 -32 -20 -2 -28 -9 -28 -23 0 -16 7 -20
33 -21 30 -1 32 1 32 31 0 34 -15 55 -39 54 -10 0 -7 -4 7 -9z m20 -52 c-7
-20 -48 -23 -48 -4 0 11 9 16 26 16 16 0 24 -5 22 -12z"/>
<path d="M2704 4155 c-8 -19 4 -35 24 -34 15 1 15 2 0 6 -26 6 -22 31 5 36
l22 4 -23 2 c-12 0 -25 -6 -28 -14z"/>
<path d="M3018 4160 c31 -13 27 -30 -8 -30 -23 0 -28 3 -24 18 5 14 4 15 -5 2
-6 -8 -11 -20 -11 -27 0 -17 29 -43 48 -42 13 0 12 2 -4 9 -38 15 -38 30 0 30
23 0 36 5 36 13 0 18 -21 37 -39 36 -10 0 -7 -4 7 -9z"/>
<path d="M3083 4125 c0 -27 2 -38 4 -22 2 15 2 37 0 50 -2 12 -4 0 -4 -28z"/>
<path d="M3126 4162 c-4 -6 3 -8 15 -5 12 4 25 0 31 -8 8 -12 9 -11 5 1 -4 17
-42 26 -51 12z"/>
<path d="M3214 4155 c-8 -20 4 -35 27 -35 11 0 19 -7 19 -16 0 -12 -7 -15 -26
-11 -16 3 -22 1 -16 -5 16 -16 47 -5 47 17 0 13 -8 21 -22 23 -13 2 -23 10
-23 17 0 7 10 16 23 18 l22 4 -23 2 c-12 0 -25 -6 -28 -14z"/>
<path d="M3346 4154 c-9 -8 -16 -22 -16 -29 0 -29 50 -58 64 -37 3 5 -4 8 -16
8 -29 -1 -46 28 -28 49 7 9 22 14 32 12 10 -3 16 -1 12 4 -8 14 -31 11 -48 -7z"/>
<path d="M3436 4162 c-3 -5 6 -7 19 -4 18 3 25 0 25 -12 0 -9 -8 -16 -19 -16
-10 0 -24 -6 -30 -14 -15 -17 6 -36 37 -33 20 1 23 6 20 42 -2 32 -7 41 -25
43 -11 2 -24 -1 -27 -6z m44 -51 c0 -6 -5 -13 -10 -16 -15 -9 -43 3 -35 15 8
13 45 13 45 1z"/>
<path d="M3532 4158 c-26 -26 -7 -79 28 -77 9 0 6 4 -7 9 -16 6 -23 18 -23 35
0 17 7 29 23 35 13 5 16 9 7 9 -9 1 -21 -4 -28 -11z"/>
<path d="M3636 4162 c-2 -4 7 -8 21 -7 36 0 41 -23 6 -27 -20 -2 -28 -9 -28
-23 0 -11 7 -20 15 -21 9 0 10 1 3 3 -24 8 -14 33 13 33 19 0 25 -4 21 -15 -4
-8 -2 -17 3 -20 14 -9 12 59 -2 73 -14 14 -44 16 -52 4z"/>
<path d="M3732 4158 c-18 -18 -15 -25 19 -37 35 -12 30 -35 -7 -28 -13 2 -21
0 -18 -4 8 -14 40 -11 53 5 12 15 2 27 -33 40 -22 7 -12 21 19 29 20 5 20 5 0
6 -12 0 -26 -4 -33 -11z"/>
<path d="M3891 4161 c-7 -5 -12 -13 -10 -18 2 -5 12 -1 22 9 18 19 12 24 -12
9z"/>
<path d="M3946 4162 c-3 -5 6 -7 19 -4 18 3 25 0 25 -12 0 -9 -8 -16 -19 -16
-10 0 -24 -6 -30 -14 -15 -17 6 -36 37 -33 20 1 23 6 20 42 -2 32 -7 41 -25
43 -11 2 -24 -1 -27 -6z m44 -51 c0 -6 -5 -13 -10 -16 -15 -9 -43 3 -35 15 8
13 45 13 45 1z"/>
<path d="M4042 4158 c-26 -26 -7 -79 28 -77 9 0 6 4 -7 9 -16 6 -23 18 -23 35
0 17 7 29 23 35 13 5 16 9 7 9 -9 1 -21 -4 -28 -11z"/>
<path d="M4146 4162 c-2 -4 7 -8 21 -7 36 0 41 -23 6 -27 -20 -2 -28 -9 -28
-23 0 -11 7 -20 15 -21 9 0 10 1 3 3 -24 8 -14 33 13 33 19 0 25 -4 21 -15 -4
-8 -2 -17 3 -20 14 -9 12 59 -2 73 -14 14 -44 16 -52 4z"/>
<path d="M4242 4158 c-18 -18 -15 -25 19 -37 35 -12 30 -35 -7 -28 -13 2 -21
0 -18 -4 8 -14 40 -11 53 5 12 15 2 27 -33 40 -22 7 -12 21 19 29 20 5 20 5 0
6 -12 0 -26 -4 -33 -11z"/>
<path d="M4373 4163 c-7 -2 -13 -9 -13 -15 0 -6 6 -6 15 2 8 7 22 10 30 6 27
-10 16 -25 -22 -29 l-38 -4 43 -1 c43 -2 55 11 30 36 -13 13 -24 14 -45 5z"/>
<path d="M4513 4163 c-7 -2 -13 -9 -13 -15 0 -6 6 -6 15 2 8 6 24 9 37 5 18
-5 20 -4 8 4 -16 11 -28 12 -47 4z"/>
<path d="M4603 4163 c-7 -2 -13 -9 -13 -14 0 -5 9 -4 19 3 15 9 23 9 35 -1 9
-8 16 -19 16 -26 0 -7 -7 -18 -16 -26 -13 -11 -19 -10 -37 1 -20 12 -21 12 -8
-3 17 -21 35 -22 55 -1 36 36 -3 87 -51 67z"/>
<path d="M4691 4125 l1 -50 8 40 c5 22 4 44 -1 50 -5 5 -9 -11 -8 -40z"/>
<path d="M4738 4160 c17 -7 22 -18 24 -47 l1 -38 4 33 c5 37 -10 62 -36 61
-11 0 -9 -3 7 -9z"/>
<path d="M4803 4163 c9 -2 23 -2 30 0 6 3 -1 5 -18 5 -16 0 -22 -2 -12 -5z"/>
<path d="M4872 4120 c1 -40 2 -41 5 -10 2 19 11 40 20 47 13 10 13 12 -6 10
-18 -1 -21 -7 -19 -47z"/>
<path d="M4933 4125 c0 -27 2 -38 4 -22 2 15 2 37 0 50 -2 12 -4 0 -4 -28z"/>
<path d="M5094 4128 c1 -41 2 -43 34 -44 32 -1 32 -1 31 45 l-2 46 -6 -40 c-5
-31 -11 -41 -28 -43 -19 -3 -22 2 -26 37 l-4 41 1 -42z"/>
<path d="M5196 4162 c-2 -4 7 -8 21 -7 36 0 41 -23 6 -27 -20 -2 -28 -9 -28
-23 0 -11 7 -20 15 -21 9 0 10 1 3 3 -24 8 -14 33 13 33 19 0 25 -4 21 -15 -4
-8 -2 -17 3 -20 14 -9 12 59 -2 73 -14 14 -44 16 -52 4z"/>
<path d="M2366 4145 c-9 -26 -7 -32 5 -12 6 10 9 21 6 23 -2 3 -7 -2 -11 -11z"/>
<path d="M3126 4121 c-3 -4 5 -6 18 -4 17 4 25 0 29 -14 4 -15 5 -14 6 5 1 17
-4 22 -23 22 -14 0 -27 -4 -30 -9z"/>
<path d="M7869 4108 c-1 -13 -2 -40 -3 -61 -2 -21 1 -40 6 -43 4 -3 8 24 8 60
0 36 -2 66 -5 66 -3 0 -5 -10 -6 -22z"/>
<path d="M8013 4065 c0 -38 2 -53 4 -32 2 20 2 52 0 70 -2 17 -4 1 -4 -38z"/>
<path d="M10180 4106 c0 -19 -4 -23 -20 -19 -26 7 -50 -13 -50 -42 0 -29 20
-46 54 -43 25 2 26 4 26 65 0 35 -2 63 -5 63 -3 0 -5 -11 -5 -24z m-5 -61 c0
-25 -4 -30 -25 -30 -16 0 -26 6 -28 18 -6 30 6 49 30 45 18 -2 23 -9 23 -33z"/>
<path d="M11043 4065 c0 -38 2 -53 4 -32 2 20 2 52 0 70 -2 17 -4 1 -4 -38z"/>
<path d="M2750 4107 c0 -8 -10 -18 -22 -20 l-23 -4 23 -2 c22 -1 41 23 28 36
-3 4 -6 -1 -6 -10z"/>
<path d="M6682 4063 l-2 -63 38 2 c36 1 36 1 5 5 -31 4 -32 5 -36 61 l-3 57
-2 -62z"/>
<path d="M11280 4060 l0 -60 43 2 42 1 -37 4 c-32 4 -38 8 -38 28 0 19 6 24
33 28 l32 4 -32 1 c-25 2 -33 7 -33 21 0 15 8 21 33 24 31 4 31 4 -5 5 l-38 2
0 -60z"/>
<path d="M2330 4099 c0 -15 18 -19 23 -6 3 8 -1 14 -9 14 -8 0 -14 -4 -14 -8z"/>
<path d="M2409 4098 c14 -19 46 -24 55 -9 4 5 -3 7 -14 4 -11 -3 -28 1 -38 8
-15 13 -16 12 -3 -3z"/>
<path d="M4369 4098 c14 -19 46 -24 55 -9 4 5 -3 7 -14 4 -11 -3 -28 1 -38 8
-15 13 -16 12 -3 -3z"/>
<path d="M4512 4095 c14 -15 21 -17 40 -7 l23 12 -23 -6 c-13 -3 -31 0 -40 7
-16 12 -16 12 0 -6z"/>
<path d="M8388 4098 c-2 -7 -1 -29 3 -48 l6 -35 2 33 c1 23 6 32 19 33 13 0
14 2 2 6 -8 3 -18 10 -21 15 -3 5 -8 4 -11 -4z"/>
<path d="M9578 4098 c-2 -6 -1 -29 2 -52 4 -31 10 -41 25 -43 16 -1 16 -1 3 3
-13 4 -18 16 -18 39 0 18 4 35 9 37 5 2 3 8 -4 15 -10 9 -15 9 -17 1z"/>
<path d="M9738 4098 c-2 -6 -1 -29 2 -52 4 -31 10 -41 25 -43 16 -1 16 -1 3 3
-13 4 -18 16 -18 39 0 18 4 35 9 37 5 2 3 8 -4 15 -10 9 -15 9 -17 1z"/>
<path d="M11128 4098 c-2 -7 -1 -29 3 -48 l6 -35 2 33 c1 23 6 32 19 33 13 0
14 2 2 6 -8 3 -18 10 -21 15 -3 5 -8 4 -11 -4z"/>
<path d="M3128 4088 c5 -5 16 -8 23 -6 8 3 3 7 -10 11 -17 4 -21 3 -13 -5z"/>
<path d="M4810 4090 c0 -6 7 -10 15 -10 8 0 15 2 15 4 0 2 -7 6 -15 10 -8 3
-15 1 -15 -4z"/>
<path d="M3828 4083 c7 -3 16 -2 19 1 4 3 -2 6 -13 5 -11 0 -14 -3 -6 -6z"/>
<path d="M6257 4068 c-46 -20 -47 -22 -47 -65 0 -37 -4 -45 -24 -53 -13 -5
-27 -13 -30 -19 -10 -16 12 -51 32 -51 32 0 42 22 42 88 0 63 0 63 35 78 45
18 45 19 45 -14 0 -19 -7 -30 -22 -37 -15 -7 -23 -19 -23 -35 0 -21 5 -25 30
-25 l30 0 3 71 c3 85 -4 91 -71 62z m48 -108 c-3 -5 -10 -10 -16 -10 -5 0 -9
5 -9 10 0 6 7 10 16 10 8 0 12 -4 9 -10z m-105 -40 c0 -5 -4 -10 -10 -10 -5 0
-10 5 -10 10 0 6 5 10 10 10 6 0 10 -4 10 -10z"/>
<path d="M6779 4073 c-12 -16 -12 -17 1 -7 8 6 22 14 30 17 13 5 12 6 -1 6 -9
1 -23 -7 -30 -16z"/>
<path d="M6870 4045 c0 -27 2 -46 4 -44 8 8 10 78 3 85 -4 4 -7 -14 -7 -41z"/>
<path d="M6942 4078 c-27 -27 -7 -78 29 -78 10 0 20 4 23 8 2 4 -7 8 -21 7
-43 0 -39 23 4 28 l38 4 -37 1 c-42 2 -50 18 -15 32 13 5 16 9 7 9 -9 1 -21
-4 -28 -11z"/>
<path d="M7030 4045 c0 -27 2 -46 4 -44 8 8 10 78 3 85 -4 4 -7 -14 -7 -41z"/>
<path d="M7078 4080 c17 -7 22 -18 23 -47 l2 -38 6 40 c5 31 10 40 26 40 16 0
21 -9 26 -40 l6 -40 2 36 c1 45 -21 69 -49 51 -12 -7 -21 -8 -25 -2 -3 6 -14
10 -23 9 -12 0 -11 -3 6 -9z"/>
<path d="M7253 4045 c0 -27 2 -38 4 -22 2 15 2 37 0 50 -2 12 -4 0 -4 -28z"/>
<path d="M7290 4030 c0 -35 2 -61 6 -58 8 8 9 106 1 114 -4 4 -7 -21 -7 -56z"/>
<path d="M7338 4080 c12 -5 22 -15 22 -21 0 -7 3 -9 6 -6 10 10 -16 37 -35 36
-11 0 -9 -3 7 -9z"/>
<path d="M7401 4076 c-12 -15 -2 -27 32 -39 26 -10 10 -30 -19 -24 -13 2 -21
0 -18 -4 8 -14 40 -11 53 4 12 15 -3 37 -25 37 -24 0 -25 20 -2 29 15 7 17 10
7 10 -9 1 -22 -5 -28 -13z"/>
<path d="M7482 4059 c-1 -22 4 -42 13 -49 16 -13 55 -5 55 12 0 6 -6 6 -15 -2
-24 -20 -43 -4 -48 37 l-4 38 -1 -36z"/>
<path d="M7591 4040 l2 -45 6 40 c5 31 10 40 26 40 16 0 21 -8 25 -40 l6 -40
5 42 c2 23 1 39 -3 37 -3 -2 -9 0 -13 6 -3 5 -17 9 -30 8 -23 -2 -25 -6 -24
-48z"/>
<path d="M7690 4083 c8 -3 19 -11 23 -17 6 -7 7 -6 4 4 -2 8 -12 16 -23 17
-13 2 -15 1 -4 -4z"/>
<path d="M7810 4080 c-24 -15 -7 -18 20 -3 14 7 18 13 10 13 -8 0 -22 -4 -30
-10z"/>
<path d="M7919 4073 c-12 -16 -12 -17 1 -7 8 6 22 14 30 17 13 5 12 6 -1 6 -9
1 -23 -7 -30 -16z"/>
<path d="M8060 4076 c-28 -35 11 -93 48 -70 35 22 22 84 -18 84 -10 0 -23 -7
-30 -14z m55 -31 c0 -25 -4 -30 -25 -30 -16 0 -26 6 -28 18 -6 30 6 49 30 45
18 -2 23 -9 23 -33z"/>
<path d="M8162 4040 c1 -40 2 -41 5 -10 2 19 11 40 20 47 13 10 13 12 -6 10
-18 -1 -21 -7 -19 -47z"/>
<path d="M8264 4075 c-8 -20 4 -35 27 -35 25 0 25 -27 -1 -33 -17 -4 -16 -4 2
-3 32 2 32 40 1 44 -13 2 -23 10 -23 17 0 7 10 16 23 18 l22 4 -23 2 c-12 0
-25 -6 -28 -14z"/>
<path d="M8528 4080 c30 -13 28 -28 -5 -32 -20 -2 -28 -9 -28 -23 0 -16 7 -20
33 -21 30 -1 32 1 32 31 0 34 -15 55 -39 54 -10 0 -7 -4 7 -9z m20 -52 c-7
-20 -48 -23 -48 -4 0 11 9 16 26 16 16 0 24 -5 22 -12z"/>
<path d="M8613 4083 c-7 -2 -13 -9 -13 -15 0 -6 6 -6 15 2 25 20 45 4 46 -37
l2 -38 6 40 c5 31 11 41 28 43 19 3 22 -2 26 -40 l4 -43 1 43 c2 47 -16 64
-49 44 -11 -7 -20 -8 -24 -2 -7 11 -22 12 -42 3z"/>
<path d="M8772 4078 c-27 -27 -7 -78 29 -78 10 0 20 4 23 8 2 4 -7 8 -21 7
-43 0 -39 23 4 28 l38 4 -37 1 c-42 2 -50 18 -15 32 13 5 16 9 7 9 -9 1 -21
-4 -28 -11z"/>
<path d="M8863 4083 c9 -2 23 -2 30 0 6 3 -1 5 -18 5 -16 0 -22 -2 -12 -5z"/>
<path d="M9012 4078 c-27 -27 -7 -78 29 -78 10 0 20 4 23 8 2 4 -8 8 -22 7
-23 0 -27 4 -27 30 0 26 4 30 27 30 14 -1 24 3 22 7 -8 12 -38 10 -52 -4z"/>
<path d="M9100 4076 c-28 -35 11 -93 48 -70 35 22 22 84 -18 84 -10 0 -23 -7
-30 -14z m55 -31 c0 -25 -4 -30 -25 -30 -16 0 -26 6 -28 18 -6 30 6 49 30 45
18 -2 23 -9 23 -33z"/>
<path d="M9200 4045 c0 -27 2 -46 4 -44 8 8 10 78 3 85 -4 4 -7 -14 -7 -41z"/>
<path d="M9230 4086 c0 -2 9 -6 20 -9 11 -3 18 -1 14 4 -5 9 -34 13 -34 5z"/>
<path d="M9304 4075 c-8 -20 4 -35 27 -35 25 0 25 -27 -1 -33 -17 -4 -16 -4 2
-3 32 2 32 40 1 44 -13 2 -23 10 -23 17 0 7 10 16 23 18 l22 4 -23 2 c-12 0
-25 -6 -28 -14z"/>
<path d="M9392 4078 c-27 -27 -7 -78 29 -78 10 0 20 4 23 8 2 4 -7 8 -21 7
-14 0 -28 6 -30 13 -3 8 7 12 31 12 20 0 36 4 36 8 0 4 -16 6 -35 4 -40 -5
-48 13 -12 28 13 5 16 9 7 9 -9 1 -21 -4 -28 -11z"/>
<path d="M9492 4078 c-27 -27 -7 -78 29 -78 10 0 20 4 23 8 2 4 -8 8 -22 7
-23 0 -27 4 -27 30 0 26 4 30 27 30 14 -1 24 3 22 7 -8 12 -38 10 -52 -4z"/>
<path d="M9678 4080 c31 -13 27 -30 -8 -30 -23 0 -28 4 -24 18 3 10 0 8 -7 -4
-8 -17 -8 -27 1 -40 10 -17 11 -17 6 -1 -4 14 1 17 29 17 22 0 35 5 35 13 0
18 -21 37 -39 36 -10 0 -7 -4 7 -9z"/>
<path d="M9868 4049 c-2 -22 0 -43 4 -45 4 -3 8 15 8 40 0 57 -7 60 -12 5z"/>
<path d="M9910 4045 c0 -27 2 -46 4 -44 8 8 10 78 3 85 -4 4 -7 -14 -7 -41z"/>
<path d="M10026 4082 c-3 -5 6 -7 19 -4 18 3 25 0 25 -12 0 -9 -8 -16 -18 -16
-27 0 -44 -21 -31 -37 7 -7 19 -13 28 -12 10 0 8 3 -7 10 -26 10 -21 29 8 29
11 0 20 -9 23 -22 3 -13 4 -3 3 22 -1 38 -4 45 -23 48 -11 2 -24 -1 -27 -6z"/>
<path d="M10270 4030 c0 -35 2 -61 6 -58 8 8 9 106 1 114 -4 4 -7 -21 -7 -56z"/>
<path d="M10318 4080 c12 -5 22 -15 22 -21 0 -7 3 -9 6 -6 10 10 -16 37 -35
36 -11 0 -9 -3 7 -9z"/>
<path d="M10383 4045 c0 -27 2 -38 4 -22 2 15 2 37 0 50 -2 12 -4 0 -4 -28z"/>
<path d="M10421 4076 c-12 -15 -2 -27 32 -39 26 -10 10 -30 -19 -24 -13 2 -21
0 -18 -4 8 -14 40 -11 53 5 12 15 2 27 -33 40 -22 7 -12 21 19 29 19 4 19 5
-1 6 -12 0 -27 -5 -33 -13z"/>
<path d="M10503 4045 c0 -27 2 -38 4 -22 2 15 2 37 0 50 -2 12 -4 0 -4 -28z"/>
<path d="M10552 4078 c-27 -27 -7 -78 29 -78 10 0 20 4 23 8 2 4 -8 8 -22 7
-23 0 -27 4 -27 30 0 26 4 30 27 30 14 -1 24 3 22 7 -8 12 -38 10 -52 -4z"/>
<path d="M10643 4045 c0 -27 2 -38 4 -22 2 15 2 37 0 50 -2 12 -4 0 -4 -28z"/>
<path d="M10680 4045 c0 -27 2 -46 4 -44 8 8 10 78 3 85 -4 4 -7 -14 -7 -41z"/>
<path d="M10728 4080 c17 -7 22 -18 24 -47 l1 -38 4 33 c5 37 -10 62 -36 61
-11 0 -9 -3 7 -9z"/>
<path d="M10800 4080 c-24 -15 -7 -18 20 -3 14 7 18 13 10 13 -8 0 -22 -4 -30
-10z"/>
<path d="M10859 4083 c0 -5 -2 -23 -3 -41 -2 -18 0 -35 5 -38 5 -3 9 15 9 40
0 25 -2 46 -5 46 -3 0 -5 -3 -6 -7z"/>
<path d="M10952 4078 c-27 -27 -7 -78 29 -78 10 0 20 4 23 8 2 4 -7 8 -21 7
-43 0 -39 23 4 28 l38 4 -37 1 c-42 2 -50 18 -15 32 13 5 16 9 7 9 -9 1 -21
-4 -28 -11z"/>
<path d="M11093 4045 c0 -27 2 -38 4 -22 2 15 2 37 0 50 -2 12 -4 0 -4 -28z"/>
<path d="M11383 4083 c9 -2 23 -2 30 0 6 3 -1 5 -18 5 -16 0 -22 -2 -12 -5z"/>
<path d="M6834 4044 c0 -30 2 -33 9 -16 5 12 5 26 0 36 -7 12 -9 7 -9 -20z"/>
<path d="M7974 4044 c0 -30 2 -33 9 -16 5 12 5 26 0 36 -7 12 -9 7 -9 -20z"/>
<path d="M9272 4030 c0 -19 2 -27 5 -17 2 9 2 25 0 35 -3 9 -5 1 -5 -18z"/>
<path d="M7360 4031 c0 -6 -10 -16 -22 -21 -16 -6 -18 -9 -7 -9 19 -1 45 26
35 36 -3 3 -6 1 -6 -6z"/>
<path d="M10340 4031 c0 -6 -10 -16 -22 -21 -16 -6 -18 -9 -7 -9 19 -1 45 26
35 36 -3 3 -6 1 -6 -6z"/>
<path d="M6782 4014 c9 -9 21 -15 27 -13 6 2 -2 10 -17 17 -25 11 -25 11 -10
-4z"/>
<path d="M7800 4020 c0 -9 39 -25 45 -18 2 2 -7 8 -21 15 -13 6 -24 7 -24 3z"/>
<path d="M7922 4014 c9 -9 21 -15 27 -13 6 2 -2 10 -17 17 -25 11 -25 11 -10
-4z"/>
<path d="M9813 4020 c2 -8 12 -16 23 -17 13 -2 15 -1 4 4 -8 3 -19 11 -23 17
-6 7 -7 6 -4 -4z"/>
<path d="M10802 4014 c9 -9 21 -15 27 -13 6 2 -2 10 -17 17 -25 11 -25 11 -10
-4z"/>
<path d="M8870 4010 c0 -6 7 -10 15 -10 8 0 15 2 15 4 0 2 -7 6 -15 10 -8 3
-15 1 -15 -4z"/>
<path d="M11390 4010 c0 -6 7 -10 15 -10 8 0 15 2 15 4 0 2 -7 6 -15 10 -8 3
-15 1 -15 -4z"/>
<path d="M8408 4003 c7 -3 16 -2 19 1 4 3 -2 6 -13 5 -11 0 -14 -3 -6 -6z"/>
<path d="M9668 4003 c7 -3 16 -2 19 1 4 3 -2 6 -13 5 -11 0 -14 -3 -6 -6z"/>
<path d="M11148 4003 c7 -3 16 -2 19 1 4 3 -2 6 -13 5 -11 0 -14 -3 -6 -6z"/>
<path d="M10797 3978 c2 -5 15 -8 28 -8 13 0 26 3 28 8 3 4 -10 7 -28 7 -18 0
-31 -3 -28 -7z"/>
<path d="M6891 3830 c-1 -64 0 -66 25 -68 34 -3 54 14 54 43 0 28 -24 49 -49
42 -15 -4 -21 1 -24 22 -2 14 -5 -3 -6 -39z m64 -25 c0 -25 -4 -30 -25 -30
-16 0 -26 6 -28 18 -6 30 6 49 30 45 18 -2 23 -9 23 -33z"/>
<path d="M6681 3801 l2 -46 6 40 c5 31 11 41 28 43 19 3 22 -2 26 -40 l4 -43
-1 45 c-1 44 -2 45 -33 46 -33 1 -33 1 -32 -45z"/>
<path d="M6790 3836 c-28 -35 11 -93 48 -70 35 22 22 84 -18 84 -10 0 -23 -7
-30 -14z m55 -31 c0 -25 -4 -30 -25 -30 -16 0 -26 6 -28 18 -6 30 6 49 30 45
18 -2 23 -9 23 -33z"/>
<path d="M7003 3805 c0 -27 2 -38 4 -22 2 15 2 37 0 50 -2 12 -4 0 -4 -28z"/>
<path d="M7041 3836 c-12 -15 -2 -27 32 -39 26 -10 10 -30 -19 -24 -13 2 -21
0 -18 -4 8 -14 40 -11 53 5 12 15 2 27 -33 40 -22 7 -12 21 19 29 19 4 19 5
-1 6 -12 0 -27 -5 -33 -13z"/>
<path d="M3148 2693 c7 -3 16 -2 19 1 4 3 -2 6 -13 5 -11 0 -14 -3 -6 -6z"/>
<path d="M3952 2646 c-2 -55 -1 -58 13 -40 14 18 16 18 29 2 20 -27 29 -22 11
6 -11 16 -13 26 -6 31 6 3 11 11 11 17 0 6 -8 4 -18 -5 -26 -24 -30 -22 -35
16 -2 19 -4 8 -5 -27z"/>
<path d="M3115 2679 c-4 -6 -5 -12 -2 -15 2 -3 7 2 10 11 7 17 1 20 -8 4z"/>
<path d="M3487 2677 c-6 -17 20 -65 42 -76 14 -8 24 -4 45 18 42 44 32 65 -31
67 -32 2 -53 -2 -56 -9z"/>
<path d="M3671 2638 c1 -29 3 -45 6 -35 2 9 9 17 15 17 6 0 20 -8 31 -17 19
-17 20 -17 10 1 -8 14 -8 25 0 37 14 23 -7 49 -39 49 -22 0 -24 -4 -23 -52z
m43 36 c21 -8 20 -30 -1 -38 -21 -8 -38 8 -30 28 7 18 9 18 31 10z"/>
<path d="M4129 2673 c-5 -39 12 -83 33 -83 6 0 5 6 -2 14 -6 8 -10 27 -8 42 2
16 -2 29 -9 31 -7 3 -13 1 -14 -4z"/>
<path d="M4448 2674 c-10 -9 8 -78 20 -82 11 -3 11 -1 0 17 -10 16 -10 25 -1
40 10 15 9 20 -1 24 -8 3 -16 4 -18 1z"/>
<path d="M3217 2663 c-3 -5 8 -8 23 -8 15 0 26 3 23 8 -2 4 -13 7 -23 7 -10 0
-21 -3 -23 -7z"/>
<path d="M3302 2626 c1 -38 2 -38 5 -8 5 37 26 51 48 32 10 -9 15 -9 15 -1 0
12 -3 13 -42 16 -27 2 -28 0 -26 -39z"/>
<path d="M3392 2664 c11 -3 18 -19 21 -42 l4 -37 -1 40 c-1 32 -5 40 -21 42
-15 1 -15 0 -3 -3z"/>
<path d="M3776 2654 c-9 -8 -16 -19 -16 -24 0 -9 28 -40 36 -40 18 0 44 24 44
40 0 11 -9 24 -19 30 -25 13 -27 13 -45 -6z m44 -24 c0 -13 -7 -20 -20 -20
-13 0 -20 7 -20 20 0 13 7 20 20 20 13 0 20 -7 20 -20z"/>
<path d="M3878 2659 c-10 -5 -18 -19 -18 -29 0 -22 35 -44 53 -33 8 5 3 9 -13
13 -31 7 -33 34 -2 38 12 2 20 8 17 13 -8 11 -15 11 -37 -2z"/>
<path d="M4046 2654 c-9 -8 -16 -19 -16 -24 0 -10 29 -40 38 -40 4 0 14 5 22
11 13 9 13 10 0 8 -27 -3 -40 1 -40 11 0 6 11 10 25 10 28 0 34 24 9 34 -21 8
-20 8 -38 -10z m37 -11 c-7 -2 -19 -2 -25 0 -7 3 -2 5 12 5 14 0 19 -2 13 -5z"/>
<path d="M4203 2663 c-16 -6 -17 -33 -2 -33 5 0 7 5 4 10 -3 6 3 10 15 10 12
0 18 5 15 10 -7 11 -13 11 -32 3z"/>
<path d="M4276 2654 c-9 -8 -16 -19 -16 -24 0 -10 29 -40 38 -40 4 0 14 5 22
11 13 9 13 10 0 8 -27 -3 -40 1 -40 11 0 6 11 10 25 10 28 0 34 24 9 34 -21 8
-20 8 -38 -10z m37 -11 c-7 -2 -19 -2 -25 0 -7 3 -2 5 12 5 14 0 19 -2 13 -5z"/>
<path d="M4365 2660 c-3 -5 3 -10 14 -10 12 0 21 -4 21 -10 0 -5 -9 -10 -19
-10 -44 0 -28 -35 17 -38 16 0 22 5 22 19 0 44 -38 77 -55 49z m35 -44 c0 -11
-19 -15 -25 -6 -3 5 1 10 9 10 9 0 16 -2 16 -4z"/>
<path d="M3110 2624 c0 -18 27 -36 47 -31 14 4 14 5 -4 6 -12 0 -27 9 -32 19
-6 9 -11 12 -11 6z"/>
<path d="M4223 2618 c1 -8 -6 -12 -18 -10 -16 3 -17 1 -8 -8 6 -7 19 -10 27
-7 17 7 22 37 6 37 -5 0 -9 -6 -7 -12z"/>
<path d="M3217 2598 c2 -5 13 -8 23 -8 10 0 21 3 23 8 3 4 -8 7 -23 7 -15 0
-26 -3 -23 -7z"/>
<path d="M7050 2454 c0 -21 -4 -24 -20 -19 -31 10 -60 -12 -60 -45 0 -34 12
-43 62 -46 l38 -2 0 69 c0 39 -4 69 -10 69 -5 0 -10 -12 -10 -26z m-10 -50
c11 -12 10 -18 -3 -32 -16 -15 -18 -15 -34 0 -13 14 -14 20 -3 32 7 9 16 16
20 16 4 0 13 -7 20 -16z"/>
<path d="M7100 2465 c0 -9 5 -15 11 -13 6 2 11 8 11 13 0 5 -5 11 -11 13 -6 2
-11 -4 -11 -13z"/>
<path d="M7479 2464 c-7 -8 0 -11 22 -10 18 1 34 6 36 11 4 14 -47 12 -58 -1z"/>
<path d="M6680 2405 c0 -37 4 -65 10 -65 6 0 10 17 10 38 l1 37 24 -30 25 -30
25 30 24 30 1 -37 c0 -21 5 -38 10 -38 6 0 10 28 10 65 0 36 -4 65 -10 65 -5
0 -20 -18 -32 -40 -13 -22 -25 -40 -28 -40 -3 0 -15 18 -28 40 -12 22 -27 40
-32 40 -6 0 -10 -29 -10 -65z"/>
<path d="M7157 2448 c-6 -18 4 -81 16 -95 11 -15 47 -17 47 -3 0 6 -7 10 -15
10 -19 0 -21 56 -3 62 9 3 8 9 -4 21 -20 20 -35 22 -41 5z"/>
<path d="M6868 2429 c-26 -14 -23 -65 3 -79 23 -13 73 -5 64 9 -3 5 -14 7 -24
4 -10 -3 -22 0 -25 6 -5 7 5 11 28 11 40 0 47 17 18 43 -21 19 -39 21 -64 6z
m47 -19 c4 -6 -5 -10 -20 -10 -15 0 -24 4 -20 10 3 6 12 10 20 10 8 0 17 -4
20 -10z"/>
<path d="M7100 2390 c0 -38 4 -50 15 -50 11 0 15 12 15 50 0 38 -4 50 -15 50
-11 0 -15 -12 -15 -50z"/>
<path d="M7253 2433 c-23 -9 -14 -24 11 -17 13 3 27 1 30 -5 4 -6 -1 -11 -11
-11 -11 0 -28 -6 -38 -14 -29 -21 -4 -45 46 -44 37 0 39 2 39 33 0 50 -34 76
-77 58z m42 -63 c-3 -5 -13 -10 -21 -10 -8 0 -14 5 -14 10 0 6 9 10 21 10 11
0 17 -4 14 -10z"/>
<path d="M7366 2424 c-23 -22 -20 -47 10 -79 20 -22 23 -30 12 -36 -10 -7 -10
-9 3 -9 22 0 31 11 18 26 -7 9 -5 14 10 19 29 9 26 27 -2 20 -15 -4 -28 -1
-36 9 -19 23 4 49 36 41 26 -6 32 9 7 19 -25 10 -42 7 -58 -10z"/>
<path d="M7470 2430 c-16 -10 -8 -13 28 -10 33 2 27 -17 -8 -23 -21 -5 -30
-12 -30 -27 0 -22 0 -22 53 -25 36 -2 37 -2 37 34 0 21 -5 42 -12 49 -14 14
-47 15 -68 2z m55 -60 c-3 -5 -13 -10 -21 -10 -8 0 -14 5 -14 10 0 6 9 10 21
10 11 0 17 -4 14 -10z"/>
<path d="M7598 2429 c-28 -16 -23 -67 7 -81 38 -17 75 3 75 41 0 43 -42 64
-82 40z m52 -25 c11 -12 10 -18 -3 -32 -16 -15 -18 -15 -34 0 -13 14 -14 20
-3 32 7 9 16 16 20 16 4 0 13 -7 20 -16z"/>
<path d="M7203 2105 c0 -38 2 -53 4 -32 2 20 2 52 0 70 -2 17 -4 1 -4 -38z"/>
<path d="M6680 2095 c0 -32 2 -56 4 -54 8 7 10 98 3 105 -4 4 -7 -19 -7 -51z"/>
<path d="M6933 2085 c0 -27 2 -38 4 -22 2 15 2 37 0 50 -2 12 -4 0 -4 -28z"/>
<path d="M7038 2123 c6 -2 18 -2 25 0 6 3 1 5 -13 5 -14 0 -19 -2 -12 -5z"/>
<path d="M7418 2123 c7 -3 16 -2 19 1 4 3 -2 6 -13 5 -11 0 -14 -3 -6 -6z"/>
<path d="M6030 2105 c0 -8 5 -15 10 -15 6 0 10 7 10 15 0 8 -4 15 -10 15 -5 0
-10 -7 -10 -15z"/>
<path d="M5962 2094 c-12 -8 -29 -28 -37 -44 -17 -34 -20 -112 -4 -141 8 -17
6 -24 -15 -40 -15 -12 -32 -41 -41 -72 -8 -28 -29 -68 -45 -89 -30 -37 -38
-72 -20 -83 6 -3 10 -21 10 -40 0 -60 19 -65 230 -65 211 0 230 5 230 65 0 19
5 37 10 40 18 11 10 46 -20 83 -16 21 -37 61 -45 89 -9 31 -26 60 -41 72 -21
16 -23 23 -15 40 30 55 2 164 -49 191 -38 21 -42 -1 -6 -36 32 -31 36 -41 36
-83 0 -30 -6 -53 -14 -60 -12 -10 -13 -6 -4 29 12 45 0 70 -33 70 -12 0 -19 7
-19 20 0 11 -4 20 -10 20 -5 0 -14 -9 -20 -20 -7 -13 -21 -20 -40 -20 -39 0
-54 -28 -41 -76 8 -30 8 -34 -5 -23 -8 7 -14 30 -14 60 0 42 5 52 35 82 19 19
32 37 28 40 -9 10 -16 9 -41 -9z m119 -104 c13 0 11 -54 -3 -68 -7 -7 -24 -12
-38 -12 -33 0 -50 17 -50 51 0 22 5 28 28 32 15 2 33 2 40 0 8 -1 18 -3 23 -3z
m-77 -135 c21 -32 51 -32 72 0 12 19 22 24 38 19 29 -9 76 -54 76 -73 0 -9 9
-36 21 -60 17 -38 18 -47 6 -58 -12 -12 -16 -11 -29 9 -8 13 -20 40 -27 61 -7
20 -17 37 -21 37 -5 0 -10 -35 -12 -77 l-3 -78 -85 0 -85 0 -3 78 c-2 42 -7
77 -12 77 -4 0 -14 -17 -21 -37 -7 -21 -19 -48 -27 -61 -13 -20 -17 -21 -29
-9 -12 11 -11 20 6 58 12 24 21 51 21 60 0 24 59 74 91 78 4 1 14 -10 23 -24z
m56 15 c0 -5 -9 -10 -20 -10 -11 0 -20 5 -20 10 0 6 9 10 20 10 11 0 20 -4 20
-10z m-130 -200 c0 -23 -4 -30 -20 -30 -24 0 -25 5 -2 35 22 31 22 31 22 -5z
m260 -24 c0 -3 -9 -6 -20 -6 -16 0 -20 7 -20 31 l0 32 20 -26 c11 -14 20 -28
20 -31z m-340 3 c0 -12 -27 -11 -35 1 -11 17 5 32 21 19 8 -6 14 -15 14 -20z
m416 2 c-8 -13 -36 -15 -36 -3 0 4 5 13 12 20 14 14 34 0 24 -17z m-369 -49
c-10 -10 -17 -28 -17 -39 0 -27 -36 -20 -45 9 -9 27 12 48 48 48 29 0 29 -1
14 -18z m343 3 c6 -8 9 -23 5 -34 -8 -25 -47 -33 -135 -29 -62 3 -65 4 -68 30
-3 24 0 27 40 32 24 3 54 7 68 10 54 8 78 5 90 -9z m-222 -32 c-3 -26 -7 -28
-49 -31 -32 -2 -50 2 -59 13 -18 21 -4 33 45 38 22 2 46 4 53 5 9 1 12 -7 10
-25z"/>
<path d="M7430 2090 c-23 -7 -23 -8 -3 -9 14 -1 23 -9 26 -23 3 -17 5 -14 6
10 0 17 0 32 -1 31 -2 -1 -14 -5 -28 -9z"/>
<path d="M6848 2083 c12 -2 30 -2 40 0 9 3 -1 5 -23 4 -22 0 -30 -2 -17 -4z"/>
<path d="M7128 2083 c6 -2 18 -2 25 0 6 3 1 5 -13 5 -14 0 -19 -2 -12 -5z"/>
<path d="M7618 2083 c12 -2 30 -2 40 0 9 3 -1 5 -23 4 -22 0 -30 -2 -17 -4z"/>
<path d="M7869 1748 c-1 -13 -2 -40 -3 -61 -2 -21 1 -40 6 -43 4 -3 8 24 8 60
0 36 -2 66 -5 66 -3 0 -5 -10 -6 -22z"/>
<path d="M8013 1705 c0 -38 2 -53 4 -32 2 20 2 52 0 70 -2 17 -4 1 -4 -38z"/>
<path d="M10180 1746 c0 -19 -4 -23 -20 -19 -26 7 -50 -13 -50 -42 0 -29 20
-46 54 -43 25 2 26 4 26 65 0 35 -2 63 -5 63 -3 0 -5 -11 -5 -24z m-5 -61 c0
-25 -4 -30 -25 -30 -16 0 -26 6 -28 18 -6 30 6 49 30 45 18 -2 23 -9 23 -33z"/>
<path d="M11043 1705 c0 -38 2 -53 4 -32 2 20 2 52 0 70 -2 17 -4 1 -4 -38z"/>
<path d="M6682 1703 l-2 -63 38 2 c36 1 36 1 5 5 -31 4 -32 5 -36 61 l-3 57
-2 -62z"/>
<path d="M11280 1700 l0 -60 43 2 42 1 -37 4 c-32 4 -38 8 -38 28 0 19 6 24
33 28 l32 4 -32 1 c-25 2 -33 7 -33 21 0 15 8 21 33 24 31 4 31 4 -5 5 l-38 2
0 -60z"/>
<path d="M8388 1738 c-2 -7 -1 -29 3 -48 l6 -35 2 33 c1 23 6 32 19 33 13 0
14 2 2 6 -8 3 -18 10 -21 15 -3 5 -8 4 -11 -4z"/>
<path d="M9578 1738 c-2 -6 -1 -29 2 -52 4 -31 10 -41 25 -43 16 -1 16 -1 3 3
-13 4 -18 16 -18 39 0 18 4 35 9 37 5 2 3 8 -4 15 -10 9 -15 9 -17 1z"/>
<path d="M9738 1738 c-2 -6 -1 -29 2 -52 4 -31 10 -41 25 -43 16 -1 16 -1 3 3
-13 4 -18 16 -18 39 0 18 4 35 9 37 5 2 3 8 -4 15 -10 9 -15 9 -17 1z"/>
<path d="M11128 1738 c-2 -7 -1 -29 3 -48 l6 -35 2 33 c1 23 6 32 19 33 13 0
14 2 2 6 -8 3 -18 10 -21 15 -3 5 -8 4 -11 -4z"/>
<path d="M6779 1713 c-12 -16 -12 -17 1 -7 8 6 22 14 30 17 13 5 12 6 -1 6 -9
1 -23 -7 -30 -16z"/>
<path d="M6870 1685 c0 -27 2 -46 4 -44 8 8 10 78 3 85 -4 4 -7 -14 -7 -41z"/>
<path d="M6942 1718 c-27 -27 -7 -78 29 -78 10 0 20 4 23 8 2 4 -7 8 -21 7
-43 0 -39 23 4 28 l38 4 -37 1 c-42 2 -50 18 -15 32 13 5 16 9 7 9 -9 1 -21
-4 -28 -11z"/>
<path d="M7030 1685 c0 -27 2 -46 4 -44 8 8 10 78 3 85 -4 4 -7 -14 -7 -41z"/>
<path d="M7078 1720 c17 -7 22 -18 23 -47 l2 -38 6 40 c5 31 10 40 26 40 16 0
21 -9 26 -40 l6 -40 2 36 c1 45 -21 69 -49 51 -12 -7 -21 -8 -25 -2 -3 6 -14
10 -23 9 -12 0 -11 -3 6 -9z"/>
<path d="M7253 1685 c0 -27 2 -38 4 -22 2 15 2 37 0 50 -2 12 -4 0 -4 -28z"/>
<path d="M7290 1670 c0 -35 2 -61 6 -58 8 8 9 106 1 114 -4 4 -7 -21 -7 -56z"/>
<path d="M7338 1720 c12 -5 22 -15 22 -21 0 -7 3 -9 6 -6 10 10 -16 37 -35 36
-11 0 -9 -3 7 -9z"/>
<path d="M7401 1716 c-12 -15 -2 -27 32 -39 26 -10 10 -30 -19 -24 -13 2 -21
0 -18 -4 8 -14 40 -11 53 4 12 15 -3 37 -25 37 -24 0 -25 20 -2 29 15 7 17 10
7 10 -9 1 -22 -5 -28 -13z"/>
<path d="M7482 1699 c-1 -22 4 -42 13 -49 16 -13 55 -5 55 12 0 6 -6 6 -15 -2
-24 -20 -43 -4 -48 37 l-4 38 -1 -36z"/>
<path d="M7591 1680 l2 -45 6 40 c5 31 10 40 26 40 16 0 21 -8 25 -40 l6 -40
5 42 c2 23 1 39 -3 37 -3 -2 -9 0 -13 6 -3 5 -17 9 -30 8 -23 -2 -25 -6 -24
-48z"/>
<path d="M7690 1723 c8 -3 19 -11 23 -17 6 -7 7 -6 4 4 -2 8 -12 16 -23 17
-13 2 -15 1 -4 -4z"/>
<path d="M7810 1720 c-24 -15 -7 -18 20 -3 14 7 18 13 10 13 -8 0 -22 -4 -30
-10z"/>
<path d="M7919 1713 c-12 -16 -12 -17 1 -7 8 6 22 14 30 17 13 5 12 6 -1 6 -9
1 -23 -7 -30 -16z"/>
<path d="M8060 1716 c-28 -35 11 -93 48 -70 35 22 22 84 -18 84 -10 0 -23 -7
-30 -14z m55 -31 c0 -25 -4 -30 -25 -30 -16 0 -26 6 -28 18 -6 30 6 49 30 45
18 -2 23 -9 23 -33z"/>
<path d="M8162 1680 c1 -40 2 -41 5 -10 2 19 11 40 20 47 13 10 13 12 -6 10
-18 -1 -21 -7 -19 -47z"/>
<path d="M8264 1715 c-8 -20 4 -35 27 -35 25 0 25 -27 -1 -33 -17 -4 -16 -4 2
-3 32 2 32 40 1 44 -13 2 -23 10 -23 17 0 7 10 16 23 18 l22 4 -23 2 c-12 0
-25 -6 -28 -14z"/>
<path d="M8528 1720 c30 -13 28 -28 -5 -32 -20 -2 -28 -9 -28 -23 0 -16 7 -20
33 -21 30 -1 32 1 32 31 0 34 -15 55 -39 54 -10 0 -7 -4 7 -9z m20 -52 c-7
-20 -48 -23 -48 -4 0 11 9 16 26 16 16 0 24 -5 22 -12z"/>
<path d="M8613 1723 c-7 -2 -13 -9 -13 -15 0 -6 6 -6 15 2 25 20 45 4 46 -37
l2 -38 6 40 c5 31 11 41 28 43 19 3 22 -2 26 -40 l4 -43 1 43 c2 47 -16 64
-49 44 -11 -7 -20 -8 -24 -2 -7 11 -22 12 -42 3z"/>
<path d="M8772 1718 c-27 -27 -7 -78 29 -78 10 0 20 4 23 8 2 4 -7 8 -21 7
-43 0 -39 23 4 28 l38 4 -37 1 c-42 2 -50 18 -15 32 13 5 16 9 7 9 -9 1 -21
-4 -28 -11z"/>
<path d="M8863 1723 c9 -2 23 -2 30 0 6 3 -1 5 -18 5 -16 0 -22 -2 -12 -5z"/>
<path d="M9012 1718 c-27 -27 -7 -78 29 -78 10 0 20 4 23 8 2 4 -8 8 -22 7
-23 0 -27 4 -27 30 0 26 4 30 27 30 14 -1 24 3 22 7 -8 12 -38 10 -52 -4z"/>
<path d="M9100 1716 c-28 -35 11 -93 48 -70 35 22 22 84 -18 84 -10 0 -23 -7
-30 -14z m55 -31 c0 -25 -4 -30 -25 -30 -16 0 -26 6 -28 18 -6 30 6 49 30 45
18 -2 23 -9 23 -33z"/>
<path d="M9200 1685 c0 -27 2 -46 4 -44 8 8 10 78 3 85 -4 4 -7 -14 -7 -41z"/>
<path d="M9230 1726 c0 -2 9 -6 20 -9 11 -3 18 -1 14 4 -5 9 -34 13 -34 5z"/>
<path d="M9304 1715 c-8 -20 4 -35 27 -35 25 0 25 -27 -1 -33 -17 -4 -16 -4 2
-3 32 2 32 40 1 44 -13 2 -23 10 -23 17 0 7 10 16 23 18 l22 4 -23 2 c-12 0
-25 -6 -28 -14z"/>
<path d="M9392 1718 c-27 -27 -7 -78 29 -78 10 0 20 4 23 8 2 4 -7 8 -21 7
-14 0 -28 6 -30 13 -3 8 7 12 31 12 20 0 36 4 36 8 0 4 -16 6 -35 4 -40 -5
-48 13 -12 28 13 5 16 9 7 9 -9 1 -21 -4 -28 -11z"/>
<path d="M9492 1718 c-27 -27 -7 -78 29 -78 10 0 20 4 23 8 2 4 -8 8 -22 7
-23 0 -27 4 -27 30 0 26 4 30 27 30 14 -1 24 3 22 7 -8 12 -38 10 -52 -4z"/>
<path d="M9678 1720 c31 -13 27 -30 -8 -30 -23 0 -28 4 -24 18 3 10 0 8 -7 -4
-8 -17 -8 -27 1 -40 10 -17 11 -17 6 -1 -4 14 1 17 29 17 22 0 35 5 35 13 0
18 -21 37 -39 36 -10 0 -7 -4 7 -9z"/>
<path d="M9868 1689 c-2 -22 0 -43 4 -45 4 -3 8 15 8 40 0 57 -7 60 -12 5z"/>
<path d="M9910 1685 c0 -27 2 -46 4 -44 8 8 10 78 3 85 -4 4 -7 -14 -7 -41z"/>
<path d="M10026 1722 c-3 -5 6 -7 19 -4 18 3 25 0 25 -12 0 -9 -8 -16 -18 -16
-27 0 -44 -21 -31 -37 7 -7 19 -13 28 -12 10 0 8 3 -7 10 -26 10 -21 29 8 29
11 0 20 -9 23 -22 3 -13 4 -3 3 22 -1 38 -4 45 -23 48 -11 2 -24 -1 -27 -6z"/>
<path d="M10270 1670 c0 -35 2 -61 6 -58 8 8 9 106 1 114 -4 4 -7 -21 -7 -56z"/>
<path d="M10318 1720 c12 -5 22 -15 22 -21 0 -7 3 -9 6 -6 10 10 -16 37 -35
36 -11 0 -9 -3 7 -9z"/>
<path d="M10383 1685 c0 -27 2 -38 4 -22 2 15 2 37 0 50 -2 12 -4 0 -4 -28z"/>
<path d="M10421 1716 c-12 -15 -2 -27 32 -39 26 -10 10 -30 -19 -24 -13 2 -21
0 -18 -4 8 -14 40 -11 53 5 12 15 2 27 -33 40 -22 7 -12 21 19 29 19 4 19 5
-1 6 -12 0 -27 -5 -33 -13z"/>
<path d="M10503 1685 c0 -27 2 -38 4 -22 2 15 2 37 0 50 -2 12 -4 0 -4 -28z"/>
<path d="M10552 1718 c-27 -27 -7 -78 29 -78 10 0 20 4 23 8 2 4 -8 8 -22 7
-23 0 -27 4 -27 30 0 26 4 30 27 30 14 -1 24 3 22 7 -8 12 -38 10 -52 -4z"/>
<path d="M10643 1685 c0 -27 2 -38 4 -22 2 15 2 37 0 50 -2 12 -4 0 -4 -28z"/>
<path d="M10680 1685 c0 -27 2 -46 4 -44 8 8 10 78 3 85 -4 4 -7 -14 -7 -41z"/>
<path d="M10728 1720 c17 -7 22 -18 24 -47 l1 -38 4 33 c5 37 -10 62 -36 61
-11 0 -9 -3 7 -9z"/>
<path d="M10800 1720 c-24 -15 -7 -18 20 -3 14 7 18 13 10 13 -8 0 -22 -4 -30
-10z"/>
<path d="M10859 1723 c0 -5 -2 -23 -3 -41 -2 -18 0 -35 5 -38 5 -3 9 15 9 40
0 25 -2 46 -5 46 -3 0 -5 -3 -6 -7z"/>
<path d="M10952 1718 c-27 -27 -7 -78 29 -78 10 0 20 4 23 8 2 4 -7 8 -21 7
-43 0 -39 23 4 28 l38 4 -37 1 c-42 2 -50 18 -15 32 13 5 16 9 7 9 -9 1 -21
-4 -28 -11z"/>
<path d="M11093 1685 c0 -27 2 -38 4 -22 2 15 2 37 0 50 -2 12 -4 0 -4 -28z"/>
<path d="M11383 1723 c9 -2 23 -2 30 0 6 3 -1 5 -18 5 -16 0 -22 -2 -12 -5z"/>
<path d="M6834 1684 c0 -30 2 -33 9 -16 5 12 5 26 0 36 -7 12 -9 7 -9 -20z"/>
<path d="M7974 1684 c0 -30 2 -33 9 -16 5 12 5 26 0 36 -7 12 -9 7 -9 -20z"/>
<path d="M9272 1670 c0 -19 2 -27 5 -17 2 9 2 25 0 35 -3 9 -5 1 -5 -18z"/>
<path d="M7360 1671 c0 -6 -10 -16 -22 -21 -16 -6 -18 -9 -7 -9 19 -1 45 26
35 36 -3 3 -6 1 -6 -6z"/>
<path d="M10340 1671 c0 -6 -10 -16 -22 -21 -16 -6 -18 -9 -7 -9 19 -1 45 26
35 36 -3 3 -6 1 -6 -6z"/>
<path d="M6782 1654 c9 -9 21 -15 27 -13 6 2 -2 10 -17 17 -25 11 -25 11 -10
-4z"/>
<path d="M7800 1660 c0 -9 39 -25 45 -18 2 2 -7 8 -21 15 -13 6 -24 7 -24 3z"/>
<path d="M7922 1654 c9 -9 21 -15 27 -13 6 2 -2 10 -17 17 -25 11 -25 11 -10
-4z"/>
<path d="M9813 1660 c2 -8 12 -16 23 -17 13 -2 15 -1 4 4 -8 3 -19 11 -23 17
-6 7 -7 6 -4 -4z"/>
<path d="M10802 1654 c9 -9 21 -15 27 -13 6 2 -2 10 -17 17 -25 11 -25 11 -10
-4z"/>
<path d="M8870 1650 c0 -6 7 -10 15 -10 8 0 15 2 15 4 0 2 -7 6 -15 10 -8 3
-15 1 -15 -4z"/>
<path d="M11390 1650 c0 -6 7 -10 15 -10 8 0 15 2 15 4 0 2 -7 6 -15 10 -8 3
-15 1 -15 -4z"/>
<path d="M8408 1643 c7 -3 16 -2 19 1 4 3 -2 6 -13 5 -11 0 -14 -3 -6 -6z"/>
<path d="M9668 1643 c7 -3 16 -2 19 1 4 3 -2 6 -13 5 -11 0 -14 -3 -6 -6z"/>
<path d="M11148 1643 c7 -3 16 -2 19 1 4 3 -2 6 -13 5 -11 0 -14 -3 -6 -6z"/>
<path d="M10797 1618 c2 -5 15 -8 28 -8 13 0 26 3 28 8 3 4 -10 7 -28 7 -18 0
-31 -3 -28 -7z"/>
<path d="M6891 1470 c-1 -64 0 -66 25 -68 34 -3 54 14 54 43 0 28 -24 49 -49
42 -15 -4 -21 1 -24 22 -2 14 -5 -3 -6 -39z m64 -25 c0 -25 -4 -30 -25 -30
-16 0 -26 6 -28 18 -6 30 6 49 30 45 18 -2 23 -9 23 -33z"/>
<path d="M6681 1441 l2 -46 6 40 c5 31 11 41 28 43 19 3 22 -2 26 -40 l4 -43
-1 45 c-1 44 -2 45 -33 46 -33 1 -33 1 -32 -45z"/>
<path d="M6790 1476 c-28 -35 11 -93 48 -70 35 22 22 84 -18 84 -10 0 -23 -7
-30 -14z m55 -31 c0 -25 -4 -30 -25 -30 -16 0 -26 6 -28 18 -6 30 6 49 30 45
18 -2 23 -9 23 -33z"/>
<path d="M7003 1445 c0 -27 2 -38 4 -22 2 15 2 37 0 50 -2 12 -4 0 -4 -28z"/>
<path d="M7041 1476 c-12 -15 -2 -27 32 -39 26 -10 10 -30 -19 -24 -13 2 -21
0 -18 -4 8 -14 40 -11 53 5 12 15 2 27 -33 40 -22 7 -12 21 19 29 19 4 19 5
-1 6 -12 0 -27 -5 -33 -13z"/>
</g>
</svg>
