<?xml version="1.0" standalone="no"?>
<!DOCTYPE svg PUBLIC "-//W3C//DTD SVG 20010904//EN"
 "http://www.w3.org/TR/2001/REC-SVG-20010904/DTD/svg10.dtd">
<svg version="1.0" xmlns="http://www.w3.org/2000/svg"
 width="1440.000000pt" height="790.000000pt" viewBox="0 0 1440.000000 790.000000"
 preserveAspectRatio="xMidYMid meet">

<g transform="translate(0.000000,790.000000) scale(0.100000,-0.100000)"
fill="#000000" stroke="none">
<path d="M3597 7893 c1982 -2 5224 -2 7205 0 1982 1 361 2 -3602 2 -3963 0
-5584 -1 -3603 -2z"/>
<path d="M2870 7442 c-43 -21 -60 -53 -60 -112 0 -90 65 -141 161 -125 62 11
50 33 -16 27 -50 -4 -57 -2 -85 26 -22 22 -30 40 -30 66 0 77 43 113 125 104
32 -4 45 -2 45 7 0 28 -89 33 -140 7z"/>
<path d="M3140 7440 c-13 -24 -100 -231 -100 -237 0 -3 7 -3 16 -1 9 2 32 44
57 105 23 56 44 104 47 107 3 2 15 -20 27 -50 l21 -54 -34 0 c-24 0 -34 -5
-34 -15 0 -11 11 -15 41 -15 38 0 42 -2 56 -40 14 -36 43 -56 43 -30 0 26
-100 245 -114 248 -8 2 -20 -6 -26 -18z"/>
<path d="M3363 7453 c-28 -5 -53 -39 -53 -70 0 -38 34 -63 84 -63 66 0 96 -38
59 -75 -13 -13 -30 -16 -75 -13 -40 3 -58 1 -58 -8 0 -15 72 -26 116 -18 90
17 84 134 -7 134 -69 0 -108 40 -73 75 14 13 30 16 76 13 40 -3 58 -1 58 8 0
19 -68 28 -127 17z"/>
<path d="M3581 7340 c-55 -132 -58 -140 -38 -140 8 0 32 46 57 110 24 61 45
110 46 110 4 0 28 -55 38 -88 6 -19 4 -22 -22 -22 -17 0 -32 -6 -36 -15 -4
-12 4 -15 38 -15 41 0 44 -2 59 -40 9 -23 22 -40 31 -40 9 0 16 3 16 8 0 4
-24 61 -53 127 -32 74 -58 121 -68 123 -13 2 -29 -27 -68 -118z"/>
<path d="M3864 7446 c-45 -20 -64 -52 -64 -111 0 -96 63 -146 161 -130 59 10
47 20 -19 17 -47 -3 -62 0 -84 18 -62 48 -54 163 13 190 15 7 51 10 78 8 57
-3 68 6 20 16 -46 9 -70 7 -105 -8z"/>
<path d="M4050 7330 c0 -80 4 -130 10 -130 6 0 10 47 10 120 l0 120 53 0 c57
0 77 -12 77 -45 0 -23 -28 -55 -48 -55 -26 0 -21 -24 19 -80 37 -53 59 -73 59
-53 0 3 -18 30 -40 59 l-39 52 35 21 c32 19 35 25 32 58 -4 47 -31 63 -110 63
l-58 0 0 -130z"/>
<path d="M4280 7330 c0 -80 4 -130 10 -130 6 0 10 50 10 130 0 80 -4 130 -10
130 -6 0 -10 -50 -10 -130z"/>
<path d="M4405 7348 c-65 -145 -66 -148 -56 -148 4 0 32 54 61 121 l54 121 28
-63 c15 -34 28 -65 28 -70 0 -4 -24 -10 -52 -12 l-53 -3 58 -2 58 -2 19 -45
c11 -25 24 -45 30 -45 11 0 9 6 -61 163 -24 53 -48 97 -54 97 -6 0 -33 -50
-60 -112z"/>
<path d="M4600 7450 c0 -5 18 -10 40 -10 l40 0 0 -120 c0 -73 4 -120 10 -120
6 0 10 47 10 120 l0 120 45 0 c25 0 45 5 45 10 0 6 -38 10 -95 10 -57 0 -95
-4 -95 -10z"/>
<path d="M4834 7330 c0 -74 1 -105 3 -67 2 37 2 97 0 135 -2 37 -3 6 -3 -68z"/>
<path d="M4890 7456 c0 -21 111 -252 122 -254 15 -3 127 243 115 254 -6 6 -29
-40 -84 -171 -14 -33 -26 -61 -28 -63 -1 -1 -26 51 -56 118 -29 66 -57 120
-61 120 -4 0 -8 -2 -8 -4z"/>
<path d="M5221 7363 c-70 -159 -72 -163 -63 -163 5 0 33 55 62 121 l53 122 23
-51 c41 -94 42 -90 -18 -95 l-53 -3 58 -2 58 -2 19 -45 c11 -25 24 -45 29 -45
11 0 -1 32 -64 168 -24 50 -48 92 -53 92 -5 0 -28 -44 -51 -97z"/>
<path d="M9400 7260 c0 -5 5 -10 10 -10 6 0 10 5 10 10 0 6 -4 10 -10 10 -5 0
-10 -4 -10 -10z"/>
<path d="M9790 7249 c0 -11 -5 -17 -10 -14 -22 14 -50 -6 -50 -36 0 -16 3 -30
8 -30 4 -1 22 -3 40 -5 l32 -2 0 54 c0 30 -4 54 -10 54 -5 0 -10 -9 -10 -21z
m-5 -49 c0 -8 -8 -16 -17 -18 -13 -2 -18 3 -18 18 0 15 5 20 18 18 9 -2 17
-10 17 -18z"/>
<path d="M9920 7260 c0 -5 5 -10 10 -10 6 0 10 5 10 10 0 6 -4 10 -10 10 -5 0
-10 -4 -10 -10z"/>
<path d="M9130 7210 c0 -27 5 -50 10 -50 6 0 10 23 10 50 0 28 -4 50 -10 50
-5 0 -10 -22 -10 -50z"/>
<path d="M9680 7210 c0 -27 5 -50 10 -50 6 0 10 23 10 50 0 28 -4 50 -10 50
-5 0 -10 -22 -10 -50z"/>
<path d="M9170 7199 c0 -44 17 -53 22 -12 2 17 10 29 21 31 13 3 17 -3 17 -27
0 -17 5 -31 10 -31 14 0 12 56 -2 68 -7 5 -25 10 -40 10 -26 0 -28 -4 -28 -39z"/>
<path d="M9270 7200 c0 -22 5 -40 10 -40 6 0 10 18 10 40 0 22 -4 40 -10 40
-5 0 -10 -18 -10 -40z"/>
<path d="M9320 7225 c-25 -30 9 -76 46 -60 17 7 17 8 -6 14 -31 9 -33 35 -2
39 12 2 20 8 17 13 -9 14 -41 11 -55 -6z"/>
<path d="M9400 7200 c0 -22 5 -40 10 -40 6 0 10 18 10 40 0 22 -4 40 -10 40
-5 0 -10 -18 -10 -40z"/>
<path d="M9450 7225 c-26 -32 13 -81 48 -59 34 22 22 74 -18 74 -10 0 -23 -7
-30 -15z m50 -25 c0 -11 -6 -20 -14 -20 -18 0 -29 16 -21 30 11 18 35 11 35
-10z"/>
<path d="M9843 7233 c-7 -2 -13 -18 -13 -34 0 -22 6 -30 24 -35 14 -3 31 -2
38 2 9 6 4 11 -17 15 l-30 7 28 1 c19 1 27 6 27 20 0 25 -27 37 -57 24z m34
-19 c-3 -3 -12 -4 -19 -1 -8 3 -5 6 6 6 11 1 17 -2 13 -5z"/>
<path d="M9920 7200 c0 -22 5 -40 10 -40 6 0 10 18 10 40 0 22 -4 40 -10 40
-5 0 -10 -18 -10 -40z"/>
<path d="M9965 7230 c-4 -6 6 -10 22 -11 28 -1 28 -1 3 -8 -16 -4 -25 -14 -25
-26 0 -16 7 -20 33 -22 29 -1 32 2 32 26 0 15 -5 32 -12 39 -15 15 -45 16 -53
2z m42 -46 c-3 -3 -12 -4 -19 -1 -8 3 -5 6 6 6 11 1 17 -2 13 -5z"/>
<path d="M10057 7233 c-13 -13 -7 -30 16 -41 l22 -11 -22 0 c-13 -1 -23 -6
-23 -12 0 -6 12 -9 27 -7 35 4 42 33 11 43 l-23 8 23 4 c12 2 20 9 17 14 -7
10 -39 12 -48 2z"/>
<path d="M7418 6233 c7 -3 16 -2 19 1 4 3 -2 6 -13 5 -11 0 -14 -3 -6 -6z"/>
<path d="M7498 6233 c7 -3 16 -2 19 1 4 3 -2 6 -13 5 -11 0 -14 -3 -6 -6z"/>
<path d="M7588 6233 c7 -3 16 -2 19 1 4 3 -2 6 -13 5 -11 0 -14 -3 -6 -6z"/>
<path d="M6788 6203 c12 -2 30 -2 40 0 9 3 -1 5 -23 4 -22 0 -30 -2 -17 -4z"/>
<path d="M7068 6203 c12 -2 30 -2 40 0 9 3 -1 5 -23 4 -22 0 -30 -2 -17 -4z"/>
<path d="M7498 6203 c6 -2 18 -2 25 0 6 3 1 5 -13 5 -14 0 -19 -2 -12 -5z"/>
<path d="M6798 6163 c7 -3 16 -2 19 1 4 3 -2 6 -13 5 -11 0 -14 -3 -6 -6z"/>
<path d="M7078 6163 c7 -3 16 -2 19 1 4 3 -2 6 -13 5 -11 0 -14 -3 -6 -6z"/>
<path d="M7418 6163 c7 -3 16 -2 19 1 4 3 -2 6 -13 5 -11 0 -14 -3 -6 -6z"/>
<path d="M7588 6163 c7 -3 16 -2 19 1 4 3 -2 6 -13 5 -11 0 -14 -3 -6 -6z"/>
<path d="M7245 6050 c-4 -7 -3 -16 3 -22 14 -14 45 -2 40 15 -6 16 -34 21 -43
7z"/>
<path d="M7010 6020 c0 -27 -2 -29 -28 -24 -40 8 -75 -23 -75 -66 0 -46 29
-68 93 -68 l50 0 0 94 c0 87 -1 94 -20 94 -16 0 -20 -7 -20 -30z m-16 -56 c24
-9 21 -61 -4 -69 -39 -12 -66 35 -38 63 14 14 20 14 42 6z"/>
<path d="M6830 5950 c0 -83 1 -90 20 -90 19 0 20 7 20 90 0 83 -1 90 -20 90
-19 0 -20 -7 -20 -90z"/>
<path d="M7102 5980 c-59 -55 10 -145 84 -111 29 13 22 35 -7 26 -22 -7 -59 2
-59 16 0 5 23 9 50 9 58 0 65 16 25 55 -29 30 -64 32 -93 5z m76 -27 c2 -9 -7
-13 -27 -13 -30 0 -39 9 -24 24 11 10 46 3 51 -11z"/>
<path d="M7250 5930 c0 -56 3 -70 15 -70 12 0 15 14 15 70 0 56 -3 70 -15 70
-12 0 -15 -14 -15 -70z"/>
<path d="M7337 5993 c-30 -8 -13 -28 23 -28 18 0 35 -6 37 -12 3 -8 -5 -13
-20 -13 -42 0 -57 -10 -57 -40 0 -32 13 -39 78 -38 l42 1 0 53 c0 43 -4 56
-22 68 -22 16 -45 18 -81 9z m63 -88 c0 -9 -7 -18 -16 -22 -18 -7 -39 11 -30
26 11 17 46 13 46 -4z"/>
<path d="M7488 5989 c-37 -21 -17 -64 32 -71 36 -5 21 -23 -17 -21 -40 3 -46
-23 -8 -33 34 -8 72 3 84 24 13 25 -1 43 -40 51 -39 8 -37 26 3 26 33 0 47 13
28 25 -20 13 -61 12 -82 -1z"/>
<path d="M3870 4940 c-49 -49 7 -120 74 -94 9 3 13 10 10 15 -3 5 -10 7 -15 3
-6 -3 -21 -3 -35 0 -19 5 -24 13 -24 36 0 23 5 31 24 36 14 3 29 3 35 0 5 -4
12 -2 15 3 3 5 -1 12 -10 15 -29 11 -54 6 -74 -14z"/>
<path d="M4570 4941 c0 -14 -5 -18 -20 -14 -26 7 -50 -13 -50 -42 0 -30 19
-44 58 -43 l32 1 0 59 c0 32 -4 58 -10 58 -5 0 -10 -9 -10 -19z m-2 -54 c4
-20 -25 -34 -40 -19 -15 15 -1 44 19 40 10 -2 19 -11 21 -21z"/>
<path d="M5756 4951 c-2 -3 9 -7 25 -8 16 -1 29 1 29 5 0 9 -49 12 -54 3z"/>
<path d="M8360 4900 c0 -33 4 -60 10 -60 6 0 10 6 10 14 0 26 21 29 46 5 31
-29 45 -17 16 14 -27 29 -27 35 0 64 13 14 17 23 9 23 -7 0 -22 -11 -33 -25
-11 -14 -24 -25 -29 -25 -5 0 -9 11 -9 25 0 14 -4 25 -10 25 -6 0 -10 -27 -10
-60z"/>
<path d="M8760 4900 c0 -47 3 -60 15 -60 8 0 15 7 15 15 0 8 4 15 9 15 5 0 14
-7 21 -15 7 -8 19 -15 28 -15 12 0 10 6 -8 25 -23 24 -23 25 -5 45 23 25 0 28
-27 3 -17 -15 -18 -14 -18 15 0 22 -5 32 -15 32 -12 0 -15 -13 -15 -60z"/>
<path d="M8886 4952 c-3 -5 8 -9 24 -9 16 0 27 4 24 9 -3 4 -14 8 -24 8 -10 0
-21 -4 -24 -8z"/>
<path d="M3980 4896 c0 -40 14 -53 58 -53 31 0 32 2 32 44 0 32 -4 43 -15 43
-11 0 -15 -11 -15 -36 0 -28 -3 -35 -17 -32 -12 2 -19 14 -21 36 -4 42 -22 41
-22 -2z"/>
<path d="M4090 4884 c0 -32 4 -44 15 -44 10 0 15 10 15 30 0 18 6 33 15 36 25
10 17 21 -15 22 -29 1 -30 -1 -30 -44z"/>
<path d="M4170 4915 c-15 -18 -5 -35 21 -35 10 0 19 -4 19 -10 0 -5 -12 -10
-26 -10 -14 0 -23 -4 -19 -10 9 -15 51 -12 65 5 15 18 5 35 -20 35 -10 0 -22
5 -25 10 -4 6 5 10 20 10 15 0 24 4 20 10 -9 15 -41 12 -55 -5z"/>
<path d="M4266 4914 c-9 -8 -16 -22 -16 -29 0 -19 28 -45 49 -45 19 0 51 30
51 47 0 15 -34 43 -53 43 -8 0 -23 -7 -31 -16z m54 -29 c0 -18 -5 -25 -19 -25
-11 0 -21 6 -24 13 -7 20 4 37 24 37 14 0 19 -7 19 -25z"/>
<path d="M4370 4915 c-15 -18 -5 -35 21 -35 10 0 19 -4 19 -10 0 -5 -12 -10
-26 -10 -14 0 -23 -4 -19 -10 9 -15 51 -12 65 5 15 18 5 35 -20 35 -10 0 -22
5 -25 10 -4 6 5 10 20 10 15 0 24 4 20 10 -9 15 -41 12 -55 -5z"/>
<path d="M4626 4914 c-38 -38 5 -88 58 -68 22 8 10 23 -13 17 -10 -3 -22 0
-25 6 -5 7 4 11 23 11 32 0 41 16 19 38 -17 17 -44 15 -62 -4z m47 -11 c-7 -2
-19 -2 -25 0 -7 3 -2 5 12 5 14 0 19 -2 13 -5z"/>
<path d="M4770 4869 c0 -46 3 -59 15 -59 8 0 15 9 15 19 0 14 5 18 19 14 20
-5 51 20 51 42 0 24 -29 43 -65 43 l-35 0 0 -59z m73 29 c6 -19 -3 -38 -18
-38 -18 0 -28 17 -21 35 7 18 33 20 39 3z"/>
<path d="M4890 4884 c0 -24 5 -44 10 -44 6 0 10 14 10 30 0 18 6 33 15 36 23
9 18 22 -10 22 -23 0 -25 -4 -25 -44z"/>
<path d="M4970 4916 c-15 -19 -9 -56 12 -69 26 -17 68 7 68 37 0 40 -55 61
-80 32z m58 -29 c4 -20 -25 -34 -40 -19 -15 15 -1 44 19 40 10 -2 19 -11 21
-21z"/>
<path d="M5082 4918 c-21 -21 -14 -57 12 -64 14 -3 30 -3 37 1 7 5 10 3 7 -6
-3 -8 -17 -14 -31 -14 -38 -1 -44 -13 -12 -21 43 -11 60 6 63 63 l3 50 -34 1
c-19 1 -39 -4 -45 -10z m56 -25 c5 -17 -26 -29 -40 -15 -6 6 -7 15 -3 22 9 14
37 9 43 -7z"/>
<path d="M5190 4884 c0 -24 5 -44 10 -44 6 0 10 14 10 30 0 18 6 33 15 36 23
9 18 22 -10 22 -23 0 -25 -4 -25 -44z"/>
<path d="M5267 4923 c-14 -13 -6 -20 18 -15 15 2 25 0 25 -7 0 -6 -8 -11 -19
-11 -10 0 -24 -6 -30 -14 -16 -19 5 -33 47 -33 28 0 32 4 32 28 0 43 -48 77
-73 52z m40 -59 c-3 -3 -12 -4 -19 -1 -8 3 -5 6 6 6 11 1 17 -2 13 -5z"/>
<path d="M5360 4884 c0 -32 4 -44 15 -44 11 0 15 11 15 36 0 28 3 35 18 32 11
-2 18 -14 20 -36 2 -17 7 -32 12 -32 5 0 10 15 12 32 2 22 9 34 21 36 14 3 17
-4 17 -32 0 -20 5 -36 11 -36 6 0 9 17 7 43 l-3 42 -72 1 -73 1 0 -43z"/>
<path d="M5545 4920 c-3 -6 5 -10 19 -10 35 0 42 -18 9 -22 -20 -2 -28 -9 -28
-23 0 -16 7 -20 38 -21 35 -1 37 0 37 30 0 18 -5 37 -12 44 -15 15 -54 16 -63
2z m42 -56 c-3 -3 -12 -4 -19 -1 -8 3 -5 6 6 6 11 1 17 -2 13 -5z"/>
<path d="M5656 4915 c-22 -23 -20 -38 10 -70 20 -22 23 -30 12 -36 -10 -7 -8
-9 6 -9 13 0 17 5 13 19 -3 12 1 22 9 25 22 9 16 25 -7 19 -23 -6 -40 12 -32
34 4 9 15 13 30 10 15 -3 22 0 20 7 -6 18 -43 18 -61 1z"/>
<path d="M5750 4920 c-12 -8 -9 -10 12 -10 36 0 45 -18 11 -22 -20 -2 -28 -9
-28 -23 0 -16 7 -20 38 -22 35 -1 37 0 37 31 0 49 -32 70 -70 46z m43 -57 c-7
-2 -19 -2 -25 0 -7 3 -2 5 12 5 14 0 19 -2 13 -5z"/>
<path d="M5856 4914 c-9 -8 -16 -22 -16 -29 0 -20 28 -45 50 -45 22 0 50 25
50 45 0 20 -28 45 -50 45 -10 0 -26 -7 -34 -16z m57 -16 c6 -19 -3 -38 -18
-38 -18 0 -28 17 -21 35 7 18 33 20 39 3z"/>
<path d="M8487 4923 c-14 -13 -6 -20 18 -15 15 2 25 0 25 -7 0 -6 -8 -11 -19
-11 -10 0 -24 -6 -30 -14 -16 -19 5 -33 47 -33 28 0 32 4 32 28 0 43 -48 77
-73 52z m40 -59 c-3 -3 -12 -4 -19 -1 -8 3 -5 6 6 6 11 1 17 -2 13 -5z"/>
<path d="M8580 4884 c0 -32 4 -44 15 -44 10 0 15 10 15 30 0 18 6 33 15 36 25
10 17 21 -15 22 -29 1 -30 -1 -30 -44z"/>
<path d="M8668 4919 c-28 -16 -23 -57 8 -71 31 -14 57 -1 62 31 6 42 -31 63
-70 40z m50 -32 c4 -20 -25 -34 -40 -19 -15 15 -1 44 19 40 10 -2 19 -11 21
-21z"/>
<path d="M8882 4918 c-29 -29 -7 -78 34 -78 13 0 26 5 29 10 3 6 -5 10 -19 10
-14 0 -28 5 -31 10 -4 6 8 10 29 10 39 0 45 10 20 34 -18 19 -45 21 -62 4z
m41 -15 c-7 -2 -19 -2 -25 0 -7 3 -2 5 12 5 14 0 19 -2 13 -5z"/>
<path d="M3883 4673 c9 -2 23 -2 30 0 6 3 -1 5 -18 5 -16 0 -22 -2 -12 -5z"/>
<path d="M8378 4673 c6 -2 18 -2 25 0 6 3 1 5 -13 5 -14 0 -19 -2 -12 -5z"/>
<path d="M9333 4673 c9 -2 23 -2 30 0 6 3 -1 5 -18 5 -16 0 -22 -2 -12 -5z"/>
<path d="M4028 4643 c6 -2 18 -2 25 0 6 3 1 5 -13 5 -14 0 -19 -2 -12 -5z"/>
<path d="M3045 4615 c-48 -47 -19 -115 48 -115 42 0 67 26 67 68 0 66 -69 94
-115 47z m76 -5 c23 -13 26 -62 5 -79 -46 -38 -111 25 -71 69 20 22 37 25 66
10z"/>
<path d="M3083 4565 c-8 -22 6 -33 17 -15 13 20 12 30 0 30 -6 0 -13 -7 -17
-15z"/>
<path d="M3372 4568 l3 -73 93 -3 92 -3 0 76 0 75 -95 0 -96 0 3 -72z m168 32
c0 -22 -10 -26 -26 -10 -8 8 -15 6 -23 -4 -7 -8 -19 -12 -27 -9 -9 3 -28 -6
-45 -23 l-29 -28 0 47 0 47 75 0 c68 0 75 -2 75 -20z m-3 -76 c-10 -10 -48 27
-41 38 4 6 16 1 27 -11 12 -11 18 -24 14 -27z m-47 -6 c0 -4 -19 -8 -42 -8
l-41 0 23 25 c22 23 25 24 42 8 10 -9 18 -20 18 -25z"/>
<path d="M7658 4555 c-71 -47 -128 -89 -128 -94 0 -5 8 -19 18 -31 l18 -23
107 72 c58 39 111 71 117 71 6 0 59 -32 117 -71 l107 -72 18 23 c24 29 23 36
-7 56 -20 13 -25 24 -25 60 0 43 -1 44 -31 44 -22 0 -32 -5 -36 -20 -5 -18
-10 -16 -64 21 -32 22 -64 42 -71 44 -7 3 -70 -33 -140 -80z m247 -21 c63 -42
112 -80 110 -85 -3 -4 -52 23 -109 62 -57 38 -109 69 -116 69 -7 0 -59 -31
-116 -69 -57 -39 -106 -66 -109 -62 -3 6 204 156 223 160 1 1 54 -33 117 -75z
m75 10 c0 -14 -4 -23 -10 -19 -5 3 -10 15 -10 26 0 10 5 19 10 19 6 0 10 -12
10 -26z"/>
<path d="M3883 4623 c9 -2 23 -2 30 0 6 3 -1 5 -18 5 -16 0 -22 -2 -12 -5z"/>
<path d="M8608 4613 c12 -2 30 -2 40 0 9 3 -1 5 -23 4 -22 0 -30 -2 -17 -4z"/>
<path d="M8838 4613 c6 -2 18 -2 25 0 6 3 1 5 -13 5 -14 0 -19 -2 -12 -5z"/>
<path d="M9043 4613 c9 -2 25 -2 35 0 9 3 1 5 -18 5 -19 0 -27 -2 -17 -5z"/>
<path d="M9333 4613 c9 -2 23 -2 30 0 6 3 -1 5 -18 5 -16 0 -22 -2 -12 -5z"/>
<path d="M9418 4613 c6 -2 18 -2 25 0 6 3 1 5 -13 5 -14 0 -19 -2 -12 -5z"/>
<path d="M9778 4613 c6 -2 18 -2 25 0 6 3 1 5 -13 5 -14 0 -19 -2 -12 -5z"/>
<path d="M9232 4590 c0 -14 2 -19 5 -12 2 6 2 18 0 25 -3 6 -5 1 -5 -13z"/>
<path d="M3883 4573 c9 -2 25 -2 35 0 9 3 1 5 -18 5 -19 0 -27 -2 -17 -5z"/>
<path d="M3968 4573 c7 -3 16 -2 19 1 4 3 -2 6 -13 5 -11 0 -14 -3 -6 -6z"/>
<path d="M8378 4573 c6 -2 18 -2 25 0 6 3 1 5 -13 5 -14 0 -19 -2 -12 -5z"/>
<path d="M3252 4518 c-7 -7 -12 -27 -12 -45 0 -58 -57 -93 -157 -96 l-58 -2
-3 -37 c-2 -29 0 -38 12 -38 11 0 16 9 16 30 0 20 5 30 15 30 12 0 15 -17 15
-95 0 -76 -3 -95 -14 -95 -9 0 -16 12 -18 28 -4 39 -22 33 -26 -10 -3 -29 1
-38 17 -43 12 -3 21 -15 21 -26 0 -15 7 -19 35 -19 28 0 35 4 35 20 0 26 31
27 47 1 8 -13 23 -18 53 -18 30 0 45 5 53 18 10 16 25 19 89 19 71 0 78 -2 78
-20 0 -16 7 -20 35 -20 28 0 35 4 35 19 0 11 9 23 20 26 19 6 20 13 18 118
l-3 112 -88 3 c-82 2 -90 4 -112 30 -16 17 -24 40 -25 63 0 40 -15 59 -45 59
-12 0 -26 -5 -33 -12z m53 -38 c0 -16 -6 -26 -18 -28 -19 -4 -32 20 -23 44 9
25 41 13 41 -16z m27 -77 c24 -22 26 -103 2 -103 -11 0 -14 5 -10 16 3 8 -1
31 -9 50 -12 28 -19 34 -45 34 -18 0 -29 4 -25 10 10 16 67 12 87 -7z m-44
-65 l3 -38 -55 0 -56 0 0 33 c0 44 6 48 60 45 44 -3 45 -4 48 -40z m-138 -18
c0 -22 5 -40 10 -40 6 0 10 -7 10 -16 0 -11 -8 -14 -27 -12 -25 3 -28 7 -31
47 -2 28 1 47 10 52 23 15 28 10 28 -31z m308 31 c9 -5 12 -24 10 -52 l-3 -44
-49 -3 c-42 -3 -48 -1 -42 13 3 9 6 34 6 56 0 37 1 39 33 39 17 0 38 -4 45 -9z
m72 -86 c0 -78 -3 -95 -15 -95 -12 0 -15 17 -15 95 0 78 3 95 15 95 12 0 15
-17 15 -95z m-310 -61 c0 -56 -3 -75 -12 -72 -26 9 -18 148 7 148 3 0 5 -34 5
-76z m118 64 c-3 -7 -19 -14 -36 -16 -30 -3 -31 -5 -34 -59 -2 -34 -8 -58 -15
-61 -17 -5 -18 119 -1 136 16 16 91 16 86 0z m-178 -73 c0 -18 -5 -25 -20 -25
-15 0 -20 7 -20 25 0 18 5 25 20 25 15 0 20 -7 20 -25z m300 0 c0 -25 -1 -25
-85 -25 -84 0 -85 0 -85 25 0 25 1 25 85 25 84 0 85 0 85 -25z"/>
<path d="M7783 4448 c-14 -7 -25 -26 -33 -57 -9 -35 -26 -62 -79 -116 -72 -75
-102 -135 -81 -160 14 -17 46 -20 55 -5 4 6 11 8 16 4 5 -3 44 28 87 69 70 68
121 97 155 89 14 -4 49 87 42 108 -9 29 -22 17 -23 -21 -2 -59 -18 -58 -80 4
-61 61 -61 77 0 77 15 0 30 5 33 10 8 13 -63 12 -92 -2z m76 -156 c-29 -5 -89
54 -89 87 0 24 4 21 55 -29 50 -49 53 -55 34 -58z m-119 -86 l-70 -71 -27 28
-28 27 70 70 69 70 28 -27 29 -27 -71 -70z m-115 -66 c3 -5 1 -10 -4 -10 -6 0
-11 5 -11 10 0 6 2 10 4 10 3 0 8 -4 11 -10z"/>
<path d="M7737 4274 c-8 -8 1 -24 14 -24 5 0 9 7 9 15 0 15 -12 20 -23 9z"/>
<path d="M7696 4231 c-12 -13 -14 -21 -6 -26 13 -8 40 12 40 31 0 20 -14 17
-34 -5z"/>
<path d="M7663 4438 c-17 -8 -23 -20 -23 -42 0 -23 -6 -34 -22 -41 -28 -12
-30 -44 -5 -59 26 -16 47 16 47 71 0 32 5 45 20 53 11 6 20 15 20 20 0 12 -9
12 -37 -2z m-37 -125 c-10 -10 -19 5 -10 18 6 11 8 11 12 0 2 -7 1 -15 -2 -18z"/>
<path d="M7900 4430 c0 -5 5 -10 10 -10 6 0 10 5 10 10 0 6 -4 10 -10 10 -5 0
-10 -4 -10 -10z"/>
<path d="M3862 4278 l-2 -58 38 2 c36 1 36 1 5 5 -31 4 -32 6 -36 56 l-3 52
-2 -57z"/>
<path d="M4929 4313 c0 -10 -1 -33 -2 -51 -1 -19 1 -36 5 -39 5 -2 8 21 8 51
0 31 -2 56 -5 56 -3 0 -5 -8 -6 -17z"/>
<path d="M5063 4275 c0 -33 2 -45 4 -27 2 18 2 45 0 60 -2 15 -4 0 -4 -33z"/>
<path d="M8362 4278 l-2 -58 38 2 c36 1 36 1 5 5 -31 4 -32 6 -36 56 l-3 52
-2 -57z"/>
<path d="M9429 4313 c0 -10 -1 -33 -2 -51 -1 -19 1 -36 5 -39 5 -2 8 21 8 51
0 31 -2 56 -5 56 -3 0 -5 -8 -6 -17z"/>
<path d="M9563 4275 c0 -33 2 -45 4 -27 2 18 2 45 0 60 -2 15 -4 0 -4 -33z"/>
<path d="M5398 4307 c-7 -22 7 -80 20 -83 7 -1 8 0 2 3 -12 6 -13 60 -1 65 5
2 3 8 -4 15 -10 9 -14 9 -17 0z"/>
<path d="M5822 4303 c-7 -7 -8 -13 -3 -13 5 0 11 -14 13 -32 2 -17 9 -33 16
-34 7 -1 8 0 2 3 -12 6 -13 60 -1 65 5 2 4 8 -3 14 -8 8 -15 7 -24 -3z"/>
<path d="M6468 4307 c-7 -22 7 -80 20 -83 7 -1 8 0 2 3 -12 6 -13 60 -1 65 5
2 3 8 -4 15 -10 9 -14 9 -17 0z"/>
<path d="M9898 4307 c-7 -22 7 -80 20 -83 7 -1 8 0 2 3 -12 6 -13 60 -1 65 5
2 3 8 -4 15 -10 9 -14 9 -17 0z"/>
<path d="M10322 4303 c-7 -7 -8 -13 -3 -13 5 0 11 -14 13 -32 2 -17 9 -33 16
-34 7 -1 8 0 2 3 -12 6 -13 60 -1 65 5 2 4 8 -3 14 -8 8 -15 7 -24 -3z"/>
<path d="M10968 4307 c-7 -22 7 -80 20 -83 7 -1 8 0 2 3 -12 6 -13 60 -1 65 5
2 3 8 -4 15 -10 9 -14 9 -17 0z"/>
<path d="M3978 4290 c12 -5 22 -18 22 -30 0 -12 -10 -25 -22 -30 -18 -8 -19
-9 -4 -7 10 1 24 10 30 20 14 21 -2 51 -30 54 -15 2 -14 1 4 -7z"/>
<path d="M4096 4291 c-4 -5 3 -7 14 -4 23 6 26 13 6 13 -8 0 -17 -4 -20 -9z"/>
<path d="M4220 4287 c14 -8 27 -12 30 -10 7 6 -23 23 -40 23 -8 0 -4 -6 10
-13z"/>
<path d="M4272 4294 c11 -3 18 -19 21 -42 l4 -37 -1 40 c-1 32 -5 40 -21 42
-15 1 -15 0 -3 -3z"/>
<path d="M4373 4260 c0 -25 2 -35 4 -22 2 12 2 32 0 45 -2 12 -4 2 -4 -23z"/>
<path d="M4411 4240 c1 -30 4 -45 6 -34 3 16 10 21 26 18 22 -5 22 -5 0 5 -13
6 -23 19 -23 31 0 12 9 24 23 30 21 8 20 9 -5 7 -27 -1 -28 -3 -27 -57z"/>
<path d="M4528 4293 c7 -3 16 -2 19 1 4 3 -2 6 -13 5 -11 0 -14 -3 -6 -6z"/>
<path d="M4582 4270 c0 -19 2 -27 5 -17 2 9 2 25 0 35 -3 9 -5 1 -5 -18z"/>
<path d="M4640 4270 c0 -22 -6 -33 -22 -40 -22 -8 -21 -9 5 -7 24 1 27 5 27
39 0 21 -2 38 -5 38 -3 0 -5 -14 -5 -30z"/>
<path d="M4720 4287 c14 -8 27 -12 30 -10 7 6 -23 23 -40 23 -8 0 -4 -6 10
-13z"/>
<path d="M4772 4294 c11 -3 18 -19 21 -42 l4 -37 -1 40 c-1 32 -5 40 -21 42
-15 1 -15 0 -3 -3z"/>
<path d="M4876 4291 c-4 -5 3 -7 14 -4 23 6 26 13 6 13 -8 0 -17 -4 -20 -9z"/>
<path d="M4977 4293 c-3 -5 8 -8 23 -8 15 0 26 3 23 8 -2 4 -13 7 -23 7 -10 0
-21 -3 -23 -7z"/>
<path d="M5107 4293 c-3 -5 8 -8 23 -8 15 0 26 3 23 8 -2 4 -13 7 -23 7 -10 0
-21 -3 -23 -7z"/>
<path d="M5191 4255 c2 -33 3 -35 6 -10 2 17 11 35 20 42 13 10 13 12 -6 10
-18 -1 -21 -7 -20 -42z"/>
<path d="M5284 4289 c-3 -6 -1 -16 5 -22 9 -9 11 -8 6 5 -5 12 0 18 17 21 22
4 22 4 1 6 -12 0 -25 -4 -29 -10z"/>
<path d="M5363 4260 c0 -25 2 -35 4 -22 2 12 2 32 0 45 -2 12 -4 2 -4 -23z"/>
<path d="M5510 4296 c0 -2 9 -6 20 -9 11 -3 18 -1 14 4 -5 9 -34 13 -34 5z"/>
<path d="M5623 4293 c12 -3 17 -15 18 -41 l2 -37 6 35 c4 26 11 35 26 35 15 0
22 -9 26 -35 l6 -35 2 31 c1 39 -13 51 -64 51 -22 0 -32 -2 -22 -4z"/>
<path d="M5746 4291 c-4 -5 3 -7 14 -4 23 6 26 13 6 13 -8 0 -17 -4 -20 -9z"/>
<path d="M5962 4288 c-24 -24 -6 -69 28 -67 9 0 6 4 -7 9 -14 6 -23 18 -23 30
0 12 9 24 23 30 13 5 16 9 7 9 -9 1 -21 -4 -28 -11z"/>
<path d="M6042 4288 c-24 -24 -6 -69 28 -67 9 0 6 4 -7 9 -14 6 -23 18 -23 30
0 12 9 24 23 30 13 5 16 9 7 9 -9 1 -21 -4 -28 -11z"/>
<path d="M6150 4296 c0 -2 9 -6 20 -9 11 -3 18 -1 14 4 -5 9 -34 13 -34 5z"/>
<path d="M6227 4293 c-10 -10 -8 -33 3 -33 5 0 7 6 4 14 -4 9 3 16 18 19 20 4
21 4 2 6 -11 0 -24 -2 -27 -6z"/>
<path d="M6306 4291 c-4 -5 3 -7 14 -4 23 6 26 13 6 13 -8 0 -17 -4 -20 -9z"/>
<path d="M6392 4288 c-24 -24 -6 -69 28 -67 9 0 6 4 -7 9 -14 6 -23 18 -23 30
0 12 9 24 23 30 13 5 16 9 7 9 -9 1 -21 -4 -28 -11z"/>
<path d="M6548 4293 c7 -3 16 -2 19 1 4 3 -2 6 -13 5 -11 0 -14 -3 -6 -6z"/>
<path d="M6613 4293 c9 -2 23 -2 30 0 6 3 -1 5 -18 5 -16 0 -22 -2 -12 -5z"/>
<path d="M6672 4275 c0 -16 2 -22 5 -12 2 9 2 23 0 30 -3 6 -5 -1 -5 -18z"/>
<path d="M6728 4268 c-2 -27 -7 -33 -25 -32 -12 0 -20 -3 -17 -8 3 -4 16 -7
29 -6 22 2 25 7 25 40 0 47 -8 50 -12 6z"/>
<path d="M6771 4255 c2 -33 3 -35 6 -10 2 17 11 35 20 42 13 10 13 12 -6 10
-18 -1 -21 -7 -20 -42z"/>
<path d="M8478 4290 c12 -5 22 -18 22 -30 0 -12 -10 -25 -22 -30 -18 -8 -19
-9 -4 -7 10 1 24 10 30 20 14 21 -2 51 -30 54 -15 2 -14 1 4 -7z"/>
<path d="M8596 4291 c-4 -5 3 -7 14 -4 23 6 26 13 6 13 -8 0 -17 -4 -20 -9z"/>
<path d="M8720 4287 c14 -8 27 -12 30 -10 7 6 -23 23 -40 23 -8 0 -4 -6 10
-13z"/>
<path d="M8772 4294 c11 -3 18 -19 21 -42 l4 -37 -1 40 c-1 32 -5 40 -21 42
-15 1 -15 0 -3 -3z"/>
<path d="M8873 4260 c0 -25 2 -35 4 -22 2 12 2 32 0 45 -2 12 -4 2 -4 -23z"/>
<path d="M8911 4240 c1 -30 4 -45 6 -34 3 16 10 21 26 18 22 -5 22 -5 0 5 -13
6 -23 19 -23 31 0 12 9 24 23 30 21 8 20 9 -5 7 -27 -1 -28 -3 -27 -57z"/>
<path d="M9028 4293 c7 -3 16 -2 19 1 4 3 -2 6 -13 5 -11 0 -14 -3 -6 -6z"/>
<path d="M9082 4270 c0 -19 2 -27 5 -17 2 9 2 25 0 35 -3 9 -5 1 -5 -18z"/>
<path d="M9140 4270 c0 -22 -6 -33 -22 -40 -22 -8 -21 -9 5 -7 24 1 27 5 27
39 0 21 -2 38 -5 38 -3 0 -5 -14 -5 -30z"/>
<path d="M9220 4287 c14 -8 27 -12 30 -10 7 6 -23 23 -40 23 -8 0 -4 -6 10
-13z"/>
<path d="M9272 4294 c11 -3 18 -19 21 -42 l4 -37 -1 40 c-1 32 -5 40 -21 42
-15 1 -15 0 -3 -3z"/>
<path d="M9376 4291 c-4 -5 3 -7 14 -4 23 6 26 13 6 13 -8 0 -17 -4 -20 -9z"/>
<path d="M9477 4293 c-3 -5 8 -8 23 -8 15 0 26 3 23 8 -2 4 -13 7 -23 7 -10 0
-21 -3 -23 -7z"/>
<path d="M9607 4293 c-3 -5 8 -8 23 -8 15 0 26 3 23 8 -2 4 -13 7 -23 7 -10 0
-21 -3 -23 -7z"/>
<path d="M9691 4255 c2 -33 3 -35 6 -10 2 17 11 35 20 42 13 10 13 12 -6 10
-18 -1 -21 -7 -20 -42z"/>
<path d="M9784 4289 c-3 -6 -1 -16 5 -22 9 -9 11 -8 6 5 -5 12 0 18 17 21 22
4 22 4 1 6 -12 0 -25 -4 -29 -10z"/>
<path d="M9863 4260 c0 -25 2 -35 4 -22 2 12 2 32 0 45 -2 12 -4 2 -4 -23z"/>
<path d="M10010 4296 c0 -2 9 -6 20 -9 11 -3 18 -1 14 4 -5 9 -34 13 -34 5z"/>
<path d="M10123 4293 c12 -3 17 -15 18 -41 l2 -37 6 35 c4 26 11 35 26 35 15
0 22 -9 26 -35 l6 -35 2 31 c1 39 -13 51 -64 51 -22 0 -32 -2 -22 -4z"/>
<path d="M10246 4291 c-4 -5 3 -7 14 -4 23 6 26 13 6 13 -8 0 -17 -4 -20 -9z"/>
<path d="M10462 4288 c-24 -24 -6 -69 28 -67 9 0 6 4 -7 9 -14 6 -23 18 -23
30 0 12 9 24 23 30 13 5 16 9 7 9 -9 1 -21 -4 -28 -11z"/>
<path d="M10542 4288 c-24 -24 -6 -69 28 -67 9 0 6 4 -7 9 -14 6 -23 18 -23
30 0 12 9 24 23 30 13 5 16 9 7 9 -9 1 -21 -4 -28 -11z"/>
<path d="M10650 4296 c0 -2 9 -6 20 -9 11 -3 18 -1 14 4 -5 9 -34 13 -34 5z"/>
<path d="M10727 4293 c-10 -10 -8 -33 3 -33 5 0 7 6 4 14 -4 9 3 16 18 19 20
4 21 4 2 6 -11 0 -24 -2 -27 -6z"/>
<path d="M10806 4291 c-4 -5 3 -7 14 -4 23 6 26 13 6 13 -8 0 -17 -4 -20 -9z"/>
<path d="M10892 4288 c-24 -24 -6 -69 28 -67 9 0 6 4 -7 9 -14 6 -23 18 -23
30 0 12 9 24 23 30 13 5 16 9 7 9 -9 1 -21 -4 -28 -11z"/>
<path d="M11048 4293 c7 -3 16 -2 19 1 4 3 -2 6 -13 5 -11 0 -14 -3 -6 -6z"/>
<path d="M11113 4293 c9 -2 23 -2 30 0 6 3 -1 5 -18 5 -16 0 -22 -2 -12 -5z"/>
<path d="M11172 4275 c0 -16 2 -22 5 -12 2 9 2 23 0 30 -3 6 -5 -1 -5 -18z"/>
<path d="M11228 4268 c-2 -27 -7 -33 -25 -32 -12 0 -20 -3 -17 -8 3 -4 16 -7
29 -6 22 2 25 7 25 40 0 47 -8 50 -12 6z"/>
<path d="M11271 4255 c2 -33 3 -35 6 -10 2 17 11 35 20 42 13 10 13 12 -6 10
-18 -1 -21 -7 -20 -42z"/>
<path d="M4183 4255 c0 -22 2 -30 4 -17 2 12 2 30 0 40 -3 9 -5 -1 -4 -23z"/>
<path d="M4683 4255 c0 -22 2 -30 4 -17 2 12 2 30 0 40 -3 9 -5 -1 -4 -23z"/>
<path d="M6133 4255 c0 -22 2 -30 4 -17 2 12 2 30 0 40 -3 9 -5 -1 -4 -23z"/>
<path d="M7983 4268 c-40 -17 -43 -22 -43 -56 0 -29 -5 -39 -22 -47 -27 -12
-30 -43 -6 -58 30 -19 48 8 48 73 0 56 1 58 31 69 41 14 39 15 39 -13 0 -16
-7 -27 -21 -31 -31 -10 -23 -60 11 -60 24 0 25 3 28 66 3 78 -4 84 -65 57z
m47 -98 c0 -5 -4 -10 -10 -10 -5 0 -10 5 -10 10 0 6 5 10 10 10 6 0 10 -4 10
-10z m-90 -34 c0 -3 -4 -8 -10 -11 -5 -3 -10 -1 -10 4 0 6 5 11 10 11 6 0 10
-2 10 -4z"/>
<path d="M8683 4255 c0 -22 2 -30 4 -17 2 12 2 30 0 40 -3 9 -5 -1 -4 -23z"/>
<path d="M9183 4255 c0 -22 2 -30 4 -17 2 12 2 30 0 40 -3 9 -5 -1 -4 -23z"/>
<path d="M10633 4255 c0 -22 2 -30 4 -17 2 12 2 30 0 40 -3 9 -5 -1 -4 -23z"/>
<path d="M3026 4273 c-11 -11 -6 -23 9 -23 8 0 15 4 15 9 0 13 -16 22 -24 14z"/>
<path d="M6520 4260 c0 -21 20 -40 40 -39 9 0 6 4 -7 9 -33 13 -28 30 7 30 17
0 30 3 30 8 0 4 -16 7 -35 7 -25 0 -35 -4 -35 -15z"/>
<path d="M11020 4260 c0 -21 20 -40 40 -39 9 0 6 4 -7 9 -33 13 -28 30 7 30
17 0 30 3 30 8 0 4 -16 7 -35 7 -25 0 -35 -4 -35 -15z"/>
<path d="M4080 4262 c0 -4 16 -6 35 -4 19 2 35 6 35 8 0 2 -16 4 -35 4 -19 0
-35 -4 -35 -8z"/>
<path d="M5513 4263 c9 -2 23 -2 30 0 6 3 -1 5 -18 5 -16 0 -22 -2 -12 -5z"/>
<path d="M5730 4257 c0 -28 50 -51 64 -29 2 4 -7 8 -21 7 -39 0 -40 23 -1 28
l33 4 -37 1 c-25 1 -38 -2 -38 -11z"/>
<path d="M6192 4245 c0 -16 2 -22 5 -12 2 9 2 23 0 30 -3 6 -5 -1 -5 -18z"/>
<path d="M6290 4257 c0 -28 50 -51 64 -29 2 4 -7 8 -21 7 -39 0 -40 23 -1 28
l33 4 -37 1 c-25 1 -38 -2 -38 -11z"/>
<path d="M8580 4262 c0 -4 16 -6 35 -4 19 2 35 6 35 8 0 2 -16 4 -35 4 -19 0
-35 -4 -35 -8z"/>
<path d="M10013 4263 c9 -2 23 -2 30 0 6 3 -1 5 -18 5 -16 0 -22 -2 -12 -5z"/>
<path d="M10230 4257 c0 -28 50 -51 64 -29 2 4 -7 8 -21 7 -39 0 -40 23 -1 28
l33 4 -37 1 c-25 1 -38 -2 -38 -11z"/>
<path d="M10692 4245 c0 -16 2 -22 5 -12 2 9 2 23 0 30 -3 6 -5 -1 -5 -18z"/>
<path d="M10790 4257 c0 -28 50 -51 64 -29 2 4 -7 8 -21 7 -39 0 -40 23 -1 28
l33 4 -37 1 c-25 1 -38 -2 -38 -11z"/>
<path d="M4545 4248 c6 -14 2 -18 -16 -19 -19 -1 -20 -2 -5 -6 25 -7 44 13 27
30 -10 10 -11 9 -6 -5z"/>
<path d="M5325 4248 c6 -14 2 -18 -16 -19 -19 -1 -20 -2 -5 -6 25 -7 44 13 27
30 -10 10 -11 9 -6 -5z"/>
<path d="M9045 4248 c6 -14 2 -18 -16 -19 -19 -1 -20 -2 -5 -6 25 -7 44 13 27
30 -10 10 -11 9 -6 -5z"/>
<path d="M9825 4248 c6 -14 2 -18 -16 -19 -19 -1 -20 -2 -5 -6 25 -7 44 13 27
30 -10 10 -11 9 -6 -5z"/>
<path d="M4125 4230 c-16 -7 -17 -9 -3 -9 9 -1 20 4 23 9 7 11 7 11 -20 0z"/>
<path d="M4878 4228 c5 -5 16 -8 23 -6 8 3 3 7 -10 11 -17 4 -21 3 -13 -5z"/>
<path d="M4977 4228 c2 -5 13 -8 23 -8 10 0 21 3 23 8 3 4 -8 7 -23 7 -15 0
-26 -3 -23 -7z"/>
<path d="M5107 4228 c2 -5 13 -8 23 -8 10 0 21 3 23 8 3 4 -8 7 -23 7 -15 0
-26 -3 -23 -7z"/>
<path d="M6620 4230 c0 -6 7 -10 15 -10 8 0 15 2 15 4 0 2 -7 6 -15 10 -8 3
-15 1 -15 -4z"/>
<path d="M8625 4230 c-16 -7 -17 -9 -3 -9 9 -1 20 4 23 9 7 11 7 11 -20 0z"/>
<path d="M9378 4228 c5 -5 16 -8 23 -6 8 3 3 7 -10 11 -17 4 -21 3 -13 -5z"/>
<path d="M9477 4228 c2 -5 13 -8 23 -8 10 0 21 3 23 8 3 4 -8 7 -23 7 -15 0
-26 -3 -23 -7z"/>
<path d="M9607 4228 c2 -5 13 -8 23 -8 10 0 21 3 23 8 3 4 -8 7 -23 7 -15 0
-26 -3 -23 -7z"/>
<path d="M11120 4230 c0 -6 7 -10 15 -10 8 0 15 2 15 4 0 2 -7 6 -15 10 -8 3
-15 1 -15 -4z"/>
<path d="M6238 4223 c7 -3 16 -2 19 1 4 3 -2 6 -13 5 -11 0 -14 -3 -6 -6z"/>
<path d="M10738 4223 c7 -3 16 -2 19 1 4 3 -2 6 -13 5 -11 0 -14 -3 -6 -6z"/>
<path d="M4783 4065 c0 -33 2 -45 4 -27 2 18 2 45 0 60 -2 15 -4 0 -4 -33z"/>
<path d="M4990 4065 l0 -55 38 2 c36 1 36 1 5 5 -43 6 -47 40 -5 46 l27 4 -27
2 c-21 1 -28 6 -28 20 0 15 8 21 33 24 31 4 31 4 -5 5 l-38 2 0 -55z"/>
<path d="M9283 4065 c0 -33 2 -45 4 -27 2 18 2 45 0 60 -2 15 -4 0 -4 -33z"/>
<path d="M9490 4065 l0 -55 38 2 c36 1 36 1 5 5 -43 6 -47 40 -5 46 l27 4 -27
2 c-21 1 -28 6 -28 20 0 15 8 21 33 24 31 4 31 4 -5 5 l-38 2 0 -55z"/>
<path d="M4858 4097 c-7 -22 7 -80 20 -83 7 -1 8 0 2 3 -12 6 -13 60 -1 65 5
2 3 8 -4 15 -10 9 -14 9 -17 0z"/>
<path d="M9358 4097 c-7 -22 7 -80 20 -83 7 -1 8 0 2 3 -12 6 -13 60 -1 65 5
2 3 8 -4 15 -10 9 -14 9 -17 0z"/>
<path d="M3870 4086 c0 -2 9 -6 20 -9 11 -3 18 -1 14 4 -5 9 -34 13 -34 5z"/>
<path d="M3952 4078 c-24 -24 -6 -69 28 -67 9 0 6 4 -7 9 -14 6 -23 18 -23 30
0 12 9 24 23 30 13 5 16 9 7 9 -9 1 -21 -4 -28 -11z"/>
<path d="M4128 4080 c12 -5 22 -18 22 -30 0 -12 -10 -25 -22 -30 -18 -8 -19
-9 -4 -7 10 1 24 10 30 20 14 21 -2 51 -30 54 -15 2 -14 1 4 -7z"/>
<path d="M4183 4050 c0 -25 2 -35 4 -22 2 12 2 32 0 45 -2 12 -4 2 -4 -23z"/>
<path d="M4238 4083 c7 -3 16 -2 19 1 4 3 -2 6 -13 5 -11 0 -14 -3 -6 -6z"/>
<path d="M4350 4086 c0 -2 9 -6 20 -9 11 -3 18 -1 14 4 -5 9 -34 13 -34 5z"/>
<path d="M4492 4084 c11 -3 18 -19 21 -42 l4 -37 -1 40 c-1 32 -5 40 -21 42
-15 1 -15 0 -3 -3z"/>
<path d="M4588 4080 c25 -11 30 -48 7 -56 -8 -4 -23 0 -33 7 -16 12 -16 12 -1
-5 25 -27 59 -13 59 24 0 26 -16 41 -43 39 -7 0 -2 -4 11 -9z"/>
<path d="M4696 4081 c-4 -5 3 -7 14 -4 23 6 26 13 6 13 -8 0 -17 -4 -20 -9z"/>
<path d="M4823 4050 c0 -25 2 -35 4 -22 2 12 2 32 0 45 -2 12 -4 2 -4 -23z"/>
<path d="M5083 4083 c9 -2 23 -2 30 0 6 3 -1 5 -18 5 -16 0 -22 -2 -12 -5z"/>
<path d="M5240 4086 c0 -2 9 -6 20 -9 11 -3 18 -1 14 4 -5 9 -34 13 -34 5z"/>
<path d="M5348 4080 c12 -5 22 -18 22 -30 0 -12 -10 -25 -22 -30 -18 -8 -19
-9 -4 -7 10 1 24 10 30 20 14 21 -2 51 -30 54 -15 2 -14 1 4 -7z"/>
<path d="M5448 4080 c12 -5 22 -18 22 -30 0 -12 -10 -25 -22 -30 -18 -8 -19
-9 -4 -7 10 1 24 10 30 20 14 21 -2 51 -30 54 -15 2 -14 1 4 -7z"/>
<path d="M5546 4081 c-4 -5 3 -7 14 -4 23 6 26 13 6 13 -8 0 -17 -4 -20 -9z"/>
<path d="M8370 4086 c0 -2 9 -6 20 -9 11 -3 18 -1 14 4 -5 9 -34 13 -34 5z"/>
<path d="M8452 4078 c-24 -24 -6 -69 28 -67 9 0 6 4 -7 9 -14 6 -23 18 -23 30
0 12 9 24 23 30 13 5 16 9 7 9 -9 1 -21 -4 -28 -11z"/>
<path d="M8628 4080 c12 -5 22 -18 22 -30 0 -12 -10 -25 -22 -30 -18 -8 -19
-9 -4 -7 10 1 24 10 30 20 14 21 -2 51 -30 54 -15 2 -14 1 4 -7z"/>
<path d="M8683 4050 c0 -25 2 -35 4 -22 2 12 2 32 0 45 -2 12 -4 2 -4 -23z"/>
<path d="M8738 4083 c7 -3 16 -2 19 1 4 3 -2 6 -13 5 -11 0 -14 -3 -6 -6z"/>
<path d="M8850 4086 c0 -2 9 -6 20 -9 11 -3 18 -1 14 4 -5 9 -34 13 -34 5z"/>
<path d="M8992 4084 c11 -3 18 -19 21 -42 l4 -37 -1 40 c-1 32 -5 40 -21 42
-15 1 -15 0 -3 -3z"/>
<path d="M9088 4080 c25 -11 30 -48 7 -56 -8 -4 -23 0 -33 7 -16 12 -16 12 -1
-5 25 -27 59 -13 59 24 0 26 -16 41 -43 39 -7 0 -2 -4 11 -9z"/>
<path d="M9196 4081 c-4 -5 3 -7 14 -4 23 6 26 13 6 13 -8 0 -17 -4 -20 -9z"/>
<path d="M9323 4050 c0 -25 2 -35 4 -22 2 12 2 32 0 45 -2 12 -4 2 -4 -23z"/>
<path d="M9583 4083 c9 -2 23 -2 30 0 6 3 -1 5 -18 5 -16 0 -22 -2 -12 -5z"/>
<path d="M9740 4086 c0 -2 9 -6 20 -9 11 -3 18 -1 14 4 -5 9 -34 13 -34 5z"/>
<path d="M9848 4080 c12 -5 22 -18 22 -30 0 -12 -10 -25 -22 -30 -18 -8 -19
-9 -4 -7 10 1 24 10 30 20 14 21 -2 51 -30 54 -15 2 -14 1 4 -7z"/>
<path d="M9948 4080 c12 -5 22 -18 22 -30 0 -12 -10 -25 -22 -30 -18 -8 -19
-9 -4 -7 10 1 24 10 30 20 14 21 -2 51 -30 54 -15 2 -14 1 4 -7z"/>
<path d="M10046 4081 c-4 -5 3 -7 14 -4 23 6 26 13 6 13 -8 0 -17 -4 -20 -9z"/>
<path d="M3873 4053 c9 -2 23 -2 30 0 6 3 -1 5 -18 5 -16 0 -22 -2 -12 -5z"/>
<path d="M4680 4052 c0 -4 16 -6 35 -4 19 2 35 6 35 8 0 2 -16 4 -35 4 -19 0
-35 -4 -35 -8z"/>
<path d="M8373 4053 c9 -2 23 -2 30 0 6 3 -1 5 -18 5 -16 0 -22 -2 -12 -5z"/>
<path d="M9180 4052 c0 -4 16 -6 35 -4 19 2 35 6 35 8 0 2 -16 4 -35 4 -19 0
-35 -4 -35 -8z"/>
<path d="M4255 4038 c6 -14 2 -18 -16 -19 -19 -1 -20 -2 -5 -6 25 -7 44 13 27
30 -10 10 -11 9 -6 -5z"/>
<path d="M8755 4038 c6 -14 2 -18 -16 -19 -19 -1 -20 -2 -5 -6 25 -7 44 13 27
30 -10 10 -11 9 -6 -5z"/>
<path d="M4365 4020 c-16 -7 -17 -9 -3 -9 9 -1 20 4 23 9 7 11 7 11 -20 0z"/>
<path d="M4725 4020 c-16 -7 -17 -9 -3 -9 9 -1 20 4 23 9 7 11 7 11 -20 0z"/>
<path d="M5090 4020 c0 -6 7 -10 15 -10 8 0 15 2 15 4 0 2 -7 6 -15 10 -8 3
-15 1 -15 -4z"/>
<path d="M5560 4020 c-23 -7 -23 -8 -3 -9 12 -1 25 4 28 9 3 6 5 10 3 9 -2 -1
-14 -5 -28 -9z"/>
<path d="M8865 4020 c-16 -7 -17 -9 -3 -9 9 -1 20 4 23 9 7 11 7 11 -20 0z"/>
<path d="M9225 4020 c-16 -7 -17 -9 -3 -9 9 -1 20 4 23 9 7 11 7 11 -20 0z"/>
<path d="M9590 4020 c0 -6 7 -10 15 -10 8 0 15 2 15 4 0 2 -7 6 -15 10 -8 3
-15 1 -15 -4z"/>
<path d="M10060 4020 c-23 -7 -23 -8 -3 -9 12 -1 25 4 28 9 3 6 5 10 3 9 -2
-1 -14 -5 -28 -9z"/>
<path d="M4568 3983 c6 -2 18 -2 25 0 6 3 1 5 -13 5 -14 0 -19 -2 -12 -5z"/>
<path d="M9068 3983 c6 -2 18 -2 25 0 6 3 1 5 -13 5 -14 0 -19 -2 -12 -5z"/>
<path d="M3860 2900 c0 -33 4 -60 10 -60 6 0 10 17 10 38 l0 37 22 -34 c20
-30 23 -32 32 -17 31 51 35 53 36 14 0 -21 5 -38 10 -38 6 0 10 27 10 60 0 33
-4 60 -9 60 -5 0 -19 -16 -31 -35 -24 -39 -33 -38 -55 6 -24 45 -35 35 -35
-31z"/>
<path d="M4190 2941 c0 -14 -5 -18 -20 -14 -26 7 -50 -13 -50 -42 0 -30 19
-44 58 -43 l32 1 0 59 c0 32 -4 58 -10 58 -5 0 -10 -9 -10 -19z m-2 -54 c4
-20 -25 -34 -40 -19 -15 15 -1 44 19 40 10 -2 19 -11 21 -21z"/>
<path d="M4240 2950 c0 -5 7 -10 15 -10 8 0 15 5 15 10 0 6 -7 10 -15 10 -8 0
-15 -4 -15 -10z"/>
<path d="M4580 2949 c0 -5 5 -7 10 -4 6 3 10 8 10 11 0 2 -4 4 -10 4 -5 0 -10
-5 -10 -11z"/>
<path d="M4620 2950 c-9 -6 -10 -10 -3 -10 6 0 15 5 18 10 8 12 4 12 -15 0z"/>
<path d="M8368 2949 c-28 -16 -21 -39 17 -55 44 -18 46 -38 5 -32 -38 6 -51
-9 -16 -18 39 -9 66 4 66 32 0 19 -6 26 -30 31 -35 7 -42 36 -7 31 12 -1 23 2
25 7 4 14 -39 17 -60 4z"/>
<path d="M9131 2934 c-12 -15 -21 -30 -21 -34 0 -20 44 -60 66 -60 29 0 64 33
64 60 0 27 -35 60 -64 60 -15 0 -33 -11 -45 -26z m79 -14 c22 -40 -26 -80 -58
-48 -25 25 -6 68 30 68 9 0 22 -9 28 -20z"/>
<path d="M9550 2950 c0 -5 7 -10 15 -10 8 0 15 5 15 10 0 6 -7 10 -15 10 -8 0
-15 -4 -15 -10z"/>
<path d="M9610 2945 c-17 -21 -3 -47 29 -55 31 -7 22 -25 -11 -24 -30 2 -37
-10 -12 -20 27 -10 51 -7 65 10 16 20 2 46 -30 54 -28 6 -23 25 7 25 30 -1 22
19 -10 23 -14 2 -31 -4 -38 -13z"/>
<path d="M9990 2900 c0 -33 4 -60 10 -60 6 0 10 7 10 15 0 8 6 15 14 15 8 0
16 -7 20 -15 3 -8 12 -15 21 -15 14 0 14 3 -1 25 -16 24 -16 27 1 45 15 17 16
20 3 20 -9 0 -21 -7 -28 -15 -19 -23 -30 -18 -30 15 0 17 -4 30 -10 30 -6 0
-10 -27 -10 -60z"/>
<path d="M10140 2950 c0 -5 5 -10 10 -10 6 0 10 -22 10 -50 0 -27 5 -50 10
-50 6 0 10 27 10 60 0 53 -2 60 -20 60 -11 0 -20 -4 -20 -10z"/>
<path d="M10200 2950 c0 -5 7 -10 15 -10 11 0 15 -12 15 -50 0 -27 5 -50 10
-50 6 0 10 27 10 60 0 57 -1 60 -25 60 -14 0 -25 -4 -25 -10z"/>
<path d="M4290 2933 c-10 -12 -11 -18 -2 -21 7 -2 12 -17 12 -33 0 -29 23 -50
38 -34 4 4 1 10 -5 12 -17 6 -17 50 -1 55 9 3 8 9 -4 21 -20 20 -19 20 -38 0z"/>
<path d="M9710 2933 c-10 -12 -11 -18 -2 -21 7 -2 12 -17 12 -33 0 -29 23 -50
38 -34 4 4 1 10 -5 12 -17 6 -17 50 -1 55 9 3 8 9 -4 21 -20 20 -19 20 -38 0z"/>
<path d="M4026 2914 c-38 -38 5 -88 58 -68 22 8 10 23 -13 17 -10 -3 -22 0
-25 6 -5 7 4 11 23 11 32 0 41 16 19 38 -17 17 -44 15 -62 -4z m47 -11 c-7 -2
-19 -2 -25 0 -7 3 -2 5 12 5 14 0 19 -2 13 -5z"/>
<path d="M4240 2885 c0 -33 4 -45 15 -45 11 0 15 12 15 45 0 33 -4 45 -15 45
-11 0 -15 -12 -15 -45z"/>
<path d="M4370 2920 c-12 -8 -9 -10 12 -10 36 0 45 -18 11 -22 -20 -2 -28 -9
-28 -23 0 -16 7 -20 38 -22 35 -1 37 0 37 31 0 49 -32 70 -70 46z m43 -57 c-7
-2 -19 -2 -25 0 -7 3 -2 5 12 5 14 0 19 -2 13 -5z"/>
<path d="M4477 2912 c-22 -24 -22 -29 9 -65 20 -23 22 -32 12 -38 -10 -7 -8
-9 6 -9 13 0 17 5 13 19 -3 12 1 22 9 25 22 8 16 23 -8 22 -17 -1 -23 5 -23
19 0 14 6 20 23 19 12 0 21 4 19 10 -6 19 -42 18 -60 -2z"/>
<path d="M4577 2923 c-14 -13 -6 -20 18 -15 15 2 25 0 25 -7 0 -6 -8 -11 -19
-11 -10 0 -24 -6 -30 -14 -16 -19 5 -33 47 -33 28 0 32 4 32 28 0 43 -48 77
-73 52z m40 -59 c-3 -3 -12 -4 -19 -1 -8 3 -5 6 6 6 11 1 17 -2 13 -5z"/>
<path d="M4688 2919 c-28 -16 -23 -57 8 -71 31 -14 57 -1 62 31 6 42 -31 63
-70 40z m50 -32 c4 -20 -25 -34 -40 -19 -15 15 -1 44 19 40 10 -2 19 -11 21
-21z"/>
<path d="M8472 2918 c-7 -7 -12 -22 -12 -35 0 -28 39 -50 67 -38 16 7 15 9 -7
13 -42 7 -47 22 -7 22 41 0 51 22 18 40 -26 13 -44 13 -59 -2z m41 -15 c-7 -2
-19 -2 -25 0 -7 3 -2 5 12 5 14 0 19 -2 13 -5z"/>
<path d="M8570 2883 c0 -32 4 -43 15 -43 11 0 15 11 15 36 0 28 3 35 18 32 11
-2 18 -14 20 -36 4 -42 20 -41 24 1 2 20 8 32 18 32 10 0 16 -12 18 -32 2 -18
7 -33 13 -33 11 0 12 79 2 81 -5 1 -38 2 -75 3 l-68 2 0 -43z"/>
<path d="M8757 2923 c-14 -13 -6 -20 18 -15 14 2 25 0 25 -6 0 -5 -13 -12 -30
-15 -18 -4 -30 -13 -30 -22 0 -16 0 -17 48 -21 31 -2 32 -1 32 36 0 25 -5 40
-16 44 -20 8 -39 8 -47 -1z m40 -59 c-3 -3 -12 -4 -19 -1 -8 3 -5 6 6 6 11 1
17 -2 13 -5z"/>
<path d="M8850 2883 c0 -32 4 -43 15 -43 11 0 15 11 15 36 0 28 3 35 18 32 11
-2 18 -14 20 -36 4 -42 22 -41 22 2 0 40 -14 53 -57 53 -32 0 -33 -2 -33 -44z"/>
<path d="M8977 2923 c-14 -13 -6 -20 18 -15 14 2 25 0 25 -6 0 -5 -13 -12 -30
-15 -18 -4 -30 -13 -30 -22 0 -16 0 -17 48 -21 31 -2 32 -1 32 36 0 25 -5 40
-16 44 -20 8 -39 8 -47 -1z m40 -59 c-3 -3 -12 -4 -19 -1 -8 3 -5 6 6 6 11 1
17 -2 13 -5z"/>
<path d="M9260 2883 c0 -32 4 -43 15 -43 11 0 15 11 15 36 0 28 3 35 18 32 11
-2 18 -14 20 -36 4 -42 20 -41 24 1 2 20 8 32 18 32 10 0 16 -12 18 -32 2 -18
7 -33 13 -33 11 0 12 79 2 81 -5 1 -38 2 -75 3 l-68 2 0 -43z"/>
<path d="M9440 2883 c0 -50 17 -59 22 -10 2 24 8 32 23 32 15 0 21 -8 23 -32
4 -43 22 -42 22 1 0 41 -15 55 -58 54 -31 -1 -32 -2 -32 -45z"/>
<path d="M9550 2885 c0 -33 4 -45 15 -45 11 0 15 12 15 45 0 33 -4 45 -15 45
-11 0 -15 -12 -15 -45z"/>
<path d="M9790 2920 c-12 -8 -9 -10 12 -10 36 0 45 -18 11 -22 -20 -2 -28 -9
-28 -23 0 -16 7 -20 38 -22 35 -1 37 0 37 31 0 49 -32 70 -70 46z m43 -57 c-7
-2 -19 -2 -25 0 -7 3 -2 5 12 5 14 0 19 -2 13 -5z"/>
<path d="M9897 2912 c-9 -10 -17 -23 -17 -29 0 -17 38 -45 56 -41 26 5 28 25
2 24 -17 -1 -23 5 -23 19 0 14 6 20 23 19 12 0 21 4 19 10 -6 19 -42 18 -60
-2z"/>
<path d="M8383 2673 c9 -2 23 -2 30 0 6 3 -1 5 -18 5 -16 0 -22 -2 -12 -5z"/>
<path d="M4188 2643 c7 -3 16 -2 19 1 4 3 -2 6 -13 5 -11 0 -14 -3 -6 -6z"/>
<path d="M8528 2643 c6 -2 18 -2 25 0 6 3 1 5 -13 5 -14 0 -19 -2 -12 -5z"/>
<path d="M3280 2625 c0 -8 5 -15 10 -15 6 0 10 7 10 15 0 8 -4 15 -10 15 -5 0
-10 -7 -10 -15z"/>
<path d="M3205 2600 c-34 -36 -48 -127 -22 -148 13 -11 11 -16 -13 -41 -16
-15 -33 -47 -40 -70 -6 -22 -24 -56 -40 -75 -34 -38 -36 -48 -16 -65 8 -7 12
-21 9 -31 -3 -11 2 -31 11 -45 l16 -25 180 0 180 0 16 25 c9 14 14 34 11 45
-3 10 1 24 9 31 20 17 18 27 -16 65 -16 19 -34 53 -40 75 -7 23 -24 55 -40 70
-24 25 -26 30 -13 41 11 9 14 26 11 66 -4 43 -11 59 -36 85 -23 23 -35 28 -43
20 -8 -8 -5 -14 9 -24 42 -31 58 -114 25 -140 -15 -13 -15 -12 -4 9 19 35 10
76 -16 80 -13 2 -23 10 -23 18 0 19 -26 18 -34 -1 -3 -9 -18 -15 -35 -15 -36
0 -48 -29 -31 -74 9 -26 9 -27 -5 -16 -30 25 -14 109 27 138 10 7 16 18 13 23
-10 15 -20 11 -50 -21z m134 -86 c2 -2 1 -14 -3 -28 -8 -34 -50 -45 -76 -21
-29 26 -26 53 8 58 25 3 62 -1 71 -9z m-31 -96 c-3 -7 -11 -13 -18 -13 -7 0
-15 6 -17 13 -3 7 4 12 17 12 13 0 20 -5 18 -12z m-50 -18 c7 -11 21 -20 32
-20 11 0 25 9 32 20 28 45 82 10 110 -71 24 -70 26 -81 10 -86 -8 -3 -21 14
-34 46 -12 28 -26 51 -30 51 -4 0 -8 -31 -8 -70 l0 -70 -80 0 -80 0 0 70 c0
39 -4 70 -8 70 -4 0 -18 -23 -30 -51 -13 -32 -26 -49 -34 -46 -16 5 -14 16 10
86 28 81 82 116 110 71z m-68 -165 c0 -19 -5 -25 -20 -25 -20 0 -20 1 -3 25
22 30 23 30 23 0z m224 -2 c19 -23 19 -23 -2 -23 -17 0 -22 6 -22 27 0 14 1
24 3 22 1 -2 11 -14 21 -26z m-296 -11 c2 -7 -3 -12 -12 -12 -9 0 -16 7 -16
16 0 17 22 14 28 -4z m372 3 c0 -8 -7 -15 -15 -15 -16 0 -20 12 -8 23 11 12
23 8 23 -8z m-339 -69 c-16 -34 -35 -37 -45 -9 -8 21 12 43 39 43 22 0 22 -1
6 -34z m317 22 c16 -16 15 -23 -4 -42 -11 -12 -36 -16 -95 -16 -77 0 -79 0
-79 25 0 26 11 31 80 38 71 8 86 7 98 -5z m-198 -34 c0 -24 -2 -25 -47 -22
-35 2 -49 7 -51 20 -2 12 5 18 25 21 67 10 73 8 73 -19z"/>
<path d="M8383 2623 c9 -2 23 -2 30 0 6 3 -1 5 -18 5 -16 0 -22 -2 -12 -5z"/>
<path d="M4013 2613 c9 -2 25 -2 35 0 9 3 1 5 -18 5 -19 0 -27 -2 -17 -5z"/>
<path d="M4268 2613 c6 -2 18 -2 25 0 6 3 1 5 -13 5 -14 0 -19 -2 -12 -5z"/>
<path d="M4528 2613 c6 -2 18 -2 25 0 6 3 1 5 -13 5 -14 0 -19 -2 -12 -5z"/>
<path d="M4703 2613 c9 -2 25 -2 35 0 9 3 1 5 -18 5 -19 0 -27 -2 -17 -5z"/>
<path d="M7843 2574 c-35 -20 -63 -39 -63 -43 0 -4 11 -13 25 -19 14 -6 25
-18 25 -27 0 -13 -19 -15 -120 -15 -160 0 -160 0 -160 -150 0 -91 -3 -110 -15
-110 -23 0 -18 -34 8 -58 22 -21 32 -22 220 -22 184 0 198 1 217 20 24 24 27
60 5 60 -12 0 -15 18 -15 99 0 79 3 100 15 105 10 3 15 19 15 45 0 26 5 41 16
45 24 9 24 9 24 -29 0 -19 5 -35 10 -35 6 0 10 22 10 50 l0 50 -70 35 c-38 19
-73 35 -77 35 -5 -1 -36 -17 -70 -36z m126 -13 l53 -28 -47 -27 c-57 -31 -56
-31 -105 -6 -64 32 -63 33 46 90 0 0 24 -13 53 -29z m-79 -95 c21 -12 29 -12
52 0 36 19 38 18 38 -10 0 -18 -8 -27 -32 -35 -44 -16 -98 4 -98 36 0 26 5 28
40 9z m-60 -31 c0 -19 67 -48 98 -42 22 4 22 2 22 -89 l0 -94 -75 0 c-107 0
-93 -19 17 -22 87 -3 91 -4 74 -20 -15 -16 -40 -18 -205 -18 -175 0 -189 1
-206 20 -18 20 -17 20 73 20 55 0 92 4 92 10 0 6 -32 10 -75 10 l-75 0 0 101
c0 143 -4 139 140 139 100 0 120 -3 120 -15z"/>
<path d="M7910 2529 c0 -5 5 -7 10 -4 6 3 10 8 10 11 0 2 -4 4 -10 4 -5 0 -10
-5 -10 -11z"/>
<path d="M7614 2396 c-3 -7 -4 -42 -2 -77 l3 -64 83 -3 c53 -2 89 1 98 9 14
12 20 102 8 133 -8 22 -182 24 -190 2z m171 -66 l0 -55 -75 0 -75 0 -3 58 -3
58 78 -3 78 -3 0 -55z"/>
<path d="M7680 2330 c0 -33 14 -38 45 -14 20 15 20 15 1 30 -31 22 -46 17 -46
-16z"/>
<path d="M7850 2310 c0 -5 16 -10 35 -10 19 0 35 5 35 10 0 6 -16 10 -35 10
-19 0 -35 -4 -35 -10z"/>
<path d="M7850 2260 c0 -5 16 -10 35 -10 19 0 35 5 35 10 0 6 -16 10 -35 10
-19 0 -35 -4 -35 -10z"/>
<path d="M7750 2200 c0 -5 5 -10 10 -10 6 0 10 5 10 10 0 6 -4 10 -10 10 -5 0
-10 -4 -10 -10z"/>
<path d="M8383 2573 c9 -2 25 -2 35 0 9 3 1 5 -18 5 -19 0 -27 -2 -17 -5z"/>
<path d="M8468 2573 c7 -3 16 -2 19 1 4 3 -2 6 -13 5 -11 0 -14 -3 -6 -6z"/>
<path d="M3862 2278 l-2 -58 38 2 c36 1 36 1 5 5 -31 4 -32 6 -36 56 l-3 52
-2 -57z"/>
<path d="M4929 2313 c0 -10 -1 -33 -2 -51 -1 -19 1 -36 5 -39 5 -2 8 21 8 51
0 31 -2 56 -5 56 -3 0 -5 -8 -6 -17z"/>
<path d="M5063 2275 c0 -33 2 -45 4 -27 2 18 2 45 0 60 -2 15 -4 0 -4 -33z"/>
<path d="M8362 2278 l-2 -58 38 2 c36 1 36 1 5 5 -31 4 -32 6 -36 56 l-3 52
-2 -57z"/>
<path d="M9429 2313 c0 -10 -1 -33 -2 -51 -1 -19 1 -36 5 -39 5 -2 8 21 8 51
0 31 -2 56 -5 56 -3 0 -5 -8 -6 -17z"/>
<path d="M9563 2275 c0 -33 2 -45 4 -27 2 18 2 45 0 60 -2 15 -4 0 -4 -33z"/>
<path d="M5398 2307 c-7 -22 7 -80 20 -83 7 -1 8 0 2 3 -12 6 -13 60 -1 65 5
2 3 8 -4 15 -10 9 -14 9 -17 0z"/>
<path d="M5822 2303 c-7 -7 -8 -13 -3 -13 5 0 11 -14 13 -32 2 -17 9 -33 16
-34 7 -1 8 0 2 3 -12 6 -13 60 -1 65 5 2 4 8 -3 14 -8 8 -15 7 -24 -3z"/>
<path d="M6468 2307 c-7 -22 7 -80 20 -83 7 -1 8 0 2 3 -12 6 -13 60 -1 65 5
2 3 8 -4 15 -10 9 -14 9 -17 0z"/>
<path d="M9898 2307 c-7 -22 7 -80 20 -83 7 -1 8 0 2 3 -12 6 -13 60 -1 65 5
2 3 8 -4 15 -10 9 -14 9 -17 0z"/>
<path d="M10322 2303 c-7 -7 -8 -13 -3 -13 5 0 11 -14 13 -32 2 -17 9 -33 16
-34 7 -1 8 0 2 3 -12 6 -13 60 -1 65 5 2 4 8 -3 14 -8 8 -15 7 -24 -3z"/>
<path d="M10968 2307 c-7 -22 7 -80 20 -83 7 -1 8 0 2 3 -12 6 -13 60 -1 65 5
2 3 8 -4 15 -10 9 -14 9 -17 0z"/>
<path d="M3978 2290 c12 -5 22 -18 22 -30 0 -12 -10 -25 -22 -30 -18 -8 -19
-9 -4 -7 10 1 24 10 30 20 14 21 -2 51 -30 54 -15 2 -14 1 4 -7z"/>
<path d="M4096 2291 c-4 -5 3 -7 14 -4 23 6 26 13 6 13 -8 0 -17 -4 -20 -9z"/>
<path d="M4220 2287 c14 -8 27 -12 30 -10 7 6 -23 23 -40 23 -8 0 -4 -6 10
-13z"/>
<path d="M4272 2294 c11 -3 18 -19 21 -42 l4 -37 -1 40 c-1 32 -5 40 -21 42
-15 1 -15 0 -3 -3z"/>
<path d="M4373 2260 c0 -25 2 -35 4 -22 2 12 2 32 0 45 -2 12 -4 2 -4 -23z"/>
<path d="M4411 2240 c1 -30 4 -45 6 -34 3 16 10 21 26 18 22 -5 22 -5 0 5 -13
6 -23 19 -23 31 0 12 9 24 23 30 21 8 20 9 -5 7 -27 -1 -28 -3 -27 -57z"/>
<path d="M4528 2293 c7 -3 16 -2 19 1 4 3 -2 6 -13 5 -11 0 -14 -3 -6 -6z"/>
<path d="M4582 2270 c0 -19 2 -27 5 -17 2 9 2 25 0 35 -3 9 -5 1 -5 -18z"/>
<path d="M4640 2270 c0 -22 -6 -33 -22 -40 -22 -8 -21 -9 5 -7 24 1 27 5 27
39 0 21 -2 38 -5 38 -3 0 -5 -14 -5 -30z"/>
<path d="M4720 2287 c14 -8 27 -12 30 -10 7 6 -23 23 -40 23 -8 0 -4 -6 10
-13z"/>
<path d="M4772 2294 c11 -3 18 -19 21 -42 l4 -37 -1 40 c-1 32 -5 40 -21 42
-15 1 -15 0 -3 -3z"/>
<path d="M4876 2291 c-4 -5 3 -7 14 -4 23 6 26 13 6 13 -8 0 -17 -4 -20 -9z"/>
<path d="M4977 2293 c-3 -5 8 -8 23 -8 15 0 26 3 23 8 -2 4 -13 7 -23 7 -10 0
-21 -3 -23 -7z"/>
<path d="M5107 2293 c-3 -5 8 -8 23 -8 15 0 26 3 23 8 -2 4 -13 7 -23 7 -10 0
-21 -3 -23 -7z"/>
<path d="M5191 2255 c2 -33 3 -35 6 -10 2 17 11 35 20 42 13 10 13 12 -6 10
-18 -1 -21 -7 -20 -42z"/>
<path d="M5284 2289 c-3 -6 -1 -16 5 -22 9 -9 11 -8 6 5 -5 12 0 18 17 21 22
4 22 4 1 6 -12 0 -25 -4 -29 -10z"/>
<path d="M5363 2260 c0 -25 2 -35 4 -22 2 12 2 32 0 45 -2 12 -4 2 -4 -23z"/>
<path d="M5510 2296 c0 -2 9 -6 20 -9 11 -3 18 -1 14 4 -5 9 -34 13 -34 5z"/>
<path d="M5623 2293 c12 -3 17 -15 18 -41 l2 -37 6 35 c4 26 11 35 26 35 15 0
22 -9 26 -35 l6 -35 2 31 c1 39 -13 51 -64 51 -22 0 -32 -2 -22 -4z"/>
<path d="M5746 2291 c-4 -5 3 -7 14 -4 23 6 26 13 6 13 -8 0 -17 -4 -20 -9z"/>
<path d="M5962 2288 c-24 -24 -6 -69 28 -67 9 0 6 4 -7 9 -14 6 -23 18 -23 30
0 12 9 24 23 30 13 5 16 9 7 9 -9 1 -21 -4 -28 -11z"/>
<path d="M6042 2288 c-24 -24 -6 -69 28 -67 9 0 6 4 -7 9 -14 6 -23 18 -23 30
0 12 9 24 23 30 13 5 16 9 7 9 -9 1 -21 -4 -28 -11z"/>
<path d="M6150 2296 c0 -2 9 -6 20 -9 11 -3 18 -1 14 4 -5 9 -34 13 -34 5z"/>
<path d="M6227 2293 c-10 -10 -8 -33 3 -33 5 0 7 6 4 14 -4 9 3 16 18 19 20 4
21 4 2 6 -11 0 -24 -2 -27 -6z"/>
<path d="M6306 2291 c-4 -5 3 -7 14 -4 23 6 26 13 6 13 -8 0 -17 -4 -20 -9z"/>
<path d="M6392 2288 c-24 -24 -6 -69 28 -67 9 0 6 4 -7 9 -14 6 -23 18 -23 30
0 12 9 24 23 30 13 5 16 9 7 9 -9 1 -21 -4 -28 -11z"/>
<path d="M6548 2293 c7 -3 16 -2 19 1 4 3 -2 6 -13 5 -11 0 -14 -3 -6 -6z"/>
<path d="M6613 2293 c9 -2 23 -2 30 0 6 3 -1 5 -18 5 -16 0 -22 -2 -12 -5z"/>
<path d="M6672 2275 c0 -16 2 -22 5 -12 2 9 2 23 0 30 -3 6 -5 -1 -5 -18z"/>
<path d="M6728 2268 c-2 -27 -7 -33 -25 -32 -12 0 -20 -3 -17 -8 3 -4 16 -7
29 -6 22 2 25 7 25 40 0 47 -8 50 -12 6z"/>
<path d="M6771 2255 c2 -33 3 -35 6 -10 2 17 11 35 20 42 13 10 13 12 -6 10
-18 -1 -21 -7 -20 -42z"/>
<path d="M8478 2290 c12 -5 22 -18 22 -30 0 -12 -10 -25 -22 -30 -18 -8 -19
-9 -4 -7 10 1 24 10 30 20 14 21 -2 51 -30 54 -15 2 -14 1 4 -7z"/>
<path d="M8596 2291 c-4 -5 3 -7 14 -4 23 6 26 13 6 13 -8 0 -17 -4 -20 -9z"/>
<path d="M8720 2287 c14 -8 27 -12 30 -10 7 6 -23 23 -40 23 -8 0 -4 -6 10
-13z"/>
<path d="M8772 2294 c11 -3 18 -19 21 -42 l4 -37 -1 40 c-1 32 -5 40 -21 42
-15 1 -15 0 -3 -3z"/>
<path d="M8873 2260 c0 -25 2 -35 4 -22 2 12 2 32 0 45 -2 12 -4 2 -4 -23z"/>
<path d="M8911 2240 c1 -30 4 -45 6 -34 3 16 10 21 26 18 22 -5 22 -5 0 5 -13
6 -23 19 -23 31 0 12 9 24 23 30 21 8 20 9 -5 7 -27 -1 -28 -3 -27 -57z"/>
<path d="M9028 2293 c7 -3 16 -2 19 1 4 3 -2 6 -13 5 -11 0 -14 -3 -6 -6z"/>
<path d="M9082 2270 c0 -19 2 -27 5 -17 2 9 2 25 0 35 -3 9 -5 1 -5 -18z"/>
<path d="M9140 2270 c0 -22 -6 -33 -22 -40 -22 -8 -21 -9 5 -7 24 1 27 5 27
39 0 21 -2 38 -5 38 -3 0 -5 -14 -5 -30z"/>
<path d="M9220 2287 c14 -8 27 -12 30 -10 7 6 -23 23 -40 23 -8 0 -4 -6 10
-13z"/>
<path d="M9272 2294 c11 -3 18 -19 21 -42 l4 -37 -1 40 c-1 32 -5 40 -21 42
-15 1 -15 0 -3 -3z"/>
<path d="M9376 2291 c-4 -5 3 -7 14 -4 23 6 26 13 6 13 -8 0 -17 -4 -20 -9z"/>
<path d="M9477 2293 c-3 -5 8 -8 23 -8 15 0 26 3 23 8 -2 4 -13 7 -23 7 -10 0
-21 -3 -23 -7z"/>
<path d="M9607 2293 c-3 -5 8 -8 23 -8 15 0 26 3 23 8 -2 4 -13 7 -23 7 -10 0
-21 -3 -23 -7z"/>
<path d="M9691 2255 c2 -33 3 -35 6 -10 2 17 11 35 20 42 13 10 13 12 -6 10
-18 -1 -21 -7 -20 -42z"/>
<path d="M9784 2289 c-3 -6 -1 -16 5 -22 9 -9 11 -8 6 5 -5 12 0 18 17 21 22
4 22 4 1 6 -12 0 -25 -4 -29 -10z"/>
<path d="M9863 2260 c0 -25 2 -35 4 -22 2 12 2 32 0 45 -2 12 -4 2 -4 -23z"/>
<path d="M10010 2296 c0 -2 9 -6 20 -9 11 -3 18 -1 14 4 -5 9 -34 13 -34 5z"/>
<path d="M10123 2293 c12 -3 17 -15 18 -41 l2 -37 6 35 c4 26 11 35 26 35 15
0 22 -9 26 -35 l6 -35 2 31 c1 39 -13 51 -64 51 -22 0 -32 -2 -22 -4z"/>
<path d="M10246 2291 c-4 -5 3 -7 14 -4 23 6 26 13 6 13 -8 0 -17 -4 -20 -9z"/>
<path d="M10462 2288 c-24 -24 -6 -69 28 -67 9 0 6 4 -7 9 -14 6 -23 18 -23
30 0 12 9 24 23 30 13 5 16 9 7 9 -9 1 -21 -4 -28 -11z"/>
<path d="M10542 2288 c-24 -24 -6 -69 28 -67 9 0 6 4 -7 9 -14 6 -23 18 -23
30 0 12 9 24 23 30 13 5 16 9 7 9 -9 1 -21 -4 -28 -11z"/>
<path d="M10650 2296 c0 -2 9 -6 20 -9 11 -3 18 -1 14 4 -5 9 -34 13 -34 5z"/>
<path d="M10727 2293 c-10 -10 -8 -33 3 -33 5 0 7 6 4 14 -4 9 3 16 18 19 20
4 21 4 2 6 -11 0 -24 -2 -27 -6z"/>
<path d="M10806 2291 c-4 -5 3 -7 14 -4 23 6 26 13 6 13 -8 0 -17 -4 -20 -9z"/>
<path d="M10892 2288 c-24 -24 -6 -69 28 -67 9 0 6 4 -7 9 -14 6 -23 18 -23
30 0 12 9 24 23 30 13 5 16 9 7 9 -9 1 -21 -4 -28 -11z"/>
<path d="M11048 2293 c7 -3 16 -2 19 1 4 3 -2 6 -13 5 -11 0 -14 -3 -6 -6z"/>
<path d="M11113 2293 c9 -2 23 -2 30 0 6 3 -1 5 -18 5 -16 0 -22 -2 -12 -5z"/>
<path d="M11172 2275 c0 -16 2 -22 5 -12 2 9 2 23 0 30 -3 6 -5 -1 -5 -18z"/>
<path d="M11228 2268 c-2 -27 -7 -33 -25 -32 -12 0 -20 -3 -17 -8 3 -4 16 -7
29 -6 22 2 25 7 25 40 0 47 -8 50 -12 6z"/>
<path d="M11271 2255 c2 -33 3 -35 6 -10 2 17 11 35 20 42 13 10 13 12 -6 10
-18 -1 -21 -7 -20 -42z"/>
<path d="M4183 2255 c0 -22 2 -30 4 -17 2 12 2 30 0 40 -3 9 -5 -1 -4 -23z"/>
<path d="M4683 2255 c0 -22 2 -30 4 -17 2 12 2 30 0 40 -3 9 -5 -1 -4 -23z"/>
<path d="M6133 2255 c0 -22 2 -30 4 -17 2 12 2 30 0 40 -3 9 -5 -1 -4 -23z"/>
<path d="M8683 2255 c0 -22 2 -30 4 -17 2 12 2 30 0 40 -3 9 -5 -1 -4 -23z"/>
<path d="M9183 2255 c0 -22 2 -30 4 -17 2 12 2 30 0 40 -3 9 -5 -1 -4 -23z"/>
<path d="M10633 2255 c0 -22 2 -30 4 -17 2 12 2 30 0 40 -3 9 -5 -1 -4 -23z"/>
<path d="M6520 2260 c0 -21 20 -40 40 -39 9 0 6 4 -7 9 -33 13 -28 30 7 30 17
0 30 3 30 8 0 4 -16 7 -35 7 -25 0 -35 -4 -35 -15z"/>
<path d="M11020 2260 c0 -21 20 -40 40 -39 9 0 6 4 -7 9 -33 13 -28 30 7 30
17 0 30 3 30 8 0 4 -16 7 -35 7 -25 0 -35 -4 -35 -15z"/>
<path d="M4080 2262 c0 -4 16 -6 35 -4 19 2 35 6 35 8 0 2 -16 4 -35 4 -19 0
-35 -4 -35 -8z"/>
<path d="M5513 2263 c9 -2 23 -2 30 0 6 3 -1 5 -18 5 -16 0 -22 -2 -12 -5z"/>
<path d="M5730 2257 c0 -28 50 -51 64 -29 2 4 -7 8 -21 7 -39 0 -40 23 -1 28
l33 4 -37 1 c-25 1 -38 -2 -38 -11z"/>
<path d="M6192 2245 c0 -16 2 -22 5 -12 2 9 2 23 0 30 -3 6 -5 -1 -5 -18z"/>
<path d="M6290 2257 c0 -28 50 -51 64 -29 2 4 -7 8 -21 7 -39 0 -40 23 -1 28
l33 4 -37 1 c-25 1 -38 -2 -38 -11z"/>
<path d="M8580 2262 c0 -4 16 -6 35 -4 19 2 35 6 35 8 0 2 -16 4 -35 4 -19 0
-35 -4 -35 -8z"/>
<path d="M10013 2263 c9 -2 23 -2 30 0 6 3 -1 5 -18 5 -16 0 -22 -2 -12 -5z"/>
<path d="M10230 2257 c0 -28 50 -51 64 -29 2 4 -7 8 -21 7 -39 0 -40 23 -1 28
l33 4 -37 1 c-25 1 -38 -2 -38 -11z"/>
<path d="M10692 2245 c0 -16 2 -22 5 -12 2 9 2 23 0 30 -3 6 -5 -1 -5 -18z"/>
<path d="M10790 2257 c0 -28 50 -51 64 -29 2 4 -7 8 -21 7 -39 0 -40 23 -1 28
l33 4 -37 1 c-25 1 -38 -2 -38 -11z"/>
<path d="M4545 2248 c6 -14 2 -18 -16 -19 -19 -1 -20 -2 -5 -6 25 -7 44 13 27
30 -10 10 -11 9 -6 -5z"/>
<path d="M5325 2248 c6 -14 2 -18 -16 -19 -19 -1 -20 -2 -5 -6 25 -7 44 13 27
30 -10 10 -11 9 -6 -5z"/>
<path d="M9045 2248 c6 -14 2 -18 -16 -19 -19 -1 -20 -2 -5 -6 25 -7 44 13 27
30 -10 10 -11 9 -6 -5z"/>
<path d="M9825 2248 c6 -14 2 -18 -16 -19 -19 -1 -20 -2 -5 -6 25 -7 44 13 27
30 -10 10 -11 9 -6 -5z"/>
<path d="M4125 2230 c-16 -7 -17 -9 -3 -9 9 -1 20 4 23 9 7 11 7 11 -20 0z"/>
<path d="M4878 2228 c5 -5 16 -8 23 -6 8 3 3 7 -10 11 -17 4 -21 3 -13 -5z"/>
<path d="M4977 2228 c2 -5 13 -8 23 -8 10 0 21 3 23 8 3 4 -8 7 -23 7 -15 0
-26 -3 -23 -7z"/>
<path d="M5107 2228 c2 -5 13 -8 23 -8 10 0 21 3 23 8 3 4 -8 7 -23 7 -15 0
-26 -3 -23 -7z"/>
<path d="M6620 2230 c0 -6 7 -10 15 -10 8 0 15 2 15 4 0 2 -7 6 -15 10 -8 3
-15 1 -15 -4z"/>
<path d="M8625 2230 c-16 -7 -17 -9 -3 -9 9 -1 20 4 23 9 7 11 7 11 -20 0z"/>
<path d="M9378 2228 c5 -5 16 -8 23 -6 8 3 3 7 -10 11 -17 4 -21 3 -13 -5z"/>
<path d="M9477 2228 c2 -5 13 -8 23 -8 10 0 21 3 23 8 3 4 -8 7 -23 7 -15 0
-26 -3 -23 -7z"/>
<path d="M9607 2228 c2 -5 13 -8 23 -8 10 0 21 3 23 8 3 4 -8 7 -23 7 -15 0
-26 -3 -23 -7z"/>
<path d="M11120 2230 c0 -6 7 -10 15 -10 8 0 15 2 15 4 0 2 -7 6 -15 10 -8 3
-15 1 -15 -4z"/>
<path d="M6238 2223 c7 -3 16 -2 19 1 4 3 -2 6 -13 5 -11 0 -14 -3 -6 -6z"/>
<path d="M10738 2223 c7 -3 16 -2 19 1 4 3 -2 6 -13 5 -11 0 -14 -3 -6 -6z"/>
<path d="M4783 2065 c0 -33 2 -45 4 -27 2 18 2 45 0 60 -2 15 -4 0 -4 -33z"/>
<path d="M4990 2065 l0 -55 38 2 c36 1 36 1 5 5 -43 6 -47 40 -5 46 l27 4 -27
2 c-21 1 -28 6 -28 20 0 15 8 21 33 24 31 4 31 4 -5 5 l-38 2 0 -55z"/>
<path d="M9283 2065 c0 -33 2 -45 4 -27 2 18 2 45 0 60 -2 15 -4 0 -4 -33z"/>
<path d="M9490 2065 l0 -55 38 2 c36 1 36 1 5 5 -43 6 -47 40 -5 46 l27 4 -27
2 c-21 1 -28 6 -28 20 0 15 8 21 33 24 31 4 31 4 -5 5 l-38 2 0 -55z"/>
<path d="M4858 2097 c-7 -22 7 -80 20 -83 7 -1 8 0 2 3 -12 6 -13 60 -1 65 5
2 3 8 -4 15 -10 9 -14 9 -17 0z"/>
<path d="M9358 2097 c-7 -22 7 -80 20 -83 7 -1 8 0 2 3 -12 6 -13 60 -1 65 5
2 3 8 -4 15 -10 9 -14 9 -17 0z"/>
<path d="M3870 2086 c0 -2 9 -6 20 -9 11 -3 18 -1 14 4 -5 9 -34 13 -34 5z"/>
<path d="M3952 2078 c-24 -24 -6 -69 28 -67 9 0 6 4 -7 9 -14 6 -23 18 -23 30
0 12 9 24 23 30 13 5 16 9 7 9 -9 1 -21 -4 -28 -11z"/>
<path d="M4128 2080 c12 -5 22 -18 22 -30 0 -12 -10 -25 -22 -30 -18 -8 -19
-9 -4 -7 10 1 24 10 30 20 14 21 -2 51 -30 54 -15 2 -14 1 4 -7z"/>
<path d="M4183 2050 c0 -25 2 -35 4 -22 2 12 2 32 0 45 -2 12 -4 2 -4 -23z"/>
<path d="M4238 2083 c7 -3 16 -2 19 1 4 3 -2 6 -13 5 -11 0 -14 -3 -6 -6z"/>
<path d="M4350 2086 c0 -2 9 -6 20 -9 11 -3 18 -1 14 4 -5 9 -34 13 -34 5z"/>
<path d="M4492 2084 c11 -3 18 -19 21 -42 l4 -37 -1 40 c-1 32 -5 40 -21 42
-15 1 -15 0 -3 -3z"/>
<path d="M4588 2080 c25 -11 30 -48 7 -56 -8 -4 -23 0 -33 7 -16 12 -16 12 -1
-5 25 -27 59 -13 59 24 0 26 -16 41 -43 39 -7 0 -2 -4 11 -9z"/>
<path d="M4696 2081 c-4 -5 3 -7 14 -4 23 6 26 13 6 13 -8 0 -17 -4 -20 -9z"/>
<path d="M4823 2050 c0 -25 2 -35 4 -22 2 12 2 32 0 45 -2 12 -4 2 -4 -23z"/>
<path d="M5083 2083 c9 -2 23 -2 30 0 6 3 -1 5 -18 5 -16 0 -22 -2 -12 -5z"/>
<path d="M5240 2086 c0 -2 9 -6 20 -9 11 -3 18 -1 14 4 -5 9 -34 13 -34 5z"/>
<path d="M5348 2080 c12 -5 22 -18 22 -30 0 -12 -10 -25 -22 -30 -18 -8 -19
-9 -4 -7 10 1 24 10 30 20 14 21 -2 51 -30 54 -15 2 -14 1 4 -7z"/>
<path d="M5448 2080 c12 -5 22 -18 22 -30 0 -12 -10 -25 -22 -30 -18 -8 -19
-9 -4 -7 10 1 24 10 30 20 14 21 -2 51 -30 54 -15 2 -14 1 4 -7z"/>
<path d="M5546 2081 c-4 -5 3 -7 14 -4 23 6 26 13 6 13 -8 0 -17 -4 -20 -9z"/>
<path d="M8370 2086 c0 -2 9 -6 20 -9 11 -3 18 -1 14 4 -5 9 -34 13 -34 5z"/>
<path d="M8452 2078 c-24 -24 -6 -69 28 -67 9 0 6 4 -7 9 -14 6 -23 18 -23 30
0 12 9 24 23 30 13 5 16 9 7 9 -9 1 -21 -4 -28 -11z"/>
<path d="M8628 2080 c12 -5 22 -18 22 -30 0 -12 -10 -25 -22 -30 -18 -8 -19
-9 -4 -7 10 1 24 10 30 20 14 21 -2 51 -30 54 -15 2 -14 1 4 -7z"/>
<path d="M8683 2050 c0 -25 2 -35 4 -22 2 12 2 32 0 45 -2 12 -4 2 -4 -23z"/>
<path d="M8738 2083 c7 -3 16 -2 19 1 4 3 -2 6 -13 5 -11 0 -14 -3 -6 -6z"/>
<path d="M8850 2086 c0 -2 9 -6 20 -9 11 -3 18 -1 14 4 -5 9 -34 13 -34 5z"/>
<path d="M8992 2084 c11 -3 18 -19 21 -42 l4 -37 -1 40 c-1 32 -5 40 -21 42
-15 1 -15 0 -3 -3z"/>
<path d="M9088 2080 c25 -11 30 -48 7 -56 -8 -4 -23 0 -33 7 -16 12 -16 12 -1
-5 25 -27 59 -13 59 24 0 26 -16 41 -43 39 -7 0 -2 -4 11 -9z"/>
<path d="M9196 2081 c-4 -5 3 -7 14 -4 23 6 26 13 6 13 -8 0 -17 -4 -20 -9z"/>
<path d="M9323 2050 c0 -25 2 -35 4 -22 2 12 2 32 0 45 -2 12 -4 2 -4 -23z"/>
<path d="M9583 2083 c9 -2 23 -2 30 0 6 3 -1 5 -18 5 -16 0 -22 -2 -12 -5z"/>
<path d="M9740 2086 c0 -2 9 -6 20 -9 11 -3 18 -1 14 4 -5 9 -34 13 -34 5z"/>
<path d="M9848 2080 c12 -5 22 -18 22 -30 0 -12 -10 -25 -22 -30 -18 -8 -19
-9 -4 -7 10 1 24 10 30 20 14 21 -2 51 -30 54 -15 2 -14 1 4 -7z"/>
<path d="M9948 2080 c12 -5 22 -18 22 -30 0 -12 -10 -25 -22 -30 -18 -8 -19
-9 -4 -7 10 1 24 10 30 20 14 21 -2 51 -30 54 -15 2 -14 1 4 -7z"/>
<path d="M10046 2081 c-4 -5 3 -7 14 -4 23 6 26 13 6 13 -8 0 -17 -4 -20 -9z"/>
<path d="M3873 2053 c9 -2 23 -2 30 0 6 3 -1 5 -18 5 -16 0 -22 -2 -12 -5z"/>
<path d="M4680 2052 c0 -4 16 -6 35 -4 19 2 35 6 35 8 0 2 -16 4 -35 4 -19 0
-35 -4 -35 -8z"/>
<path d="M8373 2053 c9 -2 23 -2 30 0 6 3 -1 5 -18 5 -16 0 -22 -2 -12 -5z"/>
<path d="M9180 2052 c0 -4 16 -6 35 -4 19 2 35 6 35 8 0 2 -16 4 -35 4 -19 0
-35 -4 -35 -8z"/>
<path d="M4255 2038 c6 -14 2 -18 -16 -19 -19 -1 -20 -2 -5 -6 25 -7 44 13 27
30 -10 10 -11 9 -6 -5z"/>
<path d="M8755 2038 c6 -14 2 -18 -16 -19 -19 -1 -20 -2 -5 -6 25 -7 44 13 27
30 -10 10 -11 9 -6 -5z"/>
<path d="M4365 2020 c-16 -7 -17 -9 -3 -9 9 -1 20 4 23 9 7 11 7 11 -20 0z"/>
<path d="M4725 2020 c-16 -7 -17 -9 -3 -9 9 -1 20 4 23 9 7 11 7 11 -20 0z"/>
<path d="M5090 2020 c0 -6 7 -10 15 -10 8 0 15 2 15 4 0 2 -7 6 -15 10 -8 3
-15 1 -15 -4z"/>
<path d="M5560 2020 c-23 -7 -23 -8 -3 -9 12 -1 25 4 28 9 3 6 5 10 3 9 -2 -1
-14 -5 -28 -9z"/>
<path d="M8865 2020 c-16 -7 -17 -9 -3 -9 9 -1 20 4 23 9 7 11 7 11 -20 0z"/>
<path d="M9225 2020 c-16 -7 -17 -9 -3 -9 9 -1 20 4 23 9 7 11 7 11 -20 0z"/>
<path d="M9590 2020 c0 -6 7 -10 15 -10 8 0 15 2 15 4 0 2 -7 6 -15 10 -8 3
-15 1 -15 -4z"/>
<path d="M10060 2020 c-23 -7 -23 -8 -3 -9 12 -1 25 4 28 9 3 6 5 10 3 9 -2
-1 -14 -5 -28 -9z"/>
<path d="M4568 1983 c6 -2 18 -2 25 0 6 3 1 5 -13 5 -14 0 -19 -2 -12 -5z"/>
<path d="M9068 1983 c6 -2 18 -2 25 0 6 3 1 5 -13 5 -14 0 -19 -2 -12 -5z"/>
<path d="M7342 330 c-1 -43 1 -51 9 -37 10 18 11 18 31 0 20 -18 21 -18 8 4
-11 18 -12 24 -1 37 8 9 9 16 3 16 -5 0 -16 -7 -23 -17 -13 -15 -15 -13 -20
18 -5 28 -7 25 -7 -21z"/>
<path d="M6592 358 c-7 -7 -12 -16 -12 -22 0 -5 6 -3 13 6 6 9 21 18 32 21 20
5 20 5 0 6 -12 0 -26 -4 -33 -11z"/>
<path d="M6924 359 c-7 -11 9 -39 34 -63 20 -18 21 -17 46 8 14 14 26 34 26
44 0 17 -7 20 -50 20 -28 0 -53 -4 -56 -9z"/>
<path d="M7080 325 c0 -25 5 -45 10 -45 6 0 10 7 10 15 0 19 9 19 29 1 14 -13
16 -10 18 22 2 39 -9 52 -44 52 -21 0 -23 -5 -23 -45z m58 12 c2 -12 -3 -17
-17 -17 -15 0 -21 6 -21 21 0 25 33 22 38 -4z"/>
<path d="M7498 355 c-8 -8 3 -53 16 -64 8 -7 11 1 10 27 -1 33 -13 50 -26 37z"/>
<path d="M7787 354 c-9 -10 9 -68 23 -72 12 -4 13 -2 3 9 -16 17 -17 46 -1 51
8 3 6 6 -4 10 -9 4 -18 5 -21 2z"/>
<path d="M6676 342 c-4 -6 3 -8 15 -5 12 4 25 0 31 -8 8 -12 9 -11 5 1 -4 17
-42 26 -51 12z"/>
<path d="M6751 311 c1 -36 1 -36 8 -6 6 29 41 50 41 25 0 -10 4 -10 15 0 8 7
23 9 32 6 10 -4 14 -3 9 1 -4 4 -30 8 -57 9 l-49 1 1 -36z"/>
<path d="M7187 335 c-18 -18 -13 -40 11 -50 23 -9 49 21 36 42 -15 24 -29 26
-47 8z m40 -11 c9 -23 -13 -40 -32 -24 -12 10 -13 16 -4 26 15 18 28 18 36 -2z"/>
<path d="M7272 338 c-27 -27 2 -68 35 -49 16 9 15 10 -7 8 -19 -1 -25 3 -25
18 0 15 6 19 25 17 19 -2 22 0 10 8 -19 13 -24 12 -38 -2z"/>
<path d="M7433 343 c-19 -7 -16 -50 4 -57 9 -4 21 -2 27 4 8 8 6 9 -5 5 -10
-4 -20 -2 -24 4 -4 7 4 11 19 11 28 0 33 9 14 28 -13 13 -16 13 -35 5z m32
-13 c3 -5 -3 -10 -15 -10 -12 0 -18 5 -15 10 3 6 10 10 15 10 5 0 12 -4 15
-10z"/>
<path d="M7560 334 c-11 -13 -10 -16 8 -21 26 -7 28 -20 5 -27 -15 -4 -15 -5
1 -3 27 3 32 27 7 34 -11 3 -18 10 -15 15 3 5 13 7 21 4 8 -3 11 -1 8 4 -9 14
-21 12 -35 -6z"/>
<path d="M7629 334 c-16 -19 -1 -48 27 -52 15 -2 13 1 -6 12 l-25 15 28 1 c19
0 27 5 26 18 0 10 -3 12 -6 5 -2 -7 -14 -13 -26 -13 -22 1 -22 1 -3 15 11 8
15 15 9 15 -6 0 -16 -7 -24 -16z"/>
<path d="M7735 338 c19 -12 19 -12 -5 -18 -26 -6 -35 -31 -12 -36 7 -1 8 0 2
3 -13 6 -3 23 15 23 7 0 16 -8 18 -17 3 -12 5 -9 6 8 1 26 -15 49 -33 49 -6 0
-2 -6 9 -12z"/>
<path d="M6580 314 c0 -18 27 -36 47 -31 14 4 14 5 -4 6 -12 0 -27 9 -32 19
-6 9 -11 12 -11 6z"/>
<path d="M6720 301 c0 -9 -9 -12 -25 -9 -13 3 -22 1 -19 -3 7 -13 42 -11 49 2
4 6 4 13 1 16 -3 4 -6 1 -6 -6z"/>
</g>
</svg>
